<mxfile host="app.diagrams.net" agent="Mozilla/5.0 (Windows NT 10.0; Win64; x64) AppleWebKit/537.36 (KHTML, like Gecko) Chrome/126.0.0.0 Safari/537.36 OPR/112.0.0.0 (Edition std-2)" version="24.7.14" pages="5">
  <diagram id="cDPQLl5SmuDZNO5qdsiz" name="Standardnavigation">
    <mxGraphModel dx="1420" dy="-20" grid="1" gridSize="10" guides="1" tooltips="1" connect="1" arrows="1" fold="1" page="1" pageScale="1" pageWidth="1100" pageHeight="850" math="0" shadow="0">
      <root>
        <mxCell id="0" />
        <mxCell id="1" parent="0" />
        <mxCell id="q2V6CQ9dd7ROV2D4xO0i-1" value="View: Bibliothek&lt;br&gt;(as default)" style="strokeWidth=1;html=1;shape=mxgraph.flowchart.start_2;whiteSpace=wrap;rounded=0;shadow=1;strokeColor=default;align=center;verticalAlign=middle;fontFamily=Verdana;fontSize=8;fontColor=default;labelBackgroundColor=none;fillColor=default;" vertex="1" parent="1">
          <mxGeometry x="30" y="1220" width="60" height="60" as="geometry" />
        </mxCell>
        <mxCell id="q2V6CQ9dd7ROV2D4xO0i-2" value="Klick [Logout]" style="whiteSpace=wrap;html=1;rounded=0;shadow=1;labelBackgroundColor=none;strokeWidth=1;fontFamily=Verdana;fontSize=8;align=center;" vertex="1" parent="1">
          <mxGeometry x="260" y="1430" width="120" height="40" as="geometry" />
        </mxCell>
        <mxCell id="q2V6CQ9dd7ROV2D4xO0i-3" value="View: Login" style="strokeWidth=1;html=1;shape=mxgraph.flowchart.terminator;whiteSpace=wrap;fontFamily=Verdana;fontSize=8;fontColor=default;labelBackgroundColor=none;resizable=0;rounded=0;shadow=1;strokeColor=default;align=center;verticalAlign=middle;fillColor=default;" vertex="1" parent="1">
          <mxGeometry x="453.76" y="1420" width="100" height="60" as="geometry" />
        </mxCell>
        <mxCell id="q2V6CQ9dd7ROV2D4xO0i-4" style="edgeStyle=orthogonalEdgeStyle;rounded=0;orthogonalLoop=1;jettySize=auto;html=1;entryX=0;entryY=0.5;entryDx=0;entryDy=0;entryPerimeter=0;strokeColor=default;strokeWidth=1;align=center;verticalAlign=middle;fontFamily=Verdana;fontSize=8;fontColor=default;labelBackgroundColor=none;resizable=0;endArrow=classic;fillColor=none;gradientColor=none;" edge="1" parent="1" source="q2V6CQ9dd7ROV2D4xO0i-2" target="q2V6CQ9dd7ROV2D4xO0i-3">
          <mxGeometry relative="1" as="geometry">
            <mxPoint x="480" y="1450" as="targetPoint" />
          </mxGeometry>
        </mxCell>
        <mxCell id="q2V6CQ9dd7ROV2D4xO0i-5" value="Logout" style="edgeStyle=orthogonalEdgeStyle;rounded=0;orthogonalLoop=1;jettySize=auto;html=1;entryX=0;entryY=0.5;entryDx=0;entryDy=0;exitX=0.5;exitY=1;exitDx=0;exitDy=0;strokeColor=default;strokeWidth=1;align=center;verticalAlign=middle;fontFamily=Verdana;fontSize=8;fontColor=default;labelBackgroundColor=none;resizable=0;endArrow=classic;fillColor=none;gradientColor=none;" edge="1" parent="1" source="q2V6CQ9dd7ROV2D4xO0i-6" target="q2V6CQ9dd7ROV2D4xO0i-2">
          <mxGeometry relative="1" as="geometry">
            <mxPoint x="176" y="1470.0000000000002" as="targetPoint" />
          </mxGeometry>
        </mxCell>
        <mxCell id="q2V6CQ9dd7ROV2D4xO0i-6" value="Absicht" style="rhombus;whiteSpace=wrap;html=1;rounded=0;shadow=1;labelBackgroundColor=none;strokeWidth=1;fontFamily=Verdana;fontSize=8;align=center;" vertex="1" parent="1">
          <mxGeometry x="126" y="1220" width="100" height="60" as="geometry" />
        </mxCell>
        <mxCell id="nJ3rMyeO_FjsMSupT_S6-1" value="&lt;pre&gt;&lt;span style=&quot;font-family: Helvetica; white-space: normal;&quot;&gt;&lt;font style=&quot;font-size: 15px;&quot;&gt;UF3 - Bibliothek ansehen&lt;/font&gt;&lt;/span&gt;&lt;/pre&gt;" style="text;whiteSpace=wrap;html=1;strokeColor=default;verticalAlign=middle;labelPosition=center;verticalLabelPosition=middle;align=center;" vertex="1" parent="1">
          <mxGeometry x="10" y="860" width="210" height="60" as="geometry" />
        </mxCell>
        <mxCell id="nJ3rMyeO_FjsMSupT_S6-2" value="Die Landing Page ist die Bibliothek&amp;nbsp;" style="text;html=1;align=center;verticalAlign=middle;whiteSpace=wrap;rounded=0;strokeColor=default;fontSize=9;" vertex="1" parent="1">
          <mxGeometry x="230" y="860" width="420" height="60" as="geometry" />
        </mxCell>
        <mxCell id="nJ3rMyeO_FjsMSupT_S6-3" value="Views:&lt;div style=&quot;font-size: 8px;&quot;&gt;&lt;ul style=&quot;font-size: 8px;&quot;&gt;&lt;li style=&quot;font-size: 8px;&quot;&gt;Bibliothek&lt;/li&gt;&lt;/ul&gt;&lt;/div&gt;" style="text;html=1;align=left;verticalAlign=top;whiteSpace=wrap;rounded=0;textShadow=0;strokeColor=default;fontSize=8;" vertex="1" parent="1">
          <mxGeometry x="670" y="860" width="420" height="60" as="geometry" />
        </mxCell>
      </root>
    </mxGraphModel>
  </diagram>
  <diagram name="UserManagement" id="edf60f1a-56cd-e834-aa8a-f176f3a09ee4">
    <mxGraphModel dx="2450" dy="1025" grid="1" gridSize="10" guides="1" tooltips="1" connect="1" arrows="1" fold="1" page="1" pageScale="1" pageWidth="1100" pageHeight="850" background="none" math="0" shadow="0">
      <root>
        <mxCell id="0" />
        <mxCell id="1" parent="0" />
        <mxCell id="60e70716793133e9-33" value="Einlogen" style="edgeStyle=orthogonalEdgeStyle;rounded=0;html=1;labelBackgroundColor=none;startSize=5;endArrow=classicThin;endFill=1;endSize=5;jettySize=auto;orthogonalLoop=1;strokeWidth=1;fontFamily=Verdana;fontSize=8;entryX=0;entryY=0.5;entryDx=0;entryDy=0;exitX=0.5;exitY=1;exitDx=0;exitDy=0;" parent="1" source="60e70716793133e9-7" target="D2tK3TR9OwjeKPHOvS4X-5" edge="1">
          <mxGeometry x="-0.8666" y="20" relative="1" as="geometry">
            <mxPoint as="offset" />
            <mxPoint x="299.9523809523812" y="250.02857142857135" as="sourcePoint" />
            <mxPoint x="350" y="380" as="targetPoint" />
          </mxGeometry>
        </mxCell>
        <mxCell id="60e70716793133e9-34" value="Registrieren" style="edgeStyle=orthogonalEdgeStyle;rounded=0;html=1;labelBackgroundColor=none;startSize=5;endArrow=classicThin;endFill=1;endSize=5;jettySize=auto;orthogonalLoop=1;strokeWidth=1;fontFamily=Verdana;fontSize=8;exitX=0.5;exitY=0;exitDx=0;exitDy=0;entryX=0;entryY=0.5;entryDx=0;entryDy=0;" parent="1" source="60e70716793133e9-7" target="mbuuGPA5xwLoq5NB57OV-7" edge="1">
          <mxGeometry x="-0.9046" y="-30" relative="1" as="geometry">
            <mxPoint as="offset" />
            <mxPoint x="390" y="170" as="targetPoint" />
          </mxGeometry>
        </mxCell>
        <mxCell id="60e70716793133e9-7" value="Einlogen oder &lt;br&gt;Registrieren?" style="rhombus;whiteSpace=wrap;html=1;rounded=0;shadow=1;labelBackgroundColor=none;strokeWidth=1;fontFamily=Verdana;fontSize=8;align=center;" parent="1" vertex="1">
          <mxGeometry x="370" y="280" width="100" height="60" as="geometry" />
        </mxCell>
        <mxCell id="mbuuGPA5xwLoq5NB57OV-6" value="Nein" style="edgeStyle=orthogonalEdgeStyle;rounded=0;orthogonalLoop=1;jettySize=auto;html=1;entryX=0.5;entryY=1;entryDx=0;entryDy=0;exitX=0.5;exitY=1;exitDx=0;exitDy=0;strokeColor=default;strokeWidth=1;align=center;verticalAlign=middle;fontFamily=Verdana;fontSize=8;fontColor=default;labelBackgroundColor=none;resizable=0;endArrow=classic;fillColor=none;gradientColor=none;" parent="1" source="60e70716793133e9-14" target="D2tK3TR9OwjeKPHOvS4X-5" edge="1">
          <mxGeometry x="-0.9634" y="12" relative="1" as="geometry">
            <Array as="points">
              <mxPoint x="798" y="540" />
              <mxPoint x="500" y="540" />
            </Array>
            <mxPoint as="offset" />
          </mxGeometry>
        </mxCell>
        <mxCell id="60e70716793133e9-14" value="Authentifizierung:&lt;br&gt;Credentials korrekt?" style="rhombus;whiteSpace=wrap;html=1;rounded=0;shadow=1;labelBackgroundColor=none;strokeWidth=1;fontFamily=Verdana;fontSize=8;align=center;strokeColor=default;verticalAlign=middle;fontColor=default;fillColor=default;" parent="1" vertex="1">
          <mxGeometry x="740" y="435" width="116.24" height="70" as="geometry" />
        </mxCell>
        <mxCell id="D2tK3TR9OwjeKPHOvS4X-1" value="&lt;pre&gt;&lt;span style=&quot;font-family: Helvetica; white-space: normal;&quot;&gt;&lt;font style=&quot;font-size: 15px;&quot;&gt;UF1 - Einlogen oder Registrieren&lt;/font&gt;&lt;/span&gt;&lt;/pre&gt;" style="text;whiteSpace=wrap;html=1;strokeColor=default;verticalAlign=top;" parent="1" vertex="1">
          <mxGeometry x="10" y="10" width="210" height="60" as="geometry" />
        </mxCell>
        <mxCell id="mbuuGPA5xwLoq5NB57OV-2" style="edgeStyle=orthogonalEdgeStyle;rounded=0;orthogonalLoop=1;jettySize=auto;html=1;entryX=0;entryY=0.5;entryDx=0;entryDy=0;" parent="1" source="D2tK3TR9OwjeKPHOvS4X-2" target="mbuuGPA5xwLoq5NB57OV-1" edge="1">
          <mxGeometry relative="1" as="geometry" />
        </mxCell>
        <mxCell id="D2tK3TR9OwjeKPHOvS4X-2" value="View: Bibliothek&lt;br&gt;(loged out)" style="strokeWidth=1;html=1;shape=mxgraph.flowchart.start_2;whiteSpace=wrap;rounded=0;shadow=1;strokeColor=default;align=center;verticalAlign=middle;fontFamily=Verdana;fontSize=8;fontColor=default;labelBackgroundColor=none;fillColor=default;" parent="1" vertex="1">
          <mxGeometry x="15" y="280" width="60" height="60" as="geometry" />
        </mxCell>
        <mxCell id="D2tK3TR9OwjeKPHOvS4X-3" value="Hier wird der Prozess zum einlogen oder registrieren eines Benutzers dargestellt." style="text;html=1;align=center;verticalAlign=middle;whiteSpace=wrap;rounded=0;strokeColor=default;fontSize=9;" parent="1" vertex="1">
          <mxGeometry x="230" y="10" width="420" height="60" as="geometry" />
        </mxCell>
        <mxCell id="D2tK3TR9OwjeKPHOvS4X-4" value="Views:&lt;div style=&quot;font-size: 8px;&quot;&gt;&lt;ul style=&quot;font-size: 8px;&quot;&gt;&lt;li style=&quot;font-size: 8px;&quot;&gt;Bibliothek (loged out)&lt;/li&gt;&lt;li style=&quot;font-size: 8px;&quot;&gt;Login&lt;/li&gt;&lt;li style=&quot;font-size: 8px;&quot;&gt;Registrieren&lt;/li&gt;&lt;/ul&gt;&lt;/div&gt;" style="text;html=1;align=left;verticalAlign=top;whiteSpace=wrap;rounded=0;textShadow=0;strokeColor=default;fontSize=8;" parent="1" vertex="1">
          <mxGeometry x="670" y="10" width="420" height="60" as="geometry" />
        </mxCell>
        <mxCell id="mbuuGPA5xwLoq5NB57OV-14" style="edgeStyle=orthogonalEdgeStyle;rounded=0;orthogonalLoop=1;jettySize=auto;html=1;entryX=0;entryY=0.5;entryDx=0;entryDy=0;strokeColor=default;strokeWidth=1;align=center;verticalAlign=middle;fontFamily=Verdana;fontSize=8;fontColor=default;labelBackgroundColor=none;resizable=0;endArrow=classic;fillColor=none;gradientColor=none;" parent="1" source="D2tK3TR9OwjeKPHOvS4X-5" target="mbuuGPA5xwLoq5NB57OV-13" edge="1">
          <mxGeometry relative="1" as="geometry" />
        </mxCell>
        <mxCell id="D2tK3TR9OwjeKPHOvS4X-5" value="Eingabe Credentials&amp;nbsp;" style="whiteSpace=wrap;html=1;rounded=0;shadow=1;labelBackgroundColor=none;strokeWidth=1;fontFamily=Verdana;fontSize=8;align=center;" parent="1" vertex="1">
          <mxGeometry x="440" y="450" width="120" height="40" as="geometry" />
        </mxCell>
        <mxCell id="mbuuGPA5xwLoq5NB57OV-9" style="edgeStyle=orthogonalEdgeStyle;rounded=0;orthogonalLoop=1;jettySize=auto;html=1;entryX=0;entryY=0.5;entryDx=0;entryDy=0;strokeColor=default;strokeWidth=1;align=center;verticalAlign=middle;fontFamily=Verdana;fontSize=8;fontColor=default;labelBackgroundColor=none;resizable=0;endArrow=classic;fillColor=none;gradientColor=none;" parent="1" source="D2tK3TR9OwjeKPHOvS4X-6" target="mbuuGPA5xwLoq5NB57OV-16" edge="1">
          <mxGeometry relative="1" as="geometry" />
        </mxCell>
        <mxCell id="D2tK3TR9OwjeKPHOvS4X-6" value="Eingabe Benutzerinformationen:&lt;br&gt;&lt;ul&gt;&lt;li style=&quot;text-align: left;&quot;&gt;Benutzername&lt;/li&gt;&lt;li style=&quot;text-align: left;&quot;&gt;Email&lt;/li&gt;&lt;li style=&quot;text-align: left;&quot;&gt;Passwort&lt;/li&gt;&lt;/ul&gt;" style="whiteSpace=wrap;html=1;rounded=0;shadow=1;labelBackgroundColor=none;strokeWidth=1;fontFamily=Verdana;fontSize=8;align=center;" parent="1" vertex="1">
          <mxGeometry x="553.76" y="140" width="120" height="80" as="geometry" />
        </mxCell>
        <mxCell id="D2tK3TR9OwjeKPHOvS4X-16" style="edgeStyle=orthogonalEdgeStyle;rounded=0;orthogonalLoop=1;jettySize=auto;html=1;strokeColor=default;strokeWidth=1;align=center;verticalAlign=middle;fontFamily=Verdana;fontSize=8;fontColor=default;labelBackgroundColor=none;resizable=0;endArrow=classic;fillColor=none;gradientColor=none;entryX=0;entryY=0.5;entryDx=0;entryDy=0;entryPerimeter=0;" parent="1" source="D2tK3TR9OwjeKPHOvS4X-11" target="D2tK3TR9OwjeKPHOvS4X-17" edge="1">
          <mxGeometry relative="1" as="geometry">
            <mxPoint x="740" y="560" as="targetPoint" />
          </mxGeometry>
        </mxCell>
        <mxCell id="D2tK3TR9OwjeKPHOvS4X-20" value="Ja" style="edgeLabel;html=1;align=center;verticalAlign=middle;resizable=0;points=[];rounded=0;shadow=1;strokeColor=default;strokeWidth=1;fontFamily=Verdana;fontSize=8;fontColor=default;labelBackgroundColor=none;fillColor=default;" parent="D2tK3TR9OwjeKPHOvS4X-16" vertex="1" connectable="0">
          <mxGeometry x="-0.3351" y="-2" relative="1" as="geometry">
            <mxPoint x="-13" y="-12" as="offset" />
          </mxGeometry>
        </mxCell>
        <mxCell id="mbuuGPA5xwLoq5NB57OV-18" value="Nein" style="edgeStyle=orthogonalEdgeStyle;rounded=0;orthogonalLoop=1;jettySize=auto;html=1;entryX=0.5;entryY=1;entryDx=0;entryDy=0;strokeColor=default;strokeWidth=1;align=center;verticalAlign=middle;fontFamily=Verdana;fontSize=8;fontColor=default;labelBackgroundColor=none;resizable=0;endArrow=classic;fillColor=none;gradientColor=none;" parent="1" source="D2tK3TR9OwjeKPHOvS4X-11" target="D2tK3TR9OwjeKPHOvS4X-6" edge="1">
          <mxGeometry x="-0.9535" y="20" relative="1" as="geometry">
            <Array as="points">
              <mxPoint x="890" y="240" />
              <mxPoint x="614" y="240" />
            </Array>
            <mxPoint as="offset" />
          </mxGeometry>
        </mxCell>
        <mxCell id="D2tK3TR9OwjeKPHOvS4X-11" value="Informationen&lt;br&gt;vollständig und &lt;br&gt;valide?" style="rhombus;whiteSpace=wrap;html=1;rounded=0;shadow=1;labelBackgroundColor=none;strokeWidth=1;fontFamily=Verdana;fontSize=8;align=center;" parent="1" vertex="1">
          <mxGeometry x="840" y="147.5" width="100" height="65" as="geometry" />
        </mxCell>
        <mxCell id="D2tK3TR9OwjeKPHOvS4X-17" value="View: Bibliothek&lt;div&gt;(loged in)&lt;/div&gt;" style="strokeWidth=1;html=1;shape=mxgraph.flowchart.terminator;whiteSpace=wrap;fontFamily=Verdana;fontSize=8;fontColor=default;labelBackgroundColor=none;resizable=0;rounded=0;shadow=1;strokeColor=default;align=center;verticalAlign=middle;fillColor=default;" parent="1" vertex="1">
          <mxGeometry x="980" y="150" width="100" height="60" as="geometry" />
        </mxCell>
        <mxCell id="D2tK3TR9OwjeKPHOvS4X-18" value="View: Bibliothek&lt;div&gt;(loged in)&lt;/div&gt;" style="strokeWidth=1;html=1;shape=mxgraph.flowchart.terminator;whiteSpace=wrap;fontFamily=Verdana;fontSize=8;fontColor=default;labelBackgroundColor=none;resizable=0;rounded=0;shadow=1;strokeColor=default;align=center;verticalAlign=middle;fillColor=default;" parent="1" vertex="1">
          <mxGeometry x="980" y="440" width="100" height="60" as="geometry" />
        </mxCell>
        <mxCell id="D2tK3TR9OwjeKPHOvS4X-19" value="Ja" style="edgeStyle=orthogonalEdgeStyle;rounded=0;orthogonalLoop=1;jettySize=auto;html=1;entryX=0;entryY=0.5;entryDx=0;entryDy=0;entryPerimeter=0;strokeColor=default;strokeWidth=1;align=center;verticalAlign=middle;fontFamily=Verdana;fontSize=8;fontColor=default;labelBackgroundColor=none;resizable=0;endArrow=classic;fillColor=none;gradientColor=none;" parent="1" source="60e70716793133e9-14" target="D2tK3TR9OwjeKPHOvS4X-18" edge="1">
          <mxGeometry x="-0.9392" y="10" relative="1" as="geometry">
            <mxPoint as="offset" />
          </mxGeometry>
        </mxCell>
        <mxCell id="mbuuGPA5xwLoq5NB57OV-3" style="edgeStyle=orthogonalEdgeStyle;rounded=0;orthogonalLoop=1;jettySize=auto;html=1;entryX=0;entryY=0.5;entryDx=0;entryDy=0;" parent="1" source="mbuuGPA5xwLoq5NB57OV-1" target="mbuuGPA5xwLoq5NB57OV-4" edge="1">
          <mxGeometry relative="1" as="geometry">
            <mxPoint x="240" y="310" as="targetPoint" />
          </mxGeometry>
        </mxCell>
        <mxCell id="mbuuGPA5xwLoq5NB57OV-1" value="Klick [Login]" style="whiteSpace=wrap;html=1;rounded=0;shadow=1;labelBackgroundColor=none;strokeWidth=1;fontFamily=Verdana;fontSize=8;align=center;" parent="1" vertex="1">
          <mxGeometry x="100" y="290" width="120" height="40" as="geometry" />
        </mxCell>
        <mxCell id="mbuuGPA5xwLoq5NB57OV-5" style="edgeStyle=orthogonalEdgeStyle;rounded=0;orthogonalLoop=1;jettySize=auto;html=1;entryX=0;entryY=0.5;entryDx=0;entryDy=0;" parent="1" source="mbuuGPA5xwLoq5NB57OV-4" target="60e70716793133e9-7" edge="1">
          <mxGeometry relative="1" as="geometry" />
        </mxCell>
        <mxCell id="mbuuGPA5xwLoq5NB57OV-4" value="View: Login" style="ellipse;whiteSpace=wrap;html=1;rounded=0;shadow=1;strokeColor=default;strokeWidth=1;align=center;verticalAlign=middle;fontFamily=Verdana;fontSize=8;fontColor=default;labelBackgroundColor=none;fillColor=default;" parent="1" vertex="1">
          <mxGeometry x="250" y="285" width="90" height="50" as="geometry" />
        </mxCell>
        <mxCell id="mbuuGPA5xwLoq5NB57OV-8" style="edgeStyle=orthogonalEdgeStyle;rounded=0;orthogonalLoop=1;jettySize=auto;html=1;entryX=0;entryY=0.5;entryDx=0;entryDy=0;strokeColor=default;strokeWidth=1;align=center;verticalAlign=middle;fontFamily=Verdana;fontSize=8;fontColor=default;labelBackgroundColor=none;resizable=0;endArrow=classic;fillColor=none;gradientColor=none;" parent="1" source="mbuuGPA5xwLoq5NB57OV-7" target="D2tK3TR9OwjeKPHOvS4X-6" edge="1">
          <mxGeometry relative="1" as="geometry" />
        </mxCell>
        <mxCell id="mbuuGPA5xwLoq5NB57OV-7" value="View: Registrieren" style="ellipse;whiteSpace=wrap;html=1;rounded=0;shadow=1;strokeColor=default;strokeWidth=1;align=center;verticalAlign=middle;fontFamily=Verdana;fontSize=8;fontColor=default;labelBackgroundColor=none;fillColor=default;" parent="1" vertex="1">
          <mxGeometry x="440" y="155" width="90" height="50" as="geometry" />
        </mxCell>
        <mxCell id="mbuuGPA5xwLoq5NB57OV-15" style="edgeStyle=orthogonalEdgeStyle;rounded=0;orthogonalLoop=1;jettySize=auto;html=1;strokeColor=default;strokeWidth=1;align=center;verticalAlign=middle;fontFamily=Verdana;fontSize=8;fontColor=default;labelBackgroundColor=none;resizable=0;endArrow=classic;fillColor=none;gradientColor=none;" parent="1" source="mbuuGPA5xwLoq5NB57OV-13" target="60e70716793133e9-14" edge="1">
          <mxGeometry relative="1" as="geometry" />
        </mxCell>
        <mxCell id="mbuuGPA5xwLoq5NB57OV-13" value="Klick [Login]&amp;nbsp;" style="whiteSpace=wrap;html=1;rounded=0;shadow=1;labelBackgroundColor=none;strokeWidth=1;fontFamily=Verdana;fontSize=8;align=center;" parent="1" vertex="1">
          <mxGeometry x="590" y="450" width="120" height="40" as="geometry" />
        </mxCell>
        <mxCell id="mbuuGPA5xwLoq5NB57OV-17" style="edgeStyle=orthogonalEdgeStyle;rounded=0;orthogonalLoop=1;jettySize=auto;html=1;strokeColor=default;strokeWidth=1;align=center;verticalAlign=middle;fontFamily=Verdana;fontSize=8;fontColor=default;labelBackgroundColor=none;resizable=0;endArrow=classic;fillColor=none;gradientColor=none;" parent="1" source="mbuuGPA5xwLoq5NB57OV-16" target="D2tK3TR9OwjeKPHOvS4X-11" edge="1">
          <mxGeometry relative="1" as="geometry" />
        </mxCell>
        <mxCell id="mbuuGPA5xwLoq5NB57OV-16" value="Klick [Registrieren]&amp;nbsp;" style="whiteSpace=wrap;html=1;rounded=0;shadow=1;labelBackgroundColor=none;strokeWidth=1;fontFamily=Verdana;fontSize=8;align=center;" parent="1" vertex="1">
          <mxGeometry x="700" y="160" width="120" height="40" as="geometry" />
        </mxCell>
        <mxCell id="46SvIgkUG7cXRvw6_ES7-11" style="edgeStyle=orthogonalEdgeStyle;rounded=0;orthogonalLoop=1;jettySize=auto;html=1;entryX=0;entryY=0.5;entryDx=0;entryDy=0;" parent="1" source="mbuuGPA5xwLoq5NB57OV-140" target="46SvIgkUG7cXRvw6_ES7-10" edge="1">
          <mxGeometry relative="1" as="geometry" />
        </mxCell>
        <mxCell id="mbuuGPA5xwLoq5NB57OV-140" value="Klick [Profildaten ändern]" style="whiteSpace=wrap;html=1;rounded=0;shadow=1;labelBackgroundColor=none;strokeWidth=1;fontFamily=Verdana;fontSize=8;align=center;" parent="1" vertex="1">
          <mxGeometry x="350.02" y="1140" width="120" height="40" as="geometry" />
        </mxCell>
        <mxCell id="mbuuGPA5xwLoq5NB57OV-142" value="Klick [Änderung speichern]" style="whiteSpace=wrap;html=1;rounded=0;shadow=1;labelBackgroundColor=none;strokeWidth=1;fontFamily=Verdana;fontSize=8;align=center;" parent="1" vertex="1">
          <mxGeometry x="900" y="1080" width="120" height="40" as="geometry" />
        </mxCell>
        <mxCell id="Pk-tPmqMgojB2sV6dSQ5-8" style="edgeStyle=orthogonalEdgeStyle;rounded=0;orthogonalLoop=1;jettySize=auto;html=1;entryX=1;entryY=0.5;entryDx=0;entryDy=0;fontFamily=Verdana;fontSize=8;fontColor=default;labelBackgroundColor=none;resizable=0;" parent="1" source="mbuuGPA5xwLoq5NB57OV-147" target="Pk-tPmqMgojB2sV6dSQ5-6" edge="1">
          <mxGeometry relative="1" as="geometry" />
        </mxCell>
        <mxCell id="mbuuGPA5xwLoq5NB57OV-147" value="Klick [Profil löschen]" style="whiteSpace=wrap;html=1;rounded=0;shadow=1;labelBackgroundColor=none;strokeWidth=1;fontFamily=Verdana;fontSize=8;align=center;" parent="1" vertex="1">
          <mxGeometry x="350.02" y="1290" width="120" height="40" as="geometry" />
        </mxCell>
        <mxCell id="mbuuGPA5xwLoq5NB57OV-161" value="Klick [Abbrechen]" style="whiteSpace=wrap;html=1;rounded=0;shadow=1;labelBackgroundColor=none;strokeWidth=1;fontFamily=Verdana;fontSize=8;align=center;" parent="1" vertex="1">
          <mxGeometry x="900" y="1140" width="120" height="40" as="geometry" />
        </mxCell>
        <mxCell id="mbuuGPA5xwLoq5NB57OV-170" value="View: Bibliothek&lt;br&gt;(loged out)" style="strokeWidth=1;html=1;shape=mxgraph.flowchart.terminator;whiteSpace=wrap;fontFamily=Verdana;fontSize=8;fontColor=default;labelBackgroundColor=none;resizable=0;rounded=0;shadow=1;strokeColor=default;align=center;verticalAlign=middle;fillColor=default;" parent="1" vertex="1">
          <mxGeometry x="990" y="1390" width="100" height="60" as="geometry" />
        </mxCell>
        <mxCell id="mbuuGPA5xwLoq5NB57OV-174" value="Anzeige der Profildaten" style="whiteSpace=wrap;html=1;rounded=0;shadow=1;labelBackgroundColor=none;strokeWidth=1;fontFamily=Verdana;fontSize=8;align=center;" parent="1" vertex="1">
          <mxGeometry x="350.02" y="980" width="120" height="40" as="geometry" />
        </mxCell>
        <mxCell id="46SvIgkUG7cXRvw6_ES7-6" style="edgeStyle=orthogonalEdgeStyle;rounded=0;orthogonalLoop=1;jettySize=auto;html=1;entryX=0.5;entryY=0;entryDx=0;entryDy=0;" parent="1" source="mbuuGPA5xwLoq5NB57OV-214" target="46SvIgkUG7cXRvw6_ES7-4" edge="1">
          <mxGeometry relative="1" as="geometry" />
        </mxCell>
        <mxCell id="mbuuGPA5xwLoq5NB57OV-214" value="View: Profil - Profildaten" style="strokeWidth=1;html=1;shape=mxgraph.flowchart.start_2;whiteSpace=wrap;rounded=0;shadow=1;strokeColor=default;align=center;verticalAlign=middle;fontFamily=Verdana;fontSize=8;fontColor=default;labelBackgroundColor=none;fillColor=default;" parent="1" vertex="1">
          <mxGeometry x="39.99999999999999" y="1040" width="60" height="60" as="geometry" />
        </mxCell>
        <mxCell id="mbuuGPA5xwLoq5NB57OV-215" style="edgeStyle=orthogonalEdgeStyle;rounded=0;orthogonalLoop=1;jettySize=auto;html=1;shadow=1;strokeColor=default;strokeWidth=1;align=center;verticalAlign=middle;fontFamily=Verdana;fontSize=8;fontColor=default;labelBackgroundColor=none;endArrow=classic;fillColor=default;exitX=0.5;exitY=1;exitDx=0;exitDy=0;entryX=0;entryY=0.5;entryDx=0;entryDy=0;" parent="1" source="mbuuGPA5xwLoq5NB57OV-221" target="mbuuGPA5xwLoq5NB57OV-147" edge="1">
          <mxGeometry relative="1" as="geometry">
            <mxPoint x="320" y="1320" as="targetPoint" />
            <mxPoint x="220" y="1210" as="sourcePoint" />
            <Array as="points">
              <mxPoint x="220" y="1310" />
            </Array>
          </mxGeometry>
        </mxCell>
        <mxCell id="mbuuGPA5xwLoq5NB57OV-216" value="&lt;span style=&quot;color: rgba(0, 0, 0, 0); font-family: monospace; font-size: 0px; text-align: start;&quot;&gt;%3CmxGraphModel%3E%3Croot%3E%3CmxCell%20id%3D%220%22%2F%3E%3CmxCell%20id%3D%221%22%20parent%3D%220%22%2F%3E%3CmxCell%20id%3D%222%22%20value%3D%22Fragenpool%20%26lt%3Bbr%26gt%3Bhinzuf%C3%BCgen%22%20style%3D%22edgeLabel%3Bhtml%3D1%3Balign%3Dcenter%3BverticalAlign%3Dmiddle%3Bresizable%3D0%3Bpoints%3D%5B%5D%3BfontFamily%3DVerdana%3BfontSize%3D8%3BfontColor%3Ddefault%3BlabelBackgroundColor%3Dnone%3B%22%20vertex%3D%221%22%20connectable%3D%220%22%20parent%3D%221%22%3E%3CmxGeometry%20x%3D%22140%22%20y%3D%222790%22%20as%3D%22geometry%22%2F%3E%3C%2FmxCell%3E%3C%2Froot%3E%3C%2FmxGraphModel%3EFra&lt;/span&gt;" style="edgeLabel;html=1;align=center;verticalAlign=middle;resizable=0;points=[];fontFamily=Verdana;fontSize=8;fontColor=default;labelBackgroundColor=none;" parent="mbuuGPA5xwLoq5NB57OV-215" vertex="1" connectable="0">
          <mxGeometry x="-0.6293" y="-3" relative="1" as="geometry">
            <mxPoint as="offset" />
          </mxGeometry>
        </mxCell>
        <mxCell id="mbuuGPA5xwLoq5NB57OV-217" value="Profil&lt;br&gt;&amp;nbsp;löschen" style="edgeLabel;html=1;align=center;verticalAlign=middle;resizable=0;points=[];fontFamily=Verdana;fontSize=8;fontColor=default;labelBackgroundColor=none;" parent="mbuuGPA5xwLoq5NB57OV-215" vertex="1" connectable="0">
          <mxGeometry x="-0.3366" y="1" relative="1" as="geometry">
            <mxPoint x="-31" y="-63" as="offset" />
          </mxGeometry>
        </mxCell>
        <mxCell id="mbuuGPA5xwLoq5NB57OV-218" style="edgeStyle=orthogonalEdgeStyle;rounded=0;orthogonalLoop=1;jettySize=auto;html=1;entryX=0;entryY=0.5;entryDx=0;entryDy=0;strokeColor=default;strokeWidth=1;align=center;verticalAlign=middle;fontFamily=Verdana;fontSize=8;fontColor=default;labelBackgroundColor=none;resizable=0;endArrow=classic;fillColor=none;gradientColor=none;exitX=0.5;exitY=0;exitDx=0;exitDy=0;" parent="1" source="mbuuGPA5xwLoq5NB57OV-221" target="mbuuGPA5xwLoq5NB57OV-174" edge="1">
          <mxGeometry relative="1" as="geometry">
            <mxPoint x="390" y="970" as="targetPoint" />
            <Array as="points">
              <mxPoint x="220" y="1000" />
            </Array>
          </mxGeometry>
        </mxCell>
        <mxCell id="mbuuGPA5xwLoq5NB57OV-219" value="Profildaten &lt;br&gt;anzeigen" style="edgeLabel;html=1;align=center;verticalAlign=middle;resizable=0;points=[];fontFamily=Verdana;fontSize=8;fontColor=default;labelBackgroundColor=none;" parent="mbuuGPA5xwLoq5NB57OV-218" vertex="1" connectable="0">
          <mxGeometry x="-0.4368" y="1" relative="1" as="geometry">
            <mxPoint x="-29" y="50" as="offset" />
          </mxGeometry>
        </mxCell>
        <mxCell id="mbuuGPA5xwLoq5NB57OV-220" value="Profildaten ändern" style="edgeStyle=orthogonalEdgeStyle;rounded=0;orthogonalLoop=1;jettySize=auto;html=1;strokeColor=default;strokeWidth=1;align=center;verticalAlign=middle;fontFamily=Verdana;fontSize=8;fontColor=default;labelBackgroundColor=none;resizable=0;endArrow=classic;fillColor=none;gradientColor=none;entryX=0;entryY=0.5;entryDx=0;entryDy=0;exitX=1;exitY=0.5;exitDx=0;exitDy=0;" parent="1" source="mbuuGPA5xwLoq5NB57OV-221" target="mbuuGPA5xwLoq5NB57OV-140" edge="1">
          <mxGeometry x="-0.0002" y="10" relative="1" as="geometry">
            <mxPoint x="390" y="1150" as="targetPoint" />
            <mxPoint as="offset" />
            <mxPoint x="270" y="1220" as="sourcePoint" />
            <Array as="points" />
          </mxGeometry>
        </mxCell>
        <mxCell id="mbuuGPA5xwLoq5NB57OV-221" value="Absicht" style="rhombus;whiteSpace=wrap;html=1;rounded=0;shadow=1;labelBackgroundColor=none;strokeWidth=1;fontFamily=Verdana;fontSize=8;align=center;" parent="1" vertex="1">
          <mxGeometry x="170" y="1130" width="100" height="60" as="geometry" />
        </mxCell>
        <mxCell id="46SvIgkUG7cXRvw6_ES7-1" value="&lt;pre&gt;&lt;span style=&quot;font-family: Helvetica; white-space: normal;&quot;&gt;&lt;font style=&quot;font-size: 15px;&quot;&gt;UF7 - Profildaten anzeigen &amp;amp; ändern&lt;/font&gt;&lt;/span&gt;&lt;/pre&gt;" style="text;whiteSpace=wrap;html=1;strokeColor=default;verticalAlign=top;" parent="1" vertex="1">
          <mxGeometry x="10" y="860" width="210" height="60" as="geometry" />
        </mxCell>
        <mxCell id="46SvIgkUG7cXRvw6_ES7-2" value="Hier wird der Prozess zum einlogen oder registrieren eines Benutzers dargestellt." style="text;html=1;align=center;verticalAlign=middle;whiteSpace=wrap;rounded=0;strokeColor=default;fontSize=9;" parent="1" vertex="1">
          <mxGeometry x="230" y="860" width="420" height="60" as="geometry" />
        </mxCell>
        <mxCell id="46SvIgkUG7cXRvw6_ES7-3" value="Views:&lt;div style=&quot;font-size: 8px;&quot;&gt;&lt;ul style=&quot;font-size: 8px;&quot;&gt;&lt;li style=&quot;font-size: 8px;&quot;&gt;Bibliothek (loged out)&lt;/li&gt;&lt;li style=&quot;font-size: 8px;&quot;&gt;Login&lt;/li&gt;&lt;li style=&quot;font-size: 8px;&quot;&gt;Registrieren&lt;/li&gt;&lt;/ul&gt;&lt;/div&gt;" style="text;html=1;align=left;verticalAlign=top;whiteSpace=wrap;rounded=0;textShadow=0;strokeColor=default;fontSize=8;" parent="1" vertex="1">
          <mxGeometry x="670" y="860" width="420" height="60" as="geometry" />
        </mxCell>
        <mxCell id="46SvIgkUG7cXRvw6_ES7-7" style="edgeStyle=orthogonalEdgeStyle;rounded=0;orthogonalLoop=1;jettySize=auto;html=1;entryX=0;entryY=0.5;entryDx=0;entryDy=0;" parent="1" source="46SvIgkUG7cXRvw6_ES7-4" target="mbuuGPA5xwLoq5NB57OV-221" edge="1">
          <mxGeometry relative="1" as="geometry" />
        </mxCell>
        <mxCell id="46SvIgkUG7cXRvw6_ES7-4" value="Klick [Profildaten]" style="whiteSpace=wrap;html=1;rounded=0;shadow=1;labelBackgroundColor=none;strokeWidth=1;fontFamily=Verdana;fontSize=8;align=center;" parent="1" vertex="1">
          <mxGeometry x="10" y="1140" width="120" height="40" as="geometry" />
        </mxCell>
        <mxCell id="46SvIgkUG7cXRvw6_ES7-13" style="edgeStyle=orthogonalEdgeStyle;rounded=0;orthogonalLoop=1;jettySize=auto;html=1;entryX=0;entryY=0.5;entryDx=0;entryDy=0;" parent="1" source="46SvIgkUG7cXRvw6_ES7-10" target="46SvIgkUG7cXRvw6_ES7-12" edge="1">
          <mxGeometry relative="1" as="geometry" />
        </mxCell>
        <mxCell id="46SvIgkUG7cXRvw6_ES7-10" value="View: Registrieren - Profildaten ändern" style="ellipse;whiteSpace=wrap;html=1;rounded=0;shadow=1;strokeColor=default;strokeWidth=1;align=center;verticalAlign=middle;fontFamily=Verdana;fontSize=8;fontColor=default;labelBackgroundColor=none;fillColor=default;" parent="1" vertex="1">
          <mxGeometry x="500" y="1135" width="90" height="50" as="geometry" />
        </mxCell>
        <mxCell id="46SvIgkUG7cXRvw6_ES7-15" style="edgeStyle=orthogonalEdgeStyle;rounded=0;orthogonalLoop=1;jettySize=auto;html=1;entryX=0;entryY=0.5;entryDx=0;entryDy=0;" parent="1" source="46SvIgkUG7cXRvw6_ES7-12" target="46SvIgkUG7cXRvw6_ES7-14" edge="1">
          <mxGeometry relative="1" as="geometry" />
        </mxCell>
        <mxCell id="46SvIgkUG7cXRvw6_ES7-12" value="Eingabe Benutzerinformationen:&lt;br&gt;&lt;ul&gt;&lt;li style=&quot;text-align: left;&quot;&gt;Benutzername&lt;/li&gt;&lt;li style=&quot;text-align: left;&quot;&gt;Email&lt;/li&gt;&lt;li style=&quot;text-align: left;&quot;&gt;Passwort&lt;/li&gt;&lt;/ul&gt;" style="whiteSpace=wrap;html=1;rounded=0;shadow=1;labelBackgroundColor=none;strokeWidth=1;fontFamily=Verdana;fontSize=8;align=center;" parent="1" vertex="1">
          <mxGeometry x="620" y="1120" width="120" height="80" as="geometry" />
        </mxCell>
        <mxCell id="46SvIgkUG7cXRvw6_ES7-16" style="edgeStyle=orthogonalEdgeStyle;rounded=0;orthogonalLoop=1;jettySize=auto;html=1;entryX=0;entryY=0.5;entryDx=0;entryDy=0;" parent="1" source="46SvIgkUG7cXRvw6_ES7-14" target="mbuuGPA5xwLoq5NB57OV-142" edge="1">
          <mxGeometry relative="1" as="geometry">
            <Array as="points">
              <mxPoint x="820" y="1100" />
            </Array>
          </mxGeometry>
        </mxCell>
        <mxCell id="46SvIgkUG7cXRvw6_ES7-17" value="Ja" style="edgeLabel;html=1;align=center;verticalAlign=middle;resizable=0;points=[];fontFamily=Verdana;fontSize=8;fontColor=default;labelBackgroundColor=none;fillColor=none;gradientColor=none;" parent="46SvIgkUG7cXRvw6_ES7-16" vertex="1" connectable="0">
          <mxGeometry x="0.046" y="2" relative="1" as="geometry">
            <mxPoint x="-20" y="22" as="offset" />
          </mxGeometry>
        </mxCell>
        <mxCell id="46SvIgkUG7cXRvw6_ES7-18" value="Nein" style="edgeStyle=orthogonalEdgeStyle;rounded=0;orthogonalLoop=1;jettySize=auto;html=1;entryX=0;entryY=0.5;entryDx=0;entryDy=0;fontFamily=Verdana;fontSize=8;fontColor=default;labelBackgroundColor=none;resizable=0;" parent="1" source="46SvIgkUG7cXRvw6_ES7-14" target="mbuuGPA5xwLoq5NB57OV-161" edge="1">
          <mxGeometry x="0.2" y="-10" relative="1" as="geometry">
            <mxPoint as="offset" />
          </mxGeometry>
        </mxCell>
        <mxCell id="46SvIgkUG7cXRvw6_ES7-14" value="Änderung&lt;br&gt;speichern?" style="rhombus;whiteSpace=wrap;html=1;rounded=0;shadow=1;labelBackgroundColor=none;strokeWidth=1;fontFamily=Verdana;fontSize=8;align=center;" parent="1" vertex="1">
          <mxGeometry x="770" y="1130" width="100" height="60" as="geometry" />
        </mxCell>
        <mxCell id="Pk-tPmqMgojB2sV6dSQ5-1" value="Klick [Löschen bestätigen]" style="whiteSpace=wrap;html=1;rounded=0;shadow=1;labelBackgroundColor=none;strokeWidth=1;fontFamily=Verdana;fontSize=8;align=center;direction=west;" parent="1" vertex="1">
          <mxGeometry x="650" y="1290" width="120" height="40" as="geometry" />
        </mxCell>
        <mxCell id="Pk-tPmqMgojB2sV6dSQ5-2" value="Ja" style="edgeStyle=orthogonalEdgeStyle;rounded=0;orthogonalLoop=1;jettySize=auto;html=1;entryX=1;entryY=0.5;entryDx=0;entryDy=0;strokeColor=default;strokeWidth=1;align=center;verticalAlign=middle;fontFamily=Verdana;fontSize=8;fontColor=default;labelBackgroundColor=none;resizable=0;endArrow=classic;fillColor=none;gradientColor=none;" parent="1" source="Pk-tPmqMgojB2sV6dSQ5-3" target="Pk-tPmqMgojB2sV6dSQ5-4" edge="1">
          <mxGeometry x="0.3044" y="10" relative="1" as="geometry">
            <mxPoint as="offset" />
          </mxGeometry>
        </mxCell>
        <mxCell id="Pk-tPmqMgojB2sV6dSQ5-14" value="Nein" style="edgeStyle=orthogonalEdgeStyle;rounded=0;orthogonalLoop=1;jettySize=auto;html=1;fontFamily=Verdana;fontSize=8;fontColor=default;labelBackgroundColor=none;resizable=0;" parent="1" source="Pk-tPmqMgojB2sV6dSQ5-3" edge="1">
          <mxGeometry x="-0.972" y="-16" relative="1" as="geometry">
            <mxPoint x="1040" y="1030" as="targetPoint" />
            <Array as="points">
              <mxPoint x="834" y="1250" />
              <mxPoint x="1041" y="1250" />
              <mxPoint x="1041" y="1030" />
            </Array>
            <mxPoint as="offset" />
          </mxGeometry>
        </mxCell>
        <mxCell id="Pk-tPmqMgojB2sV6dSQ5-3" value="bestätigt?" style="strokeWidth=1;html=1;shape=mxgraph.flowchart.decision;whiteSpace=wrap;rounded=0;shadow=1;strokeColor=default;align=center;verticalAlign=middle;fontFamily=Verdana;fontSize=8;fontColor=default;labelBackgroundColor=none;fillColor=default;" parent="1" vertex="1">
          <mxGeometry x="800.02" y="1286.5" width="67.51" height="47" as="geometry" />
        </mxCell>
        <mxCell id="Pk-tPmqMgojB2sV6dSQ5-4" value="Profil löschen&lt;span style=&quot;color: rgba(0, 0, 0, 0); font-family: monospace; font-size: 0px; text-align: start; text-wrap: nowrap;&quot;&gt;%3CmxGraphModel%3E%3Croot%3E%3CmxCell%20id%3D%220%22%2F%3E%3CmxCell%20id%3D%221%22%20parent%3D%220%22%2F%3E%3CmxCell%20id%3D%222%22%20value%3D%22L%C3%B6schen%20best%C3%A4tigen%22%20style%3D%22whiteSpace%3Dwrap%3Bhtml%3D1%3Brounded%3D0%3Bshadow%3D1%3BlabelBackgroundColor%3Dnone%3BstrokeWidth%3D1%3BfontFamily%3DVerdana%3BfontSize%3D8%3Balign%3Dcenter%3Bdirection%3Dwest%3B%22%20vertex%3D%221%22%20parent%3D%221%22%3E%3CmxGeometry%20x%3D%22890%22%20y%3D%222180%22%20width%3D%22120%22%20height%3D%2240%22%20as%3D%22geometry%22%2F%3E%3C%2FmxCell%3E%3C%2Froot%3E%3C%2FmxGraphModel%3E&lt;/span&gt;" style="whiteSpace=wrap;html=1;rounded=0;shadow=1;labelBackgroundColor=none;strokeWidth=1;fontFamily=Verdana;fontSize=8;align=center;direction=west;" parent="1" vertex="1">
          <mxGeometry x="900" y="1290" width="120" height="40" as="geometry" />
        </mxCell>
        <mxCell id="Pk-tPmqMgojB2sV6dSQ5-5" style="edgeStyle=orthogonalEdgeStyle;rounded=0;orthogonalLoop=1;jettySize=auto;html=1;entryX=1;entryY=0.5;entryDx=0;entryDy=0;strokeColor=default;strokeWidth=1;align=center;verticalAlign=middle;fontFamily=Verdana;fontSize=8;fontColor=default;labelBackgroundColor=none;resizable=0;endArrow=classic;fillColor=none;gradientColor=none;" parent="1" source="Pk-tPmqMgojB2sV6dSQ5-6" target="Pk-tPmqMgojB2sV6dSQ5-1" edge="1">
          <mxGeometry relative="1" as="geometry" />
        </mxCell>
        <mxCell id="Pk-tPmqMgojB2sV6dSQ5-6" value="Anzeige Löschhinweis" style="whiteSpace=wrap;html=1;rounded=0;shadow=1;labelBackgroundColor=none;strokeWidth=1;fontFamily=Verdana;fontSize=8;align=center;direction=west;" parent="1" vertex="1">
          <mxGeometry x="500" y="1290" width="120" height="40" as="geometry" />
        </mxCell>
        <mxCell id="Pk-tPmqMgojB2sV6dSQ5-7" style="edgeStyle=orthogonalEdgeStyle;rounded=0;orthogonalLoop=1;jettySize=auto;html=1;entryX=0;entryY=0.5;entryDx=0;entryDy=0;entryPerimeter=0;strokeColor=default;strokeWidth=1;align=center;verticalAlign=middle;fontFamily=Verdana;fontSize=8;fontColor=default;labelBackgroundColor=none;resizable=0;endArrow=classic;fillColor=none;gradientColor=none;" parent="1" source="Pk-tPmqMgojB2sV6dSQ5-1" target="Pk-tPmqMgojB2sV6dSQ5-3" edge="1">
          <mxGeometry relative="1" as="geometry" />
        </mxCell>
        <mxCell id="Pk-tPmqMgojB2sV6dSQ5-10" value="View: Profil - Profildaten" style="strokeWidth=1;html=1;shape=mxgraph.flowchart.terminator;whiteSpace=wrap;fontFamily=Verdana;fontSize=8;fontColor=default;labelBackgroundColor=none;resizable=0;rounded=0;shadow=1;strokeColor=default;align=center;verticalAlign=middle;fillColor=default;" parent="1" vertex="1">
          <mxGeometry x="990" y="970" width="100" height="60" as="geometry" />
        </mxCell>
        <mxCell id="Pk-tPmqMgojB2sV6dSQ5-11" style="edgeStyle=orthogonalEdgeStyle;rounded=0;orthogonalLoop=1;jettySize=auto;html=1;entryX=0;entryY=0.5;entryDx=0;entryDy=0;entryPerimeter=0;fontFamily=Verdana;fontSize=8;fontColor=default;labelBackgroundColor=none;resizable=0;" parent="1" source="mbuuGPA5xwLoq5NB57OV-174" target="Pk-tPmqMgojB2sV6dSQ5-10" edge="1">
          <mxGeometry relative="1" as="geometry" />
        </mxCell>
        <mxCell id="Pk-tPmqMgojB2sV6dSQ5-12" style="edgeStyle=orthogonalEdgeStyle;rounded=0;orthogonalLoop=1;jettySize=auto;html=1;entryX=0.5;entryY=1;entryDx=0;entryDy=0;entryPerimeter=0;fontFamily=Verdana;fontSize=8;fontColor=default;labelBackgroundColor=none;resizable=0;" parent="1" source="mbuuGPA5xwLoq5NB57OV-142" target="Pk-tPmqMgojB2sV6dSQ5-10" edge="1">
          <mxGeometry relative="1" as="geometry">
            <Array as="points">
              <mxPoint x="1040" y="1100" />
            </Array>
          </mxGeometry>
        </mxCell>
        <mxCell id="Pk-tPmqMgojB2sV6dSQ5-13" style="edgeStyle=orthogonalEdgeStyle;rounded=0;orthogonalLoop=1;jettySize=auto;html=1;entryX=0.5;entryY=1;entryDx=0;entryDy=0;entryPerimeter=0;fontFamily=Verdana;fontSize=8;fontColor=default;labelBackgroundColor=none;resizable=0;" parent="1" source="mbuuGPA5xwLoq5NB57OV-161" target="Pk-tPmqMgojB2sV6dSQ5-10" edge="1">
          <mxGeometry relative="1" as="geometry">
            <Array as="points">
              <mxPoint x="1040" y="1160" />
            </Array>
          </mxGeometry>
        </mxCell>
        <mxCell id="Pk-tPmqMgojB2sV6dSQ5-15" style="edgeStyle=orthogonalEdgeStyle;rounded=0;orthogonalLoop=1;jettySize=auto;html=1;entryX=0.5;entryY=0;entryDx=0;entryDy=0;entryPerimeter=0;fontFamily=Verdana;fontSize=8;fontColor=default;labelBackgroundColor=none;resizable=0;" parent="1" source="Pk-tPmqMgojB2sV6dSQ5-4" target="mbuuGPA5xwLoq5NB57OV-170" edge="1">
          <mxGeometry relative="1" as="geometry">
            <Array as="points">
              <mxPoint x="1040" y="1310" />
            </Array>
          </mxGeometry>
        </mxCell>
      </root>
    </mxGraphModel>
  </diagram>
  <diagram id="VEPMxQa9JXe1bwkRHsLW" name="Library">
    <mxGraphModel dx="2450" dy="1025" grid="1" gridSize="10" guides="1" tooltips="1" connect="1" arrows="1" fold="1" page="1" pageScale="1" pageWidth="1100" pageHeight="850" math="0" shadow="0">
      <root>
        <mxCell id="0" />
        <mxCell id="1" parent="0" />
        <mxCell id="8hQfOiwvWAjv1FpIQdZN-63" value="Standardnavigation - Gilt für jede View im eingelogten Zustand und wird hier nur einmalig dargestellt" style="whiteSpace=wrap;html=1;rounded=0;shadow=1;labelBackgroundColor=none;strokeWidth=1;fontFamily=Verdana;fontSize=8;align=left;fillColor=none;verticalAlign=top;dashed=1;" parent="1" vertex="1">
          <mxGeometry x="220" y="1360" width="430" height="180" as="geometry" />
        </mxCell>
        <mxCell id="8hQfOiwvWAjv1FpIQdZN-1" value="&lt;pre&gt;&lt;span style=&quot;font-family: Helvetica; white-space: normal;&quot;&gt;&lt;font style=&quot;font-size: 15px;&quot;&gt;UF2 - Bibliothek (loged out)&lt;/font&gt;&lt;/span&gt;&lt;/pre&gt;" style="text;whiteSpace=wrap;html=1;strokeColor=default;verticalAlign=top;" parent="1" vertex="1">
          <mxGeometry x="10" y="10" width="210" height="40" as="geometry" />
        </mxCell>
        <mxCell id="8hQfOiwvWAjv1FpIQdZN-2" value="Die Landing Page ist die Bibliothek&amp;nbsp;" style="text;html=1;align=center;verticalAlign=middle;whiteSpace=wrap;rounded=0;strokeColor=default;fontSize=9;" parent="1" vertex="1">
          <mxGeometry x="230" y="10" width="420" height="60" as="geometry" />
        </mxCell>
        <mxCell id="8hQfOiwvWAjv1FpIQdZN-3" value="Views:&lt;div style=&quot;font-size: 8px;&quot;&gt;&lt;ul style=&quot;font-size: 8px;&quot;&gt;&lt;li style=&quot;font-size: 8px;&quot;&gt;Bibliothek&amp;nbsp; (loged out)&lt;/li&gt;&lt;/ul&gt;&lt;/div&gt;" style="text;html=1;align=left;verticalAlign=top;whiteSpace=wrap;rounded=0;textShadow=0;strokeColor=default;fontSize=8;" parent="1" vertex="1">
          <mxGeometry x="670" y="10" width="420" height="60" as="geometry" />
        </mxCell>
        <mxCell id="8hQfOiwvWAjv1FpIQdZN-4" value="&lt;pre&gt;&lt;span style=&quot;font-family: Helvetica; white-space: normal;&quot;&gt;&lt;font style=&quot;font-size: 15px;&quot;&gt;UF3 - Bibliothek ansehen&lt;/font&gt;&lt;/span&gt;&lt;/pre&gt;" style="text;whiteSpace=wrap;html=1;strokeColor=default;verticalAlign=middle;labelPosition=center;verticalLabelPosition=middle;align=center;" parent="1" vertex="1">
          <mxGeometry x="10" y="860" width="210" height="60" as="geometry" />
        </mxCell>
        <mxCell id="8hQfOiwvWAjv1FpIQdZN-5" value="&lt;span style=&quot;font-size: 12px;&quot;&gt;Die Bibliothek ist zugleich die Landing Page. Uneingelogte User können Bibliotheksinhalte lesen.&amp;nbsp;&lt;/span&gt;" style="text;html=1;align=center;verticalAlign=middle;whiteSpace=wrap;rounded=0;strokeColor=default;fontSize=9;fontStyle=0" parent="1" vertex="1">
          <mxGeometry x="230" y="860" width="420" height="60" as="geometry" />
        </mxCell>
        <mxCell id="8hQfOiwvWAjv1FpIQdZN-6" value="Views:&lt;div style=&quot;font-size: 8px;&quot;&gt;&lt;ul style=&quot;font-size: 8px;&quot;&gt;&lt;li style=&quot;font-size: 8px;&quot;&gt;Bibliothek&lt;/li&gt;&lt;/ul&gt;&lt;/div&gt;" style="text;html=1;align=left;verticalAlign=top;whiteSpace=wrap;rounded=0;textShadow=0;strokeColor=default;fontSize=8;" parent="1" vertex="1">
          <mxGeometry x="670" y="860" width="420" height="60" as="geometry" />
        </mxCell>
        <mxCell id="8hQfOiwvWAjv1FpIQdZN-7" style="edgeStyle=orthogonalEdgeStyle;rounded=0;orthogonalLoop=1;jettySize=auto;html=1;entryX=0;entryY=0.5;entryDx=0;entryDy=0;strokeColor=default;strokeWidth=1;align=center;verticalAlign=middle;fontFamily=Verdana;fontSize=8;fontColor=default;labelBackgroundColor=none;resizable=0;endArrow=classic;fillColor=none;gradientColor=none;" parent="1" source="8hQfOiwvWAjv1FpIQdZN-10" target="8hQfOiwvWAjv1FpIQdZN-11" edge="1">
          <mxGeometry relative="1" as="geometry" />
        </mxCell>
        <mxCell id="8hQfOiwvWAjv1FpIQdZN-8" style="edgeStyle=orthogonalEdgeStyle;rounded=0;orthogonalLoop=1;jettySize=auto;html=1;entryX=0;entryY=0.5;entryDx=0;entryDy=0;strokeColor=default;strokeWidth=1;align=center;verticalAlign=middle;fontFamily=Verdana;fontSize=8;fontColor=default;labelBackgroundColor=none;resizable=0;endArrow=classic;fillColor=none;gradientColor=none;" parent="1" source="8hQfOiwvWAjv1FpIQdZN-10" target="8hQfOiwvWAjv1FpIQdZN-16" edge="1">
          <mxGeometry relative="1" as="geometry" />
        </mxCell>
        <mxCell id="8hQfOiwvWAjv1FpIQdZN-9" style="edgeStyle=orthogonalEdgeStyle;rounded=0;orthogonalLoop=1;jettySize=auto;html=1;entryX=0;entryY=0.5;entryDx=0;entryDy=0;strokeColor=default;strokeWidth=1;align=center;verticalAlign=middle;fontFamily=Verdana;fontSize=8;fontColor=default;labelBackgroundColor=none;resizable=0;endArrow=classic;fillColor=none;gradientColor=none;" parent="1" source="8hQfOiwvWAjv1FpIQdZN-10" target="8hQfOiwvWAjv1FpIQdZN-17" edge="1">
          <mxGeometry relative="1" as="geometry" />
        </mxCell>
        <mxCell id="8hQfOiwvWAjv1FpIQdZN-10" value="View: Bibliothek&lt;br&gt;(loged out)" style="strokeWidth=1;html=1;shape=mxgraph.flowchart.start_2;whiteSpace=wrap;rounded=0;shadow=1;strokeColor=default;align=center;verticalAlign=middle;fontFamily=Verdana;fontSize=8;fontColor=default;labelBackgroundColor=none;fillColor=default;" parent="1" vertex="1">
          <mxGeometry x="20" y="320" width="60" height="60" as="geometry" />
        </mxCell>
        <mxCell id="8hQfOiwvWAjv1FpIQdZN-11" value="Anzeige aller Fragenpools" style="whiteSpace=wrap;html=1;rounded=0;shadow=1;labelBackgroundColor=none;strokeWidth=1;fontFamily=Verdana;fontSize=8;align=center;" parent="1" vertex="1">
          <mxGeometry x="250" y="140" width="120" height="40" as="geometry" />
        </mxCell>
        <mxCell id="8hQfOiwvWAjv1FpIQdZN-12" value="Anzeige aller Fragen&amp;nbsp;des ausgewählten Pools" style="whiteSpace=wrap;html=1;rounded=0;shadow=1;labelBackgroundColor=none;strokeWidth=1;fontFamily=Verdana;fontSize=8;align=center;" parent="1" vertex="1">
          <mxGeometry x="460" y="330" width="120" height="40" as="geometry" />
        </mxCell>
        <mxCell id="8hQfOiwvWAjv1FpIQdZN-14" value="Anzeige aller Antwortoptionen einer ausgewählten Frage&amp;nbsp;" style="whiteSpace=wrap;html=1;rounded=0;shadow=1;labelBackgroundColor=none;strokeWidth=1;fontFamily=Verdana;fontSize=8;align=center;" parent="1" vertex="1">
          <mxGeometry x="808.12" y="1230" width="120" height="40" as="geometry" />
        </mxCell>
        <mxCell id="8hQfOiwvWAjv1FpIQdZN-15" style="edgeStyle=orthogonalEdgeStyle;rounded=0;orthogonalLoop=1;jettySize=auto;html=1;entryX=0;entryY=0.5;entryDx=0;entryDy=0;strokeColor=default;strokeWidth=1;align=center;verticalAlign=middle;fontFamily=Verdana;fontSize=8;fontColor=default;labelBackgroundColor=none;resizable=0;endArrow=classic;fillColor=none;gradientColor=none;" parent="1" source="8hQfOiwvWAjv1FpIQdZN-16" target="8hQfOiwvWAjv1FpIQdZN-12" edge="1">
          <mxGeometry relative="1" as="geometry" />
        </mxCell>
        <mxCell id="8hQfOiwvWAjv1FpIQdZN-16" value="Klick [Pool x]" style="whiteSpace=wrap;html=1;rounded=0;shadow=1;labelBackgroundColor=none;strokeWidth=1;fontFamily=Verdana;fontSize=8;align=center;" parent="1" vertex="1">
          <mxGeometry x="250" y="330" width="120" height="40" as="geometry" />
        </mxCell>
        <mxCell id="8hQfOiwvWAjv1FpIQdZN-17" value="Klick [Login]" style="whiteSpace=wrap;html=1;rounded=0;shadow=1;labelBackgroundColor=none;strokeWidth=1;fontFamily=Verdana;fontSize=8;align=center;" parent="1" vertex="1">
          <mxGeometry x="250" y="530" width="120" height="40" as="geometry" />
        </mxCell>
        <mxCell id="8hQfOiwvWAjv1FpIQdZN-18" value="View: Bibliothek&lt;div&gt;(loged in)&lt;/div&gt;" style="strokeWidth=1;html=1;shape=mxgraph.flowchart.terminator;whiteSpace=wrap;fontFamily=Verdana;fontSize=8;fontColor=default;labelBackgroundColor=none;resizable=0;rounded=0;shadow=1;strokeColor=default;align=center;verticalAlign=middle;fillColor=default;" parent="1" vertex="1">
          <mxGeometry x="470" y="520" width="100" height="60" as="geometry" />
        </mxCell>
        <mxCell id="8hQfOiwvWAjv1FpIQdZN-19" style="edgeStyle=orthogonalEdgeStyle;rounded=0;orthogonalLoop=1;jettySize=auto;html=1;entryX=0;entryY=0.5;entryDx=0;entryDy=0;entryPerimeter=0;strokeColor=default;strokeWidth=1;align=center;verticalAlign=middle;fontFamily=Verdana;fontSize=8;fontColor=default;labelBackgroundColor=none;resizable=0;endArrow=classic;fillColor=none;gradientColor=none;" parent="1" source="8hQfOiwvWAjv1FpIQdZN-17" target="8hQfOiwvWAjv1FpIQdZN-18" edge="1">
          <mxGeometry relative="1" as="geometry" />
        </mxCell>
        <mxCell id="8hQfOiwvWAjv1FpIQdZN-20" value="&lt;pre&gt;&lt;span style=&quot;font-family: Helvetica; white-space: normal;&quot;&gt;&lt;font style=&quot;font-size: 15px;&quot;&gt;UF4 - Quizpool erstellen / Name ändern / löschen&amp;nbsp;&lt;/font&gt;&lt;/span&gt;&lt;/pre&gt;" style="text;whiteSpace=wrap;html=1;strokeColor=default;verticalAlign=middle;labelPosition=center;verticalLabelPosition=middle;align=center;" parent="1" vertex="1">
          <mxGeometry x="10" y="1710" width="210" height="60" as="geometry" />
        </mxCell>
        <mxCell id="8hQfOiwvWAjv1FpIQdZN-21" value="Erstellen und Verwalten von Quizpools als Anwender (default-Gruppe)" style="text;html=1;align=center;verticalAlign=middle;whiteSpace=wrap;rounded=0;strokeColor=default;fontSize=9;" parent="1" vertex="1">
          <mxGeometry x="230" y="1710" width="420" height="60" as="geometry" />
        </mxCell>
        <mxCell id="8hQfOiwvWAjv1FpIQdZN-22" value="Views:&lt;div style=&quot;font-size: 8px;&quot;&gt;&lt;ul style=&quot;font-size: 8px;&quot;&gt;&lt;li style=&quot;font-size: 8px;&quot;&gt;Bibliothek&lt;/li&gt;&lt;/ul&gt;&lt;/div&gt;" style="text;html=1;align=left;verticalAlign=top;whiteSpace=wrap;rounded=0;textShadow=0;strokeColor=default;fontSize=8;" parent="1" vertex="1">
          <mxGeometry x="670" y="1710" width="420" height="60" as="geometry" />
        </mxCell>
        <mxCell id="8hQfOiwvWAjv1FpIQdZN-23" style="edgeStyle=orthogonalEdgeStyle;rounded=0;orthogonalLoop=1;jettySize=auto;html=1;entryX=0;entryY=0.5;entryDx=0;entryDy=0;strokeColor=default;strokeWidth=1;align=center;verticalAlign=middle;fontFamily=Verdana;fontSize=8;fontColor=default;labelBackgroundColor=none;resizable=0;endArrow=classic;fillColor=none;gradientColor=none;" parent="1" source="8hQfOiwvWAjv1FpIQdZN-24" target="8hQfOiwvWAjv1FpIQdZN-72" edge="1">
          <mxGeometry relative="1" as="geometry" />
        </mxCell>
        <mxCell id="8hQfOiwvWAjv1FpIQdZN-24" value="View: Bibliothek&lt;br&gt;(as default)" style="strokeWidth=1;html=1;shape=mxgraph.flowchart.start_2;whiteSpace=wrap;rounded=0;shadow=1;strokeColor=default;align=center;verticalAlign=middle;fontFamily=Verdana;fontSize=8;fontColor=default;labelBackgroundColor=none;fillColor=default;" parent="1" vertex="1">
          <mxGeometry x="10" y="2070" width="60" height="60" as="geometry" />
        </mxCell>
        <mxCell id="8hQfOiwvWAjv1FpIQdZN-25" value="" style="edgeStyle=orthogonalEdgeStyle;rounded=0;orthogonalLoop=1;jettySize=auto;html=1;entryX=0;entryY=0.5;entryDx=0;entryDy=0;entryPerimeter=0;" parent="1" source="8hQfOiwvWAjv1FpIQdZN-26" target="8hQfOiwvWAjv1FpIQdZN-31" edge="1">
          <mxGeometry relative="1" as="geometry" />
        </mxCell>
        <mxCell id="8hQfOiwvWAjv1FpIQdZN-26" value="Klick [Fragenpool hinzufügen]" style="whiteSpace=wrap;html=1;rounded=0;shadow=1;labelBackgroundColor=none;strokeWidth=1;fontFamily=Verdana;fontSize=8;align=center;" parent="1" vertex="1">
          <mxGeometry x="396.02" y="1910" width="120" height="40" as="geometry" />
        </mxCell>
        <mxCell id="8hQfOiwvWAjv1FpIQdZN-27" value="Eingabe &amp;lt;Name&amp;gt;" style="whiteSpace=wrap;html=1;rounded=0;shadow=1;labelBackgroundColor=none;strokeWidth=1;fontFamily=Verdana;fontSize=8;align=center;" parent="1" vertex="1">
          <mxGeometry x="225.99999999999997" y="1910" width="120" height="40" as="geometry" />
        </mxCell>
        <mxCell id="8hQfOiwvWAjv1FpIQdZN-28" style="edgeStyle=orthogonalEdgeStyle;rounded=0;orthogonalLoop=1;jettySize=auto;html=1;entryX=0;entryY=0.5;entryDx=0;entryDy=0;shadow=1;strokeColor=default;strokeWidth=1;align=center;verticalAlign=middle;fontFamily=Verdana;fontSize=8;fontColor=default;labelBackgroundColor=none;endArrow=classic;fillColor=default;exitX=1;exitY=0.5;exitDx=0;exitDy=0;exitPerimeter=0;" parent="1" source="8hQfOiwvWAjv1FpIQdZN-31" target="8hQfOiwvWAjv1FpIQdZN-34" edge="1">
          <mxGeometry relative="1" as="geometry">
            <mxPoint x="646" y="1930" as="sourcePoint" />
          </mxGeometry>
        </mxCell>
        <mxCell id="8hQfOiwvWAjv1FpIQdZN-29" value="Nein" style="edgeLabel;html=1;align=center;verticalAlign=middle;resizable=0;points=[];rounded=0;shadow=1;strokeColor=default;strokeWidth=1;fontFamily=Verdana;fontSize=8;fontColor=default;labelBackgroundColor=none;fillColor=default;" parent="8hQfOiwvWAjv1FpIQdZN-28" vertex="1" connectable="0">
          <mxGeometry x="-0.76" relative="1" as="geometry">
            <mxPoint x="4" y="-10" as="offset" />
          </mxGeometry>
        </mxCell>
        <mxCell id="8hQfOiwvWAjv1FpIQdZN-30" value="Ja" style="edgeStyle=orthogonalEdgeStyle;rounded=0;orthogonalLoop=1;jettySize=auto;html=1;entryX=0.5;entryY=1;entryDx=0;entryDy=0;strokeColor=default;strokeWidth=1;align=center;verticalAlign=middle;fontFamily=Verdana;fontSize=8;fontColor=default;labelBackgroundColor=none;resizable=0;endArrow=classic;fillColor=none;gradientColor=none;exitX=0.5;exitY=1;exitDx=0;exitDy=0;exitPerimeter=0;" parent="1" source="8hQfOiwvWAjv1FpIQdZN-31" target="8hQfOiwvWAjv1FpIQdZN-27" edge="1">
          <mxGeometry x="-0.9512" y="10" relative="1" as="geometry">
            <mxPoint x="606" y="1965" as="sourcePoint" />
            <Array as="points">
              <mxPoint x="606" y="1985" />
              <mxPoint x="286" y="1985" />
            </Array>
            <mxPoint as="offset" />
          </mxGeometry>
        </mxCell>
        <mxCell id="8hQfOiwvWAjv1FpIQdZN-31" value="Name vergeben?" style="strokeWidth=1;html=1;shape=mxgraph.flowchart.decision;whiteSpace=wrap;rounded=0;shadow=1;strokeColor=default;align=center;verticalAlign=middle;fontFamily=Verdana;fontSize=8;fontColor=default;labelBackgroundColor=none;fillColor=default;" parent="1" vertex="1">
          <mxGeometry x="566" y="1895" width="80" height="70" as="geometry" />
        </mxCell>
        <mxCell id="8hQfOiwvWAjv1FpIQdZN-32" style="edgeStyle=orthogonalEdgeStyle;rounded=0;orthogonalLoop=1;jettySize=auto;html=1;entryX=0;entryY=0.5;entryDx=0;entryDy=0;" parent="1" source="8hQfOiwvWAjv1FpIQdZN-27" target="8hQfOiwvWAjv1FpIQdZN-26" edge="1">
          <mxGeometry relative="1" as="geometry">
            <mxPoint x="566" y="1930" as="targetPoint" />
          </mxGeometry>
        </mxCell>
        <mxCell id="8hQfOiwvWAjv1FpIQdZN-33" style="edgeStyle=orthogonalEdgeStyle;rounded=0;orthogonalLoop=1;jettySize=auto;html=1;entryX=0;entryY=0.5;entryDx=0;entryDy=0;strokeColor=default;strokeWidth=1;align=center;verticalAlign=middle;fontFamily=Verdana;fontSize=8;fontColor=default;labelBackgroundColor=none;resizable=0;endArrow=classic;fillColor=none;gradientColor=none;" parent="1" source="8hQfOiwvWAjv1FpIQdZN-34" target="8hQfOiwvWAjv1FpIQdZN-65" edge="1">
          <mxGeometry relative="1" as="geometry" />
        </mxCell>
        <mxCell id="8hQfOiwvWAjv1FpIQdZN-34" value="Fragenpool anlegen" style="whiteSpace=wrap;html=1;rounded=0;shadow=1;labelBackgroundColor=none;strokeWidth=1;fontFamily=Verdana;fontSize=8;align=center;" parent="1" vertex="1">
          <mxGeometry x="696" y="1910" width="120" height="40" as="geometry" />
        </mxCell>
        <mxCell id="8hQfOiwvWAjv1FpIQdZN-35" value="Liste der Fragenpools aktualisieren" style="whiteSpace=wrap;html=1;rounded=0;shadow=1;labelBackgroundColor=none;strokeWidth=1;fontFamily=Verdana;fontSize=8;align=center;" parent="1" vertex="1">
          <mxGeometry x="916" y="2250" width="120" height="40" as="geometry" />
        </mxCell>
        <mxCell id="8hQfOiwvWAjv1FpIQdZN-36" value="View: Bibliothek" style="strokeWidth=1;html=1;shape=mxgraph.flowchart.terminator;whiteSpace=wrap;fontFamily=Verdana;fontSize=8;fontColor=default;labelBackgroundColor=none;resizable=0;rounded=0;shadow=1;strokeColor=default;align=center;verticalAlign=middle;fillColor=default;" parent="1" vertex="1">
          <mxGeometry x="990" y="2070" width="100" height="60" as="geometry" />
        </mxCell>
        <mxCell id="8hQfOiwvWAjv1FpIQdZN-37" style="edgeStyle=orthogonalEdgeStyle;rounded=0;orthogonalLoop=1;jettySize=auto;html=1;shadow=1;strokeColor=default;strokeWidth=1;align=center;verticalAlign=middle;fontFamily=Verdana;fontSize=8;fontColor=default;labelBackgroundColor=none;endArrow=classic;fillColor=default;exitX=0.5;exitY=1;exitDx=0;exitDy=0;entryX=0;entryY=0.5;entryDx=0;entryDy=0;" parent="1" source="8hQfOiwvWAjv1FpIQdZN-72" target="8hQfOiwvWAjv1FpIQdZN-43" edge="1">
          <mxGeometry relative="1" as="geometry" />
        </mxCell>
        <mxCell id="8hQfOiwvWAjv1FpIQdZN-38" value="&lt;span style=&quot;color: rgba(0, 0, 0, 0); font-family: monospace; font-size: 0px; text-align: start;&quot;&gt;%3CmxGraphModel%3E%3Croot%3E%3CmxCell%20id%3D%220%22%2F%3E%3CmxCell%20id%3D%221%22%20parent%3D%220%22%2F%3E%3CmxCell%20id%3D%222%22%20value%3D%22Fragenpool%20%26lt%3Bbr%26gt%3Bhinzuf%C3%BCgen%22%20style%3D%22edgeLabel%3Bhtml%3D1%3Balign%3Dcenter%3BverticalAlign%3Dmiddle%3Bresizable%3D0%3Bpoints%3D%5B%5D%3BfontFamily%3DVerdana%3BfontSize%3D8%3BfontColor%3Ddefault%3BlabelBackgroundColor%3Dnone%3B%22%20vertex%3D%221%22%20connectable%3D%220%22%20parent%3D%221%22%3E%3CmxGeometry%20x%3D%22140%22%20y%3D%222790%22%20as%3D%22geometry%22%2F%3E%3C%2FmxCell%3E%3C%2Froot%3E%3C%2FmxGraphModel%3EFra&lt;/span&gt;" style="edgeLabel;html=1;align=center;verticalAlign=middle;resizable=0;points=[];fontFamily=Verdana;fontSize=8;fontColor=default;labelBackgroundColor=none;" parent="8hQfOiwvWAjv1FpIQdZN-37" vertex="1" connectable="0">
          <mxGeometry x="-0.6293" y="-3" relative="1" as="geometry">
            <mxPoint as="offset" />
          </mxGeometry>
        </mxCell>
        <mxCell id="8hQfOiwvWAjv1FpIQdZN-39" value="Fragenpool &lt;br&gt;löschen" style="edgeLabel;html=1;align=center;verticalAlign=middle;resizable=0;points=[];fontFamily=Verdana;fontSize=8;fontColor=default;labelBackgroundColor=none;" parent="8hQfOiwvWAjv1FpIQdZN-37" vertex="1" connectable="0">
          <mxGeometry x="-0.3366" y="1" relative="1" as="geometry">
            <mxPoint x="-31" as="offset" />
          </mxGeometry>
        </mxCell>
        <mxCell id="8hQfOiwvWAjv1FpIQdZN-40" style="edgeStyle=orthogonalEdgeStyle;rounded=0;orthogonalLoop=1;jettySize=auto;html=1;entryX=0;entryY=0.5;entryDx=0;entryDy=0;strokeColor=default;strokeWidth=1;align=center;verticalAlign=middle;fontFamily=Verdana;fontSize=8;fontColor=default;labelBackgroundColor=none;resizable=0;endArrow=classic;fillColor=none;gradientColor=none;" parent="1" source="8hQfOiwvWAjv1FpIQdZN-41" target="8hQfOiwvWAjv1FpIQdZN-74" edge="1">
          <mxGeometry relative="1" as="geometry" />
        </mxCell>
        <mxCell id="8hQfOiwvWAjv1FpIQdZN-41" value="Klick [Pool X]" style="whiteSpace=wrap;html=1;rounded=0;shadow=1;labelBackgroundColor=none;strokeWidth=1;fontFamily=Verdana;fontSize=8;align=center;" parent="1" vertex="1">
          <mxGeometry x="226" y="2080" width="120" height="40" as="geometry" />
        </mxCell>
        <mxCell id="8hQfOiwvWAjv1FpIQdZN-42" style="edgeStyle=orthogonalEdgeStyle;rounded=0;orthogonalLoop=1;jettySize=auto;html=1;entryX=1;entryY=0.5;entryDx=0;entryDy=0;strokeColor=default;strokeWidth=1;align=center;verticalAlign=middle;fontFamily=Verdana;fontSize=8;fontColor=default;labelBackgroundColor=none;resizable=0;endArrow=classic;fillColor=none;gradientColor=none;" parent="1" source="8hQfOiwvWAjv1FpIQdZN-43" target="8hQfOiwvWAjv1FpIQdZN-83" edge="1">
          <mxGeometry relative="1" as="geometry" />
        </mxCell>
        <mxCell id="8hQfOiwvWAjv1FpIQdZN-43" value="Klick [Fragenpool löschen]" style="whiteSpace=wrap;html=1;rounded=0;shadow=1;labelBackgroundColor=none;strokeWidth=1;fontFamily=Verdana;fontSize=8;align=center;" parent="1" vertex="1">
          <mxGeometry x="226" y="2250" width="120" height="40" as="geometry" />
        </mxCell>
        <mxCell id="8hQfOiwvWAjv1FpIQdZN-44" value="Klick [Löschen bestätigen]" style="whiteSpace=wrap;html=1;rounded=0;shadow=1;labelBackgroundColor=none;strokeWidth=1;fontFamily=Verdana;fontSize=8;align=center;direction=west;" parent="1" vertex="1">
          <mxGeometry x="526" y="2250" width="120" height="40" as="geometry" />
        </mxCell>
        <mxCell id="8hQfOiwvWAjv1FpIQdZN-45" value="Ja" style="edgeStyle=orthogonalEdgeStyle;rounded=0;orthogonalLoop=1;jettySize=auto;html=1;entryX=1;entryY=0.5;entryDx=0;entryDy=0;strokeColor=default;strokeWidth=1;align=center;verticalAlign=middle;fontFamily=Verdana;fontSize=8;fontColor=default;labelBackgroundColor=none;resizable=0;endArrow=classic;fillColor=none;gradientColor=none;" parent="1" source="8hQfOiwvWAjv1FpIQdZN-46" target="8hQfOiwvWAjv1FpIQdZN-48" edge="1">
          <mxGeometry x="0.3044" y="10" relative="1" as="geometry">
            <mxPoint as="offset" />
          </mxGeometry>
        </mxCell>
        <mxCell id="8hQfOiwvWAjv1FpIQdZN-46" value="bestätigt?" style="strokeWidth=1;html=1;shape=mxgraph.flowchart.decision;whiteSpace=wrap;rounded=0;shadow=1;strokeColor=default;align=center;verticalAlign=middle;fontFamily=Verdana;fontSize=8;fontColor=default;labelBackgroundColor=none;fillColor=default;" parent="1" vertex="1">
          <mxGeometry x="676.02" y="2246.5" width="67.51" height="47" as="geometry" />
        </mxCell>
        <mxCell id="8hQfOiwvWAjv1FpIQdZN-47" style="edgeStyle=orthogonalEdgeStyle;rounded=0;orthogonalLoop=1;jettySize=auto;html=1;entryX=0;entryY=0.5;entryDx=0;entryDy=0;strokeColor=default;strokeWidth=1;align=center;verticalAlign=middle;fontFamily=Verdana;fontSize=8;fontColor=default;labelBackgroundColor=none;resizable=0;endArrow=classic;fillColor=none;gradientColor=none;" parent="1" source="8hQfOiwvWAjv1FpIQdZN-48" target="8hQfOiwvWAjv1FpIQdZN-35" edge="1">
          <mxGeometry relative="1" as="geometry" />
        </mxCell>
        <mxCell id="8hQfOiwvWAjv1FpIQdZN-48" value="Löschen des Fragenpools inkl. aller dazugehörigen Frage- und Antwortelemente&lt;span style=&quot;color: rgba(0, 0, 0, 0); font-family: monospace; font-size: 0px; text-align: start; text-wrap: nowrap;&quot;&gt;%3CmxGraphModel%3E%3Croot%3E%3CmxCell%20id%3D%220%22%2F%3E%3CmxCell%20id%3D%221%22%20parent%3D%220%22%2F%3E%3CmxCell%20id%3D%222%22%20value%3D%22L%C3%B6schen%20best%C3%A4tigen%22%20style%3D%22whiteSpace%3Dwrap%3Bhtml%3D1%3Brounded%3D0%3Bshadow%3D1%3BlabelBackgroundColor%3Dnone%3BstrokeWidth%3D1%3BfontFamily%3DVerdana%3BfontSize%3D8%3Balign%3Dcenter%3Bdirection%3Dwest%3B%22%20vertex%3D%221%22%20parent%3D%221%22%3E%3CmxGeometry%20x%3D%22890%22%20y%3D%222180%22%20width%3D%22120%22%20height%3D%2240%22%20as%3D%22geometry%22%2F%3E%3C%2FmxCell%3E%3C%2Froot%3E%3C%2FmxGraphModel%3E&lt;/span&gt;" style="whiteSpace=wrap;html=1;rounded=0;shadow=1;labelBackgroundColor=none;strokeWidth=1;fontFamily=Verdana;fontSize=8;align=center;direction=west;" parent="1" vertex="1">
          <mxGeometry x="766" y="2250" width="120" height="40" as="geometry" />
        </mxCell>
        <mxCell id="8hQfOiwvWAjv1FpIQdZN-49" value="Fragenpools &lt;br&gt;ansehen" style="edgeStyle=orthogonalEdgeStyle;rounded=0;orthogonalLoop=1;jettySize=auto;html=1;entryX=0;entryY=0.5;entryDx=0;entryDy=0;strokeColor=default;strokeWidth=1;align=center;verticalAlign=middle;fontFamily=Verdana;fontSize=8;fontColor=default;labelBackgroundColor=none;resizable=0;endArrow=classic;fillColor=none;gradientColor=none;exitX=0.5;exitY=0;exitDx=0;exitDy=0;" parent="1" source="2tlv2Q3TIu2Fah11hNiW-1" target="8hQfOiwvWAjv1FpIQdZN-53" edge="1">
          <mxGeometry x="-0.836" y="36" relative="1" as="geometry">
            <mxPoint as="offset" />
          </mxGeometry>
        </mxCell>
        <mxCell id="8hQfOiwvWAjv1FpIQdZN-50" style="edgeStyle=orthogonalEdgeStyle;rounded=0;orthogonalLoop=1;jettySize=auto;html=1;entryX=0;entryY=0.5;entryDx=0;entryDy=0;strokeColor=default;strokeWidth=1;align=center;verticalAlign=middle;fontFamily=Verdana;fontSize=8;fontColor=default;labelBackgroundColor=none;resizable=0;endArrow=classic;fillColor=none;gradientColor=none;exitX=1;exitY=0.5;exitDx=0;exitDy=0;" parent="1" source="2tlv2Q3TIu2Fah11hNiW-1" target="8hQfOiwvWAjv1FpIQdZN-57" edge="1">
          <mxGeometry relative="1" as="geometry" />
        </mxCell>
        <mxCell id="2tlv2Q3TIu2Fah11hNiW-3" value="Fragen &amp;amp; Antworten &lt;br&gt;ansehen" style="edgeLabel;html=1;align=center;verticalAlign=middle;resizable=0;points=[];rounded=0;strokeColor=default;strokeWidth=1;fontFamily=Verdana;fontSize=8;fontColor=default;labelBackgroundColor=none;fillColor=none;gradientColor=none;" parent="8hQfOiwvWAjv1FpIQdZN-50" vertex="1" connectable="0">
          <mxGeometry x="-0.1943" y="1" relative="1" as="geometry">
            <mxPoint y="-19" as="offset" />
          </mxGeometry>
        </mxCell>
        <mxCell id="8hQfOiwvWAjv1FpIQdZN-51" style="edgeStyle=orthogonalEdgeStyle;rounded=0;orthogonalLoop=1;jettySize=auto;html=1;entryX=0;entryY=0.5;entryDx=0;entryDy=0;strokeColor=default;strokeWidth=1;align=center;verticalAlign=middle;fontFamily=Verdana;fontSize=8;fontColor=default;labelBackgroundColor=none;resizable=0;endArrow=classic;fillColor=none;gradientColor=none;" parent="1" source="8hQfOiwvWAjv1FpIQdZN-52" target="2tlv2Q3TIu2Fah11hNiW-1" edge="1">
          <mxGeometry relative="1" as="geometry" />
        </mxCell>
        <mxCell id="8hQfOiwvWAjv1FpIQdZN-52" value="View: Bibliothek&lt;br&gt;(as default)" style="strokeWidth=1;html=1;shape=mxgraph.flowchart.start_2;whiteSpace=wrap;rounded=0;shadow=1;strokeColor=default;align=center;verticalAlign=middle;fontFamily=Verdana;fontSize=8;fontColor=default;labelBackgroundColor=none;fillColor=default;" parent="1" vertex="1">
          <mxGeometry x="30" y="1220" width="60" height="60" as="geometry" />
        </mxCell>
        <mxCell id="8hQfOiwvWAjv1FpIQdZN-53" value="Anzeige aller Fragenpools" style="whiteSpace=wrap;html=1;rounded=0;shadow=1;labelBackgroundColor=none;strokeWidth=1;fontFamily=Verdana;fontSize=8;align=center;" parent="1" vertex="1">
          <mxGeometry x="260" y="1040" width="120" height="40" as="geometry" />
        </mxCell>
        <mxCell id="8hQfOiwvWAjv1FpIQdZN-54" style="edgeStyle=orthogonalEdgeStyle;rounded=0;orthogonalLoop=1;jettySize=auto;html=1;entryX=0;entryY=0.5;entryDx=0;entryDy=0;strokeColor=default;strokeWidth=1;align=center;verticalAlign=middle;fontFamily=Verdana;fontSize=8;fontColor=default;labelBackgroundColor=none;resizable=0;endArrow=classic;fillColor=none;gradientColor=none;" parent="1" source="8hQfOiwvWAjv1FpIQdZN-55" target="8hQfOiwvWAjv1FpIQdZN-62" edge="1">
          <mxGeometry relative="1" as="geometry" />
        </mxCell>
        <mxCell id="8hQfOiwvWAjv1FpIQdZN-55" value="Anzeige aller Fragen&amp;nbsp;des ausgewählten Pools" style="whiteSpace=wrap;html=1;rounded=0;shadow=1;labelBackgroundColor=none;strokeWidth=1;fontFamily=Verdana;fontSize=8;align=center;" parent="1" vertex="1">
          <mxGeometry x="490" y="1230" width="120" height="40" as="geometry" />
        </mxCell>
        <mxCell id="8hQfOiwvWAjv1FpIQdZN-56" style="edgeStyle=orthogonalEdgeStyle;rounded=0;orthogonalLoop=1;jettySize=auto;html=1;strokeColor=default;strokeWidth=1;align=center;verticalAlign=middle;fontFamily=Verdana;fontSize=8;fontColor=default;labelBackgroundColor=none;resizable=0;endArrow=classic;fillColor=none;gradientColor=none;entryX=0;entryY=0.5;entryDx=0;entryDy=0;" parent="1" source="8hQfOiwvWAjv1FpIQdZN-57" target="8hQfOiwvWAjv1FpIQdZN-55" edge="1">
          <mxGeometry relative="1" as="geometry">
            <mxPoint x="540" y="1250" as="targetPoint" />
          </mxGeometry>
        </mxCell>
        <mxCell id="8hQfOiwvWAjv1FpIQdZN-57" value="Klick [Pool x]" style="whiteSpace=wrap;html=1;rounded=0;shadow=1;labelBackgroundColor=none;strokeWidth=1;fontFamily=Verdana;fontSize=8;align=center;" parent="1" vertex="1">
          <mxGeometry x="330" y="1230" width="120" height="40" as="geometry" />
        </mxCell>
        <mxCell id="8hQfOiwvWAjv1FpIQdZN-58" value="Klick [Logout]" style="whiteSpace=wrap;html=1;rounded=0;shadow=1;labelBackgroundColor=none;strokeWidth=1;fontFamily=Verdana;fontSize=8;align=center;" parent="1" vertex="1">
          <mxGeometry x="260" y="1430" width="120" height="40" as="geometry" />
        </mxCell>
        <mxCell id="8hQfOiwvWAjv1FpIQdZN-59" value="View: Login" style="strokeWidth=1;html=1;shape=mxgraph.flowchart.terminator;whiteSpace=wrap;fontFamily=Verdana;fontSize=8;fontColor=default;labelBackgroundColor=none;resizable=0;rounded=0;shadow=1;strokeColor=default;align=center;verticalAlign=middle;fillColor=default;" parent="1" vertex="1">
          <mxGeometry x="453.76" y="1420" width="100" height="60" as="geometry" />
        </mxCell>
        <mxCell id="8hQfOiwvWAjv1FpIQdZN-60" style="edgeStyle=orthogonalEdgeStyle;rounded=0;orthogonalLoop=1;jettySize=auto;html=1;entryX=0;entryY=0.5;entryDx=0;entryDy=0;entryPerimeter=0;strokeColor=default;strokeWidth=1;align=center;verticalAlign=middle;fontFamily=Verdana;fontSize=8;fontColor=default;labelBackgroundColor=none;resizable=0;endArrow=classic;fillColor=none;gradientColor=none;" parent="1" source="8hQfOiwvWAjv1FpIQdZN-58" target="8hQfOiwvWAjv1FpIQdZN-59" edge="1">
          <mxGeometry relative="1" as="geometry">
            <mxPoint x="480" y="1450" as="targetPoint" />
          </mxGeometry>
        </mxCell>
        <mxCell id="8hQfOiwvWAjv1FpIQdZN-61" style="edgeStyle=orthogonalEdgeStyle;rounded=0;orthogonalLoop=1;jettySize=auto;html=1;entryX=0;entryY=0.5;entryDx=0;entryDy=0;strokeColor=default;strokeWidth=1;align=center;verticalAlign=middle;fontFamily=Verdana;fontSize=8;fontColor=default;labelBackgroundColor=none;resizable=0;endArrow=classic;fillColor=none;gradientColor=none;" parent="1" source="8hQfOiwvWAjv1FpIQdZN-62" target="8hQfOiwvWAjv1FpIQdZN-14" edge="1">
          <mxGeometry relative="1" as="geometry" />
        </mxCell>
        <mxCell id="8hQfOiwvWAjv1FpIQdZN-62" value="Klick [Frage x]" style="whiteSpace=wrap;html=1;rounded=0;shadow=1;labelBackgroundColor=none;strokeWidth=1;fontFamily=Verdana;fontSize=8;align=center;" parent="1" vertex="1">
          <mxGeometry x="650" y="1230" width="120" height="40" as="geometry" />
        </mxCell>
        <mxCell id="8hQfOiwvWAjv1FpIQdZN-64" style="edgeStyle=orthogonalEdgeStyle;rounded=0;orthogonalLoop=1;jettySize=auto;html=1;strokeColor=default;strokeWidth=1;align=center;verticalAlign=middle;fontFamily=Verdana;fontSize=8;fontColor=default;labelBackgroundColor=none;resizable=0;endArrow=classic;fillColor=none;gradientColor=none;" parent="1" source="8hQfOiwvWAjv1FpIQdZN-65" target="8hQfOiwvWAjv1FpIQdZN-36" edge="1">
          <mxGeometry relative="1" as="geometry" />
        </mxCell>
        <mxCell id="8hQfOiwvWAjv1FpIQdZN-65" value="Liste der Fragenpools aktualisieren und den erstellten Fragenpool auswählen" style="whiteSpace=wrap;html=1;rounded=0;shadow=1;labelBackgroundColor=none;strokeWidth=1;fontFamily=Verdana;fontSize=8;align=center;" parent="1" vertex="1">
          <mxGeometry x="886" y="1910" width="120" height="40" as="geometry" />
        </mxCell>
        <mxCell id="8hQfOiwvWAjv1FpIQdZN-66" value="&lt;pre&gt;&lt;span style=&quot;font-family: Helvetica; white-space: normal;&quot;&gt;&lt;font style=&quot;font-size: 15px;&quot;&gt;UF6 - Antwortoptionen erstellen / ändern / löschen&amp;nbsp;&lt;/font&gt;&lt;/span&gt;&lt;/pre&gt;" style="text;whiteSpace=wrap;html=1;strokeColor=default;verticalAlign=middle;spacing=2;labelPosition=center;verticalLabelPosition=middle;align=center;" parent="1" vertex="1">
          <mxGeometry x="10" y="3410" width="210" height="60" as="geometry" />
        </mxCell>
        <mxCell id="8hQfOiwvWAjv1FpIQdZN-67" value="Erstellen und Verwalten von Antworten (Answers) als Anwender (default-Gruppe)" style="text;html=1;align=center;verticalAlign=middle;whiteSpace=wrap;rounded=0;strokeColor=default;fontSize=9;" parent="1" vertex="1">
          <mxGeometry x="230" y="3410" width="420" height="60" as="geometry" />
        </mxCell>
        <mxCell id="8hQfOiwvWAjv1FpIQdZN-68" value="Views:&lt;div style=&quot;font-size: 8px;&quot;&gt;&lt;ul style=&quot;font-size: 8px;&quot;&gt;&lt;li style=&quot;font-size: 8px;&quot;&gt;Bibliothek&lt;/li&gt;&lt;/ul&gt;&lt;/div&gt;" style="text;html=1;align=left;verticalAlign=top;whiteSpace=wrap;rounded=0;textShadow=0;strokeColor=default;fontSize=8;" parent="1" vertex="1">
          <mxGeometry x="670" y="3410" width="420" height="60" as="geometry" />
        </mxCell>
        <mxCell id="8hQfOiwvWAjv1FpIQdZN-69" style="edgeStyle=orthogonalEdgeStyle;rounded=0;orthogonalLoop=1;jettySize=auto;html=1;entryX=0;entryY=0.5;entryDx=0;entryDy=0;strokeColor=default;strokeWidth=1;align=center;verticalAlign=middle;fontFamily=Verdana;fontSize=8;fontColor=default;labelBackgroundColor=none;resizable=0;endArrow=classic;fillColor=none;gradientColor=none;exitX=0.5;exitY=0;exitDx=0;exitDy=0;" parent="1" source="8hQfOiwvWAjv1FpIQdZN-72" target="8hQfOiwvWAjv1FpIQdZN-27" edge="1">
          <mxGeometry relative="1" as="geometry" />
        </mxCell>
        <mxCell id="8hQfOiwvWAjv1FpIQdZN-70" value="Fragenpool &lt;br&gt;hinzufügen" style="edgeLabel;html=1;align=center;verticalAlign=middle;resizable=0;points=[];fontFamily=Verdana;fontSize=8;fontColor=default;labelBackgroundColor=none;" parent="8hQfOiwvWAjv1FpIQdZN-69" vertex="1" connectable="0">
          <mxGeometry x="-0.4368" y="1" relative="1" as="geometry">
            <mxPoint x="-29" y="25" as="offset" />
          </mxGeometry>
        </mxCell>
        <mxCell id="8hQfOiwvWAjv1FpIQdZN-71" value="Name des &lt;br&gt;Pools ändern" style="edgeStyle=orthogonalEdgeStyle;rounded=0;orthogonalLoop=1;jettySize=auto;html=1;entryX=0;entryY=0.5;entryDx=0;entryDy=0;strokeColor=default;strokeWidth=1;align=center;verticalAlign=middle;fontFamily=Verdana;fontSize=8;fontColor=default;labelBackgroundColor=none;resizable=0;endArrow=classic;fillColor=none;gradientColor=none;" parent="1" source="8hQfOiwvWAjv1FpIQdZN-72" target="8hQfOiwvWAjv1FpIQdZN-41" edge="1">
          <mxGeometry x="-0.5" y="30" relative="1" as="geometry">
            <mxPoint as="offset" />
          </mxGeometry>
        </mxCell>
        <mxCell id="8hQfOiwvWAjv1FpIQdZN-72" value="Absicht" style="rhombus;whiteSpace=wrap;html=1;rounded=0;shadow=1;labelBackgroundColor=none;strokeWidth=1;fontFamily=Verdana;fontSize=8;align=center;" parent="1" vertex="1">
          <mxGeometry x="86" y="2070" width="100" height="60" as="geometry" />
        </mxCell>
        <mxCell id="8hQfOiwvWAjv1FpIQdZN-73" style="edgeStyle=orthogonalEdgeStyle;rounded=0;orthogonalLoop=1;jettySize=auto;html=1;strokeColor=default;strokeWidth=1;align=center;verticalAlign=middle;fontFamily=Verdana;fontSize=8;fontColor=default;labelBackgroundColor=none;resizable=0;endArrow=classic;fillColor=none;gradientColor=none;" parent="1" source="8hQfOiwvWAjv1FpIQdZN-74" target="8hQfOiwvWAjv1FpIQdZN-75" edge="1">
          <mxGeometry relative="1" as="geometry" />
        </mxCell>
        <mxCell id="8hQfOiwvWAjv1FpIQdZN-74" value="Klick [Name ändern]" style="whiteSpace=wrap;html=1;rounded=0;shadow=1;labelBackgroundColor=none;strokeWidth=1;fontFamily=Verdana;fontSize=8;align=center;" parent="1" vertex="1">
          <mxGeometry x="376" y="2080" width="120" height="40" as="geometry" />
        </mxCell>
        <mxCell id="8hQfOiwvWAjv1FpIQdZN-75" value="Eingabe &amp;lt;Name&amp;gt;" style="whiteSpace=wrap;html=1;rounded=0;shadow=1;labelBackgroundColor=none;strokeWidth=1;fontFamily=Verdana;fontSize=8;align=center;" parent="1" vertex="1">
          <mxGeometry x="526" y="2080" width="120" height="40" as="geometry" />
        </mxCell>
        <mxCell id="8hQfOiwvWAjv1FpIQdZN-76" style="edgeStyle=orthogonalEdgeStyle;rounded=0;orthogonalLoop=1;jettySize=auto;html=1;entryX=0;entryY=0.5;entryDx=0;entryDy=0;shadow=1;strokeColor=default;strokeWidth=1;align=center;verticalAlign=middle;fontFamily=Verdana;fontSize=8;fontColor=default;labelBackgroundColor=none;endArrow=classic;fillColor=default;" parent="1" source="8hQfOiwvWAjv1FpIQdZN-79" target="8hQfOiwvWAjv1FpIQdZN-81" edge="1">
          <mxGeometry relative="1" as="geometry" />
        </mxCell>
        <mxCell id="8hQfOiwvWAjv1FpIQdZN-77" value="Nein" style="edgeLabel;html=1;align=center;verticalAlign=middle;resizable=0;points=[];rounded=0;shadow=1;strokeColor=default;strokeWidth=1;fontFamily=Verdana;fontSize=8;fontColor=default;labelBackgroundColor=none;fillColor=default;" parent="8hQfOiwvWAjv1FpIQdZN-76" vertex="1" connectable="0">
          <mxGeometry x="-0.76" relative="1" as="geometry">
            <mxPoint x="4" y="-10" as="offset" />
          </mxGeometry>
        </mxCell>
        <mxCell id="8hQfOiwvWAjv1FpIQdZN-78" value="Ja" style="edgeStyle=orthogonalEdgeStyle;rounded=0;orthogonalLoop=1;jettySize=auto;html=1;entryX=0.5;entryY=1;entryDx=0;entryDy=0;strokeColor=default;strokeWidth=1;align=center;verticalAlign=middle;fontFamily=Verdana;fontSize=8;fontColor=default;labelBackgroundColor=none;resizable=0;endArrow=classic;fillColor=none;gradientColor=none;" parent="1" source="8hQfOiwvWAjv1FpIQdZN-79" target="8hQfOiwvWAjv1FpIQdZN-75" edge="1">
          <mxGeometry x="-0.9512" y="10" relative="1" as="geometry">
            <Array as="points">
              <mxPoint x="716" y="2160" />
              <mxPoint x="586" y="2160" />
            </Array>
            <mxPoint as="offset" />
          </mxGeometry>
        </mxCell>
        <mxCell id="8hQfOiwvWAjv1FpIQdZN-79" value="Name vergeben?" style="strokeWidth=1;html=1;shape=mxgraph.flowchart.decision;whiteSpace=wrap;rounded=0;shadow=1;strokeColor=default;align=center;verticalAlign=middle;fontFamily=Verdana;fontSize=8;fontColor=default;labelBackgroundColor=none;fillColor=default;" parent="1" vertex="1">
          <mxGeometry x="676.02" y="2065" width="80" height="70" as="geometry" />
        </mxCell>
        <mxCell id="8hQfOiwvWAjv1FpIQdZN-80" style="edgeStyle=orthogonalEdgeStyle;rounded=0;orthogonalLoop=1;jettySize=auto;html=1;entryX=0;entryY=0.5;entryDx=0;entryDy=0;entryPerimeter=0;" parent="1" source="8hQfOiwvWAjv1FpIQdZN-75" target="8hQfOiwvWAjv1FpIQdZN-79" edge="1">
          <mxGeometry relative="1" as="geometry" />
        </mxCell>
        <mxCell id="8hQfOiwvWAjv1FpIQdZN-81" value="Name aktualisieren" style="whiteSpace=wrap;html=1;rounded=0;shadow=1;labelBackgroundColor=none;strokeWidth=1;fontFamily=Verdana;fontSize=8;align=center;" parent="1" vertex="1">
          <mxGeometry x="829.75" y="2080" width="120" height="40" as="geometry" />
        </mxCell>
        <mxCell id="8hQfOiwvWAjv1FpIQdZN-82" style="edgeStyle=orthogonalEdgeStyle;rounded=0;orthogonalLoop=1;jettySize=auto;html=1;entryX=1;entryY=0.5;entryDx=0;entryDy=0;strokeColor=default;strokeWidth=1;align=center;verticalAlign=middle;fontFamily=Verdana;fontSize=8;fontColor=default;labelBackgroundColor=none;resizable=0;endArrow=classic;fillColor=none;gradientColor=none;" parent="1" source="8hQfOiwvWAjv1FpIQdZN-83" target="8hQfOiwvWAjv1FpIQdZN-44" edge="1">
          <mxGeometry relative="1" as="geometry" />
        </mxCell>
        <mxCell id="8hQfOiwvWAjv1FpIQdZN-83" value="Anzeige Löschhinweis" style="whiteSpace=wrap;html=1;rounded=0;shadow=1;labelBackgroundColor=none;strokeWidth=1;fontFamily=Verdana;fontSize=8;align=center;direction=west;" parent="1" vertex="1">
          <mxGeometry x="376" y="2250" width="120" height="40" as="geometry" />
        </mxCell>
        <mxCell id="8hQfOiwvWAjv1FpIQdZN-84" style="edgeStyle=orthogonalEdgeStyle;rounded=0;orthogonalLoop=1;jettySize=auto;html=1;entryX=0;entryY=0.5;entryDx=0;entryDy=0;entryPerimeter=0;strokeColor=default;strokeWidth=1;align=center;verticalAlign=middle;fontFamily=Verdana;fontSize=8;fontColor=default;labelBackgroundColor=none;resizable=0;endArrow=classic;fillColor=none;gradientColor=none;" parent="1" source="8hQfOiwvWAjv1FpIQdZN-44" target="8hQfOiwvWAjv1FpIQdZN-46" edge="1">
          <mxGeometry relative="1" as="geometry" />
        </mxCell>
        <mxCell id="8hQfOiwvWAjv1FpIQdZN-85" style="edgeStyle=orthogonalEdgeStyle;rounded=0;orthogonalLoop=1;jettySize=auto;html=1;entryX=0.5;entryY=1;entryDx=0;entryDy=0;entryPerimeter=0;strokeColor=default;strokeWidth=1;align=center;verticalAlign=middle;fontFamily=Verdana;fontSize=8;fontColor=default;labelBackgroundColor=none;resizable=0;endArrow=classic;fillColor=none;gradientColor=none;" parent="1" source="8hQfOiwvWAjv1FpIQdZN-35" target="8hQfOiwvWAjv1FpIQdZN-36" edge="1">
          <mxGeometry relative="1" as="geometry" />
        </mxCell>
        <mxCell id="8hQfOiwvWAjv1FpIQdZN-86" style="edgeStyle=orthogonalEdgeStyle;rounded=0;orthogonalLoop=1;jettySize=auto;html=1;entryX=0;entryY=0.5;entryDx=0;entryDy=0;entryPerimeter=0;strokeColor=default;strokeWidth=1;align=center;verticalAlign=middle;fontFamily=Verdana;fontSize=8;fontColor=default;labelBackgroundColor=none;resizable=0;endArrow=classic;fillColor=none;gradientColor=none;" parent="1" source="8hQfOiwvWAjv1FpIQdZN-81" target="8hQfOiwvWAjv1FpIQdZN-36" edge="1">
          <mxGeometry relative="1" as="geometry" />
        </mxCell>
        <mxCell id="8hQfOiwvWAjv1FpIQdZN-87" style="edgeStyle=orthogonalEdgeStyle;rounded=0;orthogonalLoop=1;jettySize=auto;html=1;entryX=0.5;entryY=0;entryDx=0;entryDy=0;strokeColor=default;strokeWidth=1;align=center;verticalAlign=middle;fontFamily=Verdana;fontSize=8;fontColor=default;labelBackgroundColor=none;resizable=0;endArrow=classic;fillColor=none;gradientColor=none;exitX=0.5;exitY=1;exitDx=0;exitDy=0;exitPerimeter=0;" parent="1" source="8hQfOiwvWAjv1FpIQdZN-88" target="8hQfOiwvWAjv1FpIQdZN-107" edge="1">
          <mxGeometry relative="1" as="geometry" />
        </mxCell>
        <mxCell id="8hQfOiwvWAjv1FpIQdZN-88" value="View: Bibliothek&lt;br&gt;(as default)" style="strokeWidth=1;html=1;shape=mxgraph.flowchart.start_2;whiteSpace=wrap;rounded=0;shadow=1;strokeColor=default;align=center;verticalAlign=middle;fontFamily=Verdana;fontSize=8;fontColor=default;labelBackgroundColor=none;fillColor=default;" parent="1" vertex="1">
          <mxGeometry x="45" y="3620" width="60" height="60" as="geometry" />
        </mxCell>
        <mxCell id="40lozNCE-8FgBLbeo9Co-24" style="edgeStyle=orthogonalEdgeStyle;rounded=0;orthogonalLoop=1;jettySize=auto;html=1;entryX=0;entryY=0.5;entryDx=0;entryDy=0;" parent="1" source="8hQfOiwvWAjv1FpIQdZN-90" target="8hQfOiwvWAjv1FpIQdZN-93" edge="1">
          <mxGeometry relative="1" as="geometry">
            <mxPoint x="850" y="3590.0000000000005" as="targetPoint" />
          </mxGeometry>
        </mxCell>
        <mxCell id="8hQfOiwvWAjv1FpIQdZN-90" value="Ausfüllen &amp;lt;Antwortoption X&amp;gt;" style="whiteSpace=wrap;html=1;rounded=0;shadow=1;labelBackgroundColor=none;strokeWidth=1;fontFamily=Verdana;fontSize=8;align=center;" parent="1" vertex="1">
          <mxGeometry x="260" y="3560" width="120" height="40" as="geometry" />
        </mxCell>
        <mxCell id="8hQfOiwvWAjv1FpIQdZN-91" style="edgeStyle=orthogonalEdgeStyle;rounded=0;orthogonalLoop=1;jettySize=auto;html=1;entryX=0;entryY=0.5;entryDx=0;entryDy=0;strokeColor=default;strokeWidth=1;align=center;verticalAlign=middle;fontFamily=Verdana;fontSize=8;fontColor=default;labelBackgroundColor=none;resizable=0;endArrow=classic;fillColor=none;gradientColor=none;" parent="1" source="8hQfOiwvWAjv1FpIQdZN-92" target="8hQfOiwvWAjv1FpIQdZN-93" edge="1">
          <mxGeometry relative="1" as="geometry">
            <mxPoint x="570" y="3590" as="targetPoint" />
          </mxGeometry>
        </mxCell>
        <mxCell id="8hQfOiwvWAjv1FpIQdZN-92" value="Auswahl&amp;nbsp; [Richtig/Falsch]" style="whiteSpace=wrap;html=1;rounded=0;shadow=1;labelBackgroundColor=none;strokeWidth=1;fontFamily=Verdana;fontSize=8;align=center;" parent="1" vertex="1">
          <mxGeometry x="260" y="3680" width="120" height="40" as="geometry" />
        </mxCell>
        <mxCell id="8hQfOiwvWAjv1FpIQdZN-93" value="Klick [Änderung speichern]" style="whiteSpace=wrap;html=1;rounded=0;shadow=1;labelBackgroundColor=none;strokeWidth=1;fontFamily=Verdana;fontSize=8;align=center;" parent="1" vertex="1">
          <mxGeometry x="550" y="3620" width="120" height="40" as="geometry" />
        </mxCell>
        <mxCell id="8hQfOiwvWAjv1FpIQdZN-94" value="Liste der Antwortoptionen aktualisieren" style="whiteSpace=wrap;html=1;rounded=0;shadow=1;labelBackgroundColor=none;strokeWidth=1;fontFamily=Verdana;fontSize=8;align=center;" parent="1" vertex="1">
          <mxGeometry x="646" y="4020" width="120" height="40" as="geometry" />
        </mxCell>
        <mxCell id="8hQfOiwvWAjv1FpIQdZN-95" value="View: Bibliothek" style="strokeWidth=1;html=1;shape=mxgraph.flowchart.terminator;whiteSpace=wrap;fontFamily=Verdana;fontSize=8;fontColor=default;labelBackgroundColor=none;resizable=0;rounded=0;shadow=1;strokeColor=default;align=center;verticalAlign=middle;fillColor=default;" parent="1" vertex="1">
          <mxGeometry x="959.75" y="3795" width="100" height="60" as="geometry" />
        </mxCell>
        <mxCell id="8hQfOiwvWAjv1FpIQdZN-96" style="edgeStyle=orthogonalEdgeStyle;rounded=0;orthogonalLoop=1;jettySize=auto;html=1;shadow=1;strokeColor=default;strokeWidth=1;align=center;verticalAlign=middle;fontFamily=Verdana;fontSize=8;fontColor=default;labelBackgroundColor=none;endArrow=classic;fillColor=default;exitX=0.5;exitY=1;exitDx=0;exitDy=0;entryX=0;entryY=0.5;entryDx=0;entryDy=0;" parent="1" source="8hQfOiwvWAjv1FpIQdZN-104" target="8hQfOiwvWAjv1FpIQdZN-109" edge="1">
          <mxGeometry relative="1" as="geometry">
            <mxPoint x="330.02" y="3780.75" as="sourcePoint" />
          </mxGeometry>
        </mxCell>
        <mxCell id="8hQfOiwvWAjv1FpIQdZN-97" value="&lt;span style=&quot;color: rgba(0, 0, 0, 0); font-family: monospace; font-size: 0px; text-align: start;&quot;&gt;%3CmxGraphModel%3E%3Croot%3E%3CmxCell%20id%3D%220%22%2F%3E%3CmxCell%20id%3D%221%22%20parent%3D%220%22%2F%3E%3CmxCell%20id%3D%222%22%20value%3D%22Fragenpool%20%26lt%3Bbr%26gt%3Bhinzuf%C3%BCgen%22%20style%3D%22edgeLabel%3Bhtml%3D1%3Balign%3Dcenter%3BverticalAlign%3Dmiddle%3Bresizable%3D0%3Bpoints%3D%5B%5D%3BfontFamily%3DVerdana%3BfontSize%3D8%3BfontColor%3Ddefault%3BlabelBackgroundColor%3Dnone%3B%22%20vertex%3D%221%22%20connectable%3D%220%22%20parent%3D%221%22%3E%3CmxGeometry%20x%3D%22140%22%20y%3D%222790%22%20as%3D%22geometry%22%2F%3E%3C%2FmxCell%3E%3C%2Froot%3E%3C%2FmxGraphModel%3EFra&lt;/span&gt;" style="edgeLabel;html=1;align=center;verticalAlign=middle;resizable=0;points=[];fontFamily=Verdana;fontSize=8;fontColor=default;labelBackgroundColor=none;" parent="8hQfOiwvWAjv1FpIQdZN-96" vertex="1" connectable="0">
          <mxGeometry x="-0.6293" y="-3" relative="1" as="geometry">
            <mxPoint as="offset" />
          </mxGeometry>
        </mxCell>
        <mxCell id="8hQfOiwvWAjv1FpIQdZN-98" value="&lt;br&gt;&lt;span style=&quot;color: rgb(240, 240, 240); font-family: Verdana; font-size: 8px; font-style: normal; font-variant-ligatures: normal; font-variant-caps: normal; font-weight: 400; letter-spacing: normal; orphans: 2; text-align: center; text-indent: 0px; text-transform: none; widows: 2; word-spacing: 0px; -webkit-text-stroke-width: 0px; white-space: nowrap; background-color: rgb(27, 29, 30); text-decoration-thickness: initial; text-decoration-style: initial; text-decoration-color: initial; display: inline !important; float: none;&quot;&gt;Antwortoptionen &lt;br&gt;löschen&lt;/span&gt;&lt;div&gt;&lt;br/&gt;&lt;/div&gt;" style="edgeLabel;html=1;align=center;verticalAlign=middle;resizable=0;points=[];fontFamily=Verdana;fontSize=8;fontColor=default;labelBackgroundColor=none;" parent="8hQfOiwvWAjv1FpIQdZN-96" vertex="1" connectable="0">
          <mxGeometry x="-0.3366" y="1" relative="1" as="geometry">
            <mxPoint x="-41" as="offset" />
          </mxGeometry>
        </mxCell>
        <mxCell id="8hQfOiwvWAjv1FpIQdZN-99" style="edgeStyle=orthogonalEdgeStyle;rounded=0;orthogonalLoop=1;jettySize=auto;html=1;entryX=0;entryY=0.5;entryDx=0;entryDy=0;strokeColor=default;strokeWidth=1;align=center;verticalAlign=middle;fontFamily=Verdana;fontSize=8;fontColor=default;labelBackgroundColor=none;resizable=0;endArrow=classic;fillColor=none;gradientColor=none;" parent="1" source="8hQfOiwvWAjv1FpIQdZN-100" target="8hQfOiwvWAjv1FpIQdZN-94" edge="1">
          <mxGeometry relative="1" as="geometry" />
        </mxCell>
        <mxCell id="8hQfOiwvWAjv1FpIQdZN-100" value="Antwortoption löschen" style="whiteSpace=wrap;html=1;rounded=0;shadow=1;labelBackgroundColor=none;strokeWidth=1;fontFamily=Verdana;fontSize=8;align=center;direction=west;" parent="1" vertex="1">
          <mxGeometry x="433.76" y="4020" width="120" height="40" as="geometry" />
        </mxCell>
        <mxCell id="8hQfOiwvWAjv1FpIQdZN-101" style="edgeStyle=orthogonalEdgeStyle;rounded=0;orthogonalLoop=1;jettySize=auto;html=1;strokeColor=default;strokeWidth=1;align=center;verticalAlign=middle;fontFamily=Verdana;fontSize=8;fontColor=default;labelBackgroundColor=none;resizable=0;endArrow=classic;fillColor=none;gradientColor=none;exitX=1;exitY=0.5;exitDx=0;exitDy=0;entryX=0;entryY=0.5;entryDx=0;entryDy=0;" parent="1" source="8hQfOiwvWAjv1FpIQdZN-93" target="40lozNCE-8FgBLbeo9Co-25" edge="1">
          <mxGeometry relative="1" as="geometry">
            <mxPoint x="976.0344827586209" y="3610" as="sourcePoint" />
            <mxPoint x="1009.75" y="3700" as="targetPoint" />
          </mxGeometry>
        </mxCell>
        <mxCell id="8hQfOiwvWAjv1FpIQdZN-102" style="edgeStyle=orthogonalEdgeStyle;rounded=0;orthogonalLoop=1;jettySize=auto;html=1;entryX=0;entryY=0.5;entryDx=0;entryDy=0;strokeColor=default;strokeWidth=1;align=center;verticalAlign=middle;fontFamily=Verdana;fontSize=8;fontColor=default;labelBackgroundColor=none;resizable=0;endArrow=classic;fillColor=none;gradientColor=none;exitX=0.5;exitY=0;exitDx=0;exitDy=0;" parent="1" source="8hQfOiwvWAjv1FpIQdZN-104" target="8hQfOiwvWAjv1FpIQdZN-90" edge="1">
          <mxGeometry relative="1" as="geometry">
            <mxPoint x="330.02" y="3720.75" as="sourcePoint" />
          </mxGeometry>
        </mxCell>
        <mxCell id="8hQfOiwvWAjv1FpIQdZN-103" value="Antwortoptionen&lt;br&gt;ändern" style="edgeLabel;html=1;align=center;verticalAlign=middle;resizable=0;points=[];fontFamily=Verdana;fontSize=8;fontColor=default;labelBackgroundColor=none;" parent="8hQfOiwvWAjv1FpIQdZN-102" vertex="1" connectable="0">
          <mxGeometry x="-0.4368" y="1" relative="1" as="geometry">
            <mxPoint x="-35" y="37" as="offset" />
          </mxGeometry>
        </mxCell>
        <mxCell id="40lozNCE-8FgBLbeo9Co-6" value="Antwortoption &lt;br&gt;hinzufüren" style="edgeStyle=orthogonalEdgeStyle;rounded=0;orthogonalLoop=1;jettySize=auto;html=1;entryX=0;entryY=0.5;entryDx=0;entryDy=0;align=center;verticalAlign=middle;fontFamily=Verdana;fontSize=8;fontColor=default;labelBackgroundColor=none;resizable=0;fillColor=none;gradientColor=none;" parent="1" source="8hQfOiwvWAjv1FpIQdZN-104" target="40lozNCE-8FgBLbeo9Co-16" edge="1">
          <mxGeometry y="20" relative="1" as="geometry">
            <mxPoint as="offset" />
          </mxGeometry>
        </mxCell>
        <mxCell id="8hQfOiwvWAjv1FpIQdZN-104" value="Absicht" style="rhombus;whiteSpace=wrap;html=1;rounded=0;shadow=1;labelBackgroundColor=none;strokeWidth=1;fontFamily=Verdana;fontSize=8;align=center;" parent="1" vertex="1">
          <mxGeometry x="160" y="3830" width="100" height="60" as="geometry" />
        </mxCell>
        <mxCell id="8hQfOiwvWAjv1FpIQdZN-105" style="edgeStyle=orthogonalEdgeStyle;rounded=0;orthogonalLoop=1;jettySize=auto;html=1;entryX=0.5;entryY=1;entryDx=0;entryDy=0;entryPerimeter=0;strokeColor=default;strokeWidth=1;align=center;verticalAlign=middle;fontFamily=Verdana;fontSize=8;fontColor=default;labelBackgroundColor=none;resizable=0;endArrow=classic;fillColor=none;gradientColor=none;" parent="1" source="8hQfOiwvWAjv1FpIQdZN-94" target="8hQfOiwvWAjv1FpIQdZN-95" edge="1">
          <mxGeometry relative="1" as="geometry" />
        </mxCell>
        <mxCell id="8hQfOiwvWAjv1FpIQdZN-106" style="edgeStyle=orthogonalEdgeStyle;rounded=0;orthogonalLoop=1;jettySize=auto;html=1;entryX=0.5;entryY=0;entryDx=0;entryDy=0;strokeColor=default;strokeWidth=1;align=center;verticalAlign=middle;fontFamily=Verdana;fontSize=8;fontColor=default;labelBackgroundColor=none;resizable=0;endArrow=classic;fillColor=none;gradientColor=none;" parent="1" source="8hQfOiwvWAjv1FpIQdZN-107" target="8hQfOiwvWAjv1FpIQdZN-154" edge="1">
          <mxGeometry relative="1" as="geometry" />
        </mxCell>
        <mxCell id="8hQfOiwvWAjv1FpIQdZN-107" value="Klick [Pool X]" style="whiteSpace=wrap;html=1;rounded=0;shadow=1;labelBackgroundColor=none;strokeWidth=1;fontFamily=Verdana;fontSize=8;align=center;" parent="1" vertex="1">
          <mxGeometry x="15" y="3745.75" width="120" height="40" as="geometry" />
        </mxCell>
        <mxCell id="8hQfOiwvWAjv1FpIQdZN-108" style="edgeStyle=orthogonalEdgeStyle;rounded=0;orthogonalLoop=1;jettySize=auto;html=1;entryX=1;entryY=0.5;entryDx=0;entryDy=0;strokeColor=default;strokeWidth=1;align=center;verticalAlign=middle;fontFamily=Verdana;fontSize=8;fontColor=default;labelBackgroundColor=none;resizable=0;endArrow=classic;fillColor=none;gradientColor=none;" parent="1" source="8hQfOiwvWAjv1FpIQdZN-109" target="8hQfOiwvWAjv1FpIQdZN-100" edge="1">
          <mxGeometry relative="1" as="geometry">
            <mxPoint x="392.24" y="3920.75" as="targetPoint" />
          </mxGeometry>
        </mxCell>
        <mxCell id="8hQfOiwvWAjv1FpIQdZN-109" value="Klick [Antwort löschen]&amp;nbsp;&lt;br&gt;(im Feld der entsprechenden Antwort)" style="whiteSpace=wrap;html=1;rounded=0;shadow=1;labelBackgroundColor=none;strokeWidth=1;fontFamily=Verdana;fontSize=8;align=center;" parent="1" vertex="1">
          <mxGeometry x="240" y="4020" width="120" height="40" as="geometry" />
        </mxCell>
        <mxCell id="8hQfOiwvWAjv1FpIQdZN-110" value="&lt;pre&gt;&lt;span style=&quot;font-family: Helvetica; white-space: normal;&quot;&gt;&lt;font style=&quot;font-size: 15px;&quot;&gt;UF5 - Fragen erstellen / Namen ändern / löschen&amp;nbsp;&lt;/font&gt;&lt;/span&gt;&lt;/pre&gt;" style="text;whiteSpace=wrap;html=1;strokeColor=default;verticalAlign=middle;spacing=2;labelPosition=center;verticalLabelPosition=middle;align=center;" parent="1" vertex="1">
          <mxGeometry x="10" y="2560" width="210" height="60" as="geometry" />
        </mxCell>
        <mxCell id="8hQfOiwvWAjv1FpIQdZN-111" value="Erstellen und Verwalten von&amp;nbsp; Fragen (Quiztasks) als Anwender (default-Gruppe)" style="text;html=1;align=center;verticalAlign=middle;whiteSpace=wrap;rounded=0;strokeColor=default;fontSize=9;" parent="1" vertex="1">
          <mxGeometry x="230" y="2560" width="420" height="60" as="geometry" />
        </mxCell>
        <mxCell id="8hQfOiwvWAjv1FpIQdZN-112" value="Views:&lt;div style=&quot;font-size: 8px;&quot;&gt;&lt;ul style=&quot;font-size: 8px;&quot;&gt;&lt;li style=&quot;font-size: 8px;&quot;&gt;Bibliothek&lt;/li&gt;&lt;/ul&gt;&lt;/div&gt;" style="text;html=1;align=left;verticalAlign=top;whiteSpace=wrap;rounded=0;textShadow=0;strokeColor=default;fontSize=8;" parent="1" vertex="1">
          <mxGeometry x="670" y="2560" width="420" height="60" as="geometry" />
        </mxCell>
        <mxCell id="8hQfOiwvWAjv1FpIQdZN-113" style="edgeStyle=orthogonalEdgeStyle;rounded=0;orthogonalLoop=1;jettySize=auto;html=1;entryX=0.5;entryY=0;entryDx=0;entryDy=0;strokeColor=default;strokeWidth=1;align=center;verticalAlign=middle;fontFamily=Verdana;fontSize=8;fontColor=default;labelBackgroundColor=none;resizable=0;endArrow=classic;fillColor=none;gradientColor=none;exitX=0.5;exitY=1;exitDx=0;exitDy=0;exitPerimeter=0;" parent="1" source="8hQfOiwvWAjv1FpIQdZN-114" target="8hQfOiwvWAjv1FpIQdZN-148" edge="1">
          <mxGeometry relative="1" as="geometry" />
        </mxCell>
        <mxCell id="8hQfOiwvWAjv1FpIQdZN-114" value="View: Bibliothek&lt;br&gt;(as default)" style="strokeWidth=1;html=1;shape=mxgraph.flowchart.start_2;whiteSpace=wrap;rounded=0;shadow=1;strokeColor=default;align=center;verticalAlign=middle;fontFamily=Verdana;fontSize=8;fontColor=default;labelBackgroundColor=none;fillColor=default;" parent="1" vertex="1">
          <mxGeometry x="45" y="2750.75" width="60" height="60" as="geometry" />
        </mxCell>
        <mxCell id="8hQfOiwvWAjv1FpIQdZN-115" value="" style="edgeStyle=orthogonalEdgeStyle;rounded=0;orthogonalLoop=1;jettySize=auto;html=1;entryX=0;entryY=0.5;entryDx=0;entryDy=0;" parent="1" source="8hQfOiwvWAjv1FpIQdZN-116" target="8hQfOiwvWAjv1FpIQdZN-120" edge="1">
          <mxGeometry relative="1" as="geometry" />
        </mxCell>
        <mxCell id="8hQfOiwvWAjv1FpIQdZN-116" value="Klick [Frage hinzufügen]" style="whiteSpace=wrap;html=1;rounded=0;shadow=1;labelBackgroundColor=none;strokeWidth=1;fontFamily=Verdana;fontSize=8;align=center;" parent="1" vertex="1">
          <mxGeometry x="433.76" y="2720" width="120" height="40" as="geometry" />
        </mxCell>
        <mxCell id="8hQfOiwvWAjv1FpIQdZN-117" value="Eingabe &amp;lt;Frage&amp;gt;" style="whiteSpace=wrap;html=1;rounded=0;shadow=1;labelBackgroundColor=none;strokeWidth=1;fontFamily=Verdana;fontSize=8;align=center;" parent="1" vertex="1">
          <mxGeometry x="276.02" y="2720" width="120" height="40" as="geometry" />
        </mxCell>
        <mxCell id="8hQfOiwvWAjv1FpIQdZN-118" style="edgeStyle=orthogonalEdgeStyle;rounded=0;orthogonalLoop=1;jettySize=auto;html=1;entryX=0;entryY=0.5;entryDx=0;entryDy=0;shadow=1;strokeColor=default;strokeWidth=1;align=center;verticalAlign=middle;fontFamily=Verdana;fontSize=8;fontColor=default;labelBackgroundColor=none;endArrow=classic;fillColor=default;exitX=1;exitY=0.5;exitDx=0;exitDy=0;" parent="1" source="8hQfOiwvWAjv1FpIQdZN-117" target="8hQfOiwvWAjv1FpIQdZN-116" edge="1">
          <mxGeometry relative="1" as="geometry">
            <mxPoint x="640" y="2740" as="sourcePoint" />
          </mxGeometry>
        </mxCell>
        <mxCell id="8hQfOiwvWAjv1FpIQdZN-119" style="edgeStyle=orthogonalEdgeStyle;rounded=0;orthogonalLoop=1;jettySize=auto;html=1;entryX=0;entryY=0.5;entryDx=0;entryDy=0;strokeColor=default;strokeWidth=1;align=center;verticalAlign=middle;fontFamily=Verdana;fontSize=8;fontColor=default;labelBackgroundColor=none;resizable=0;endArrow=classic;fillColor=none;gradientColor=none;" parent="1" source="8hQfOiwvWAjv1FpIQdZN-120" target="8hQfOiwvWAjv1FpIQdZN-136" edge="1">
          <mxGeometry relative="1" as="geometry" />
        </mxCell>
        <mxCell id="8hQfOiwvWAjv1FpIQdZN-120" value="Frage anlegen" style="whiteSpace=wrap;html=1;rounded=0;shadow=1;labelBackgroundColor=none;strokeWidth=1;fontFamily=Verdana;fontSize=8;align=center;" parent="1" vertex="1">
          <mxGeometry x="588.01" y="2720" width="120" height="40" as="geometry" />
        </mxCell>
        <mxCell id="8hQfOiwvWAjv1FpIQdZN-121" value="Liste der Fragen aktualisieren" style="whiteSpace=wrap;html=1;rounded=0;shadow=1;labelBackgroundColor=none;strokeWidth=1;fontFamily=Verdana;fontSize=8;align=center;" parent="1" vertex="1">
          <mxGeometry x="949.75" y="2975" width="120" height="40" as="geometry" />
        </mxCell>
        <mxCell id="8hQfOiwvWAjv1FpIQdZN-122" value="View: Bibliothek" style="strokeWidth=1;html=1;shape=mxgraph.flowchart.terminator;whiteSpace=wrap;fontFamily=Verdana;fontSize=8;fontColor=default;labelBackgroundColor=none;resizable=0;rounded=0;shadow=1;strokeColor=default;align=center;verticalAlign=middle;fillColor=default;" parent="1" vertex="1">
          <mxGeometry x="959.75" y="2810.75" width="100" height="60" as="geometry" />
        </mxCell>
        <mxCell id="8hQfOiwvWAjv1FpIQdZN-123" style="edgeStyle=orthogonalEdgeStyle;rounded=0;orthogonalLoop=1;jettySize=auto;html=1;shadow=1;strokeColor=default;strokeWidth=1;align=center;verticalAlign=middle;fontFamily=Verdana;fontSize=8;fontColor=default;labelBackgroundColor=none;endArrow=classic;fillColor=default;exitX=0.5;exitY=1;exitDx=0;exitDy=0;entryX=0;entryY=0.5;entryDx=0;entryDy=0;" parent="1" source="8hQfOiwvWAjv1FpIQdZN-140" target="8hQfOiwvWAjv1FpIQdZN-152" edge="1">
          <mxGeometry relative="1" as="geometry">
            <mxPoint x="330.02" y="2930.75" as="sourcePoint" />
          </mxGeometry>
        </mxCell>
        <mxCell id="8hQfOiwvWAjv1FpIQdZN-124" value="&lt;span style=&quot;color: rgba(0, 0, 0, 0); font-family: monospace; font-size: 0px; text-align: start;&quot;&gt;%3CmxGraphModel%3E%3Croot%3E%3CmxCell%20id%3D%220%22%2F%3E%3CmxCell%20id%3D%221%22%20parent%3D%220%22%2F%3E%3CmxCell%20id%3D%222%22%20value%3D%22Fragenpool%20%26lt%3Bbr%26gt%3Bhinzuf%C3%BCgen%22%20style%3D%22edgeLabel%3Bhtml%3D1%3Balign%3Dcenter%3BverticalAlign%3Dmiddle%3Bresizable%3D0%3Bpoints%3D%5B%5D%3BfontFamily%3DVerdana%3BfontSize%3D8%3BfontColor%3Ddefault%3BlabelBackgroundColor%3Dnone%3B%22%20vertex%3D%221%22%20connectable%3D%220%22%20parent%3D%221%22%3E%3CmxGeometry%20x%3D%22140%22%20y%3D%222790%22%20as%3D%22geometry%22%2F%3E%3C%2FmxCell%3E%3C%2Froot%3E%3C%2FmxGraphModel%3EFra&lt;/span&gt;" style="edgeLabel;html=1;align=center;verticalAlign=middle;resizable=0;points=[];fontFamily=Verdana;fontSize=8;fontColor=default;labelBackgroundColor=none;" parent="8hQfOiwvWAjv1FpIQdZN-123" vertex="1" connectable="0">
          <mxGeometry x="-0.6293" y="-3" relative="1" as="geometry">
            <mxPoint as="offset" />
          </mxGeometry>
        </mxCell>
        <mxCell id="8hQfOiwvWAjv1FpIQdZN-125" value="Fragen&lt;br&gt;löschen" style="edgeLabel;html=1;align=center;verticalAlign=middle;resizable=0;points=[];fontFamily=Verdana;fontSize=8;fontColor=default;labelBackgroundColor=none;" parent="8hQfOiwvWAjv1FpIQdZN-123" vertex="1" connectable="0">
          <mxGeometry x="-0.3366" y="1" relative="1" as="geometry">
            <mxPoint x="-31" as="offset" />
          </mxGeometry>
        </mxCell>
        <mxCell id="8hQfOiwvWAjv1FpIQdZN-126" style="edgeStyle=orthogonalEdgeStyle;rounded=0;orthogonalLoop=1;jettySize=auto;html=1;entryX=0;entryY=0.5;entryDx=0;entryDy=0;strokeColor=default;strokeWidth=1;align=center;verticalAlign=middle;fontFamily=Verdana;fontSize=8;fontColor=default;labelBackgroundColor=none;resizable=0;endArrow=classic;fillColor=none;gradientColor=none;" parent="1" source="8hQfOiwvWAjv1FpIQdZN-127" target="8hQfOiwvWAjv1FpIQdZN-142" edge="1">
          <mxGeometry relative="1" as="geometry" />
        </mxCell>
        <mxCell id="8hQfOiwvWAjv1FpIQdZN-127" value="Klick [Frage X]" style="whiteSpace=wrap;html=1;rounded=0;shadow=1;labelBackgroundColor=none;strokeWidth=1;fontFamily=Verdana;fontSize=8;align=center;" parent="1" vertex="1">
          <mxGeometry x="276.02" y="2895.75" width="120" height="40" as="geometry" />
        </mxCell>
        <mxCell id="8hQfOiwvWAjv1FpIQdZN-128" style="edgeStyle=orthogonalEdgeStyle;rounded=0;orthogonalLoop=1;jettySize=auto;html=1;entryX=1;entryY=0.5;entryDx=0;entryDy=0;strokeColor=default;strokeWidth=1;align=center;verticalAlign=middle;fontFamily=Verdana;fontSize=8;fontColor=default;labelBackgroundColor=none;resizable=0;endArrow=classic;fillColor=none;gradientColor=none;" parent="1" source="8hQfOiwvWAjv1FpIQdZN-129" target="8hQfOiwvWAjv1FpIQdZN-144" edge="1">
          <mxGeometry relative="1" as="geometry" />
        </mxCell>
        <mxCell id="8hQfOiwvWAjv1FpIQdZN-129" value="Klick [Frage löschen]" style="whiteSpace=wrap;html=1;rounded=0;shadow=1;labelBackgroundColor=none;strokeWidth=1;fontFamily=Verdana;fontSize=8;align=center;" parent="1" vertex="1">
          <mxGeometry x="392.24" y="3050.75" width="120" height="40" as="geometry" />
        </mxCell>
        <mxCell id="8hQfOiwvWAjv1FpIQdZN-130" value="Klick [Löschen bestätigen]" style="whiteSpace=wrap;html=1;rounded=0;shadow=1;labelBackgroundColor=none;strokeWidth=1;fontFamily=Verdana;fontSize=8;align=center;direction=west;" parent="1" vertex="1">
          <mxGeometry x="695.52" y="3050.75" width="120" height="40" as="geometry" />
        </mxCell>
        <mxCell id="8hQfOiwvWAjv1FpIQdZN-131" value="Ja" style="edgeStyle=orthogonalEdgeStyle;rounded=0;orthogonalLoop=1;jettySize=auto;html=1;entryX=1;entryY=0.5;entryDx=0;entryDy=0;strokeColor=default;strokeWidth=1;align=center;verticalAlign=middle;fontFamily=Verdana;fontSize=8;fontColor=default;labelBackgroundColor=none;resizable=0;endArrow=classic;fillColor=none;gradientColor=none;" parent="1" source="8hQfOiwvWAjv1FpIQdZN-132" target="8hQfOiwvWAjv1FpIQdZN-134" edge="1">
          <mxGeometry x="0.3044" y="10" relative="1" as="geometry">
            <mxPoint as="offset" />
          </mxGeometry>
        </mxCell>
        <mxCell id="8hQfOiwvWAjv1FpIQdZN-132" value="bestätigt?" style="strokeWidth=1;html=1;shape=mxgraph.flowchart.decision;whiteSpace=wrap;rounded=0;shadow=1;strokeColor=default;align=center;verticalAlign=middle;fontFamily=Verdana;fontSize=8;fontColor=default;labelBackgroundColor=none;fillColor=default;" parent="1" vertex="1">
          <mxGeometry x="840" y="3047.25" width="67.51" height="47" as="geometry" />
        </mxCell>
        <mxCell id="8hQfOiwvWAjv1FpIQdZN-133" style="edgeStyle=orthogonalEdgeStyle;rounded=0;orthogonalLoop=1;jettySize=auto;html=1;entryX=0.5;entryY=1;entryDx=0;entryDy=0;strokeColor=default;strokeWidth=1;align=center;verticalAlign=middle;fontFamily=Verdana;fontSize=8;fontColor=default;labelBackgroundColor=none;resizable=0;endArrow=classic;fillColor=none;gradientColor=none;" parent="1" source="8hQfOiwvWAjv1FpIQdZN-134" target="8hQfOiwvWAjv1FpIQdZN-121" edge="1">
          <mxGeometry relative="1" as="geometry" />
        </mxCell>
        <mxCell id="8hQfOiwvWAjv1FpIQdZN-134" value="Löschen der Frage inkl. aller dazugehörigen&amp;nbsp; Antwortelemente" style="whiteSpace=wrap;html=1;rounded=0;shadow=1;labelBackgroundColor=none;strokeWidth=1;fontFamily=Verdana;fontSize=8;align=center;direction=west;" parent="1" vertex="1">
          <mxGeometry x="949.75" y="3050.75" width="120" height="40" as="geometry" />
        </mxCell>
        <mxCell id="8hQfOiwvWAjv1FpIQdZN-135" style="edgeStyle=orthogonalEdgeStyle;rounded=0;orthogonalLoop=1;jettySize=auto;html=1;strokeColor=default;strokeWidth=1;align=center;verticalAlign=middle;fontFamily=Verdana;fontSize=8;fontColor=default;labelBackgroundColor=none;resizable=0;endArrow=classic;fillColor=none;gradientColor=none;" parent="1" source="8hQfOiwvWAjv1FpIQdZN-136" target="8hQfOiwvWAjv1FpIQdZN-122" edge="1">
          <mxGeometry relative="1" as="geometry" />
        </mxCell>
        <mxCell id="8hQfOiwvWAjv1FpIQdZN-136" value="Liste der Fragen aktualisieren und die erstellte Frage auswählen" style="whiteSpace=wrap;html=1;rounded=0;shadow=1;labelBackgroundColor=none;strokeWidth=1;fontFamily=Verdana;fontSize=8;align=center;" parent="1" vertex="1">
          <mxGeometry x="750.04" y="2720" width="120" height="40" as="geometry" />
        </mxCell>
        <mxCell id="8hQfOiwvWAjv1FpIQdZN-137" style="edgeStyle=orthogonalEdgeStyle;rounded=0;orthogonalLoop=1;jettySize=auto;html=1;entryX=0;entryY=0.5;entryDx=0;entryDy=0;strokeColor=default;strokeWidth=1;align=center;verticalAlign=middle;fontFamily=Verdana;fontSize=8;fontColor=default;labelBackgroundColor=none;resizable=0;endArrow=classic;fillColor=none;gradientColor=none;exitX=0.5;exitY=0;exitDx=0;exitDy=0;" parent="1" source="8hQfOiwvWAjv1FpIQdZN-140" target="8hQfOiwvWAjv1FpIQdZN-117" edge="1">
          <mxGeometry relative="1" as="geometry">
            <mxPoint x="330.02" y="2870.75" as="sourcePoint" />
          </mxGeometry>
        </mxCell>
        <mxCell id="8hQfOiwvWAjv1FpIQdZN-138" value="Frage&lt;br&gt;hinzufügen" style="edgeLabel;html=1;align=center;verticalAlign=middle;resizable=0;points=[];fontFamily=Verdana;fontSize=8;fontColor=default;labelBackgroundColor=none;" parent="8hQfOiwvWAjv1FpIQdZN-137" vertex="1" connectable="0">
          <mxGeometry x="-0.4368" y="1" relative="1" as="geometry">
            <mxPoint x="-29" y="25" as="offset" />
          </mxGeometry>
        </mxCell>
        <mxCell id="8hQfOiwvWAjv1FpIQdZN-139" value="Name der &lt;br&gt;Frage ändern" style="edgeStyle=orthogonalEdgeStyle;rounded=0;orthogonalLoop=1;jettySize=auto;html=1;strokeColor=default;strokeWidth=1;align=center;verticalAlign=middle;fontFamily=Verdana;fontSize=8;fontColor=default;labelBackgroundColor=none;resizable=0;endArrow=classic;fillColor=none;gradientColor=none;exitX=1;exitY=0.5;exitDx=0;exitDy=0;entryX=0;entryY=0.5;entryDx=0;entryDy=0;" parent="1" source="8hQfOiwvWAjv1FpIQdZN-140" target="8hQfOiwvWAjv1FpIQdZN-127" edge="1">
          <mxGeometry x="-1" y="36" relative="1" as="geometry">
            <mxPoint as="offset" />
            <mxPoint x="380.02" y="2900.75" as="sourcePoint" />
            <mxPoint x="280" y="2950" as="targetPoint" />
            <Array as="points">
              <mxPoint x="270" y="2916" />
              <mxPoint x="270" y="2916" />
            </Array>
          </mxGeometry>
        </mxCell>
        <mxCell id="8hQfOiwvWAjv1FpIQdZN-140" value="Absicht" style="rhombus;whiteSpace=wrap;html=1;rounded=0;shadow=1;labelBackgroundColor=none;strokeWidth=1;fontFamily=Verdana;fontSize=8;align=center;" parent="1" vertex="1">
          <mxGeometry x="160" y="2885.75" width="100" height="60" as="geometry" />
        </mxCell>
        <mxCell id="8hQfOiwvWAjv1FpIQdZN-141" style="edgeStyle=orthogonalEdgeStyle;rounded=0;orthogonalLoop=1;jettySize=auto;html=1;strokeColor=default;strokeWidth=1;align=center;verticalAlign=middle;fontFamily=Verdana;fontSize=8;fontColor=default;labelBackgroundColor=none;resizable=0;endArrow=classic;fillColor=none;gradientColor=none;entryX=0;entryY=0.5;entryDx=0;entryDy=0;" parent="1" source="8hQfOiwvWAjv1FpIQdZN-142" target="8hQfOiwvWAjv1FpIQdZN-150" edge="1">
          <mxGeometry relative="1" as="geometry">
            <mxPoint x="590" y="2915.75" as="targetPoint" />
          </mxGeometry>
        </mxCell>
        <mxCell id="8hQfOiwvWAjv1FpIQdZN-142" value="Klick [Frage ändern]" style="whiteSpace=wrap;html=1;rounded=0;shadow=1;labelBackgroundColor=none;strokeWidth=1;fontFamily=Verdana;fontSize=8;align=center;" parent="1" vertex="1">
          <mxGeometry x="433.76" y="2895.75" width="120" height="40" as="geometry" />
        </mxCell>
        <mxCell id="8hQfOiwvWAjv1FpIQdZN-143" style="edgeStyle=orthogonalEdgeStyle;rounded=0;orthogonalLoop=1;jettySize=auto;html=1;entryX=1;entryY=0.5;entryDx=0;entryDy=0;strokeColor=default;strokeWidth=1;align=center;verticalAlign=middle;fontFamily=Verdana;fontSize=8;fontColor=default;labelBackgroundColor=none;resizable=0;endArrow=classic;fillColor=none;gradientColor=none;" parent="1" source="8hQfOiwvWAjv1FpIQdZN-144" target="8hQfOiwvWAjv1FpIQdZN-130" edge="1">
          <mxGeometry relative="1" as="geometry" />
        </mxCell>
        <mxCell id="8hQfOiwvWAjv1FpIQdZN-144" value="Anzeige Löschhinweis" style="whiteSpace=wrap;html=1;rounded=0;shadow=1;labelBackgroundColor=none;strokeWidth=1;fontFamily=Verdana;fontSize=8;align=center;direction=west;" parent="1" vertex="1">
          <mxGeometry x="545" y="3050.75" width="120" height="40" as="geometry" />
        </mxCell>
        <mxCell id="8hQfOiwvWAjv1FpIQdZN-145" style="edgeStyle=orthogonalEdgeStyle;rounded=0;orthogonalLoop=1;jettySize=auto;html=1;entryX=0;entryY=0.5;entryDx=0;entryDy=0;entryPerimeter=0;strokeColor=default;strokeWidth=1;align=center;verticalAlign=middle;fontFamily=Verdana;fontSize=8;fontColor=default;labelBackgroundColor=none;resizable=0;endArrow=classic;fillColor=none;gradientColor=none;" parent="1" source="8hQfOiwvWAjv1FpIQdZN-130" target="8hQfOiwvWAjv1FpIQdZN-132" edge="1">
          <mxGeometry relative="1" as="geometry" />
        </mxCell>
        <mxCell id="8hQfOiwvWAjv1FpIQdZN-146" style="edgeStyle=orthogonalEdgeStyle;rounded=0;orthogonalLoop=1;jettySize=auto;html=1;entryX=0.5;entryY=1;entryDx=0;entryDy=0;entryPerimeter=0;strokeColor=default;strokeWidth=1;align=center;verticalAlign=middle;fontFamily=Verdana;fontSize=8;fontColor=default;labelBackgroundColor=none;resizable=0;endArrow=classic;fillColor=none;gradientColor=none;" parent="1" source="8hQfOiwvWAjv1FpIQdZN-121" target="8hQfOiwvWAjv1FpIQdZN-122" edge="1">
          <mxGeometry relative="1" as="geometry" />
        </mxCell>
        <mxCell id="8hQfOiwvWAjv1FpIQdZN-147" style="edgeStyle=orthogonalEdgeStyle;rounded=0;orthogonalLoop=1;jettySize=auto;html=1;entryX=0;entryY=0.5;entryDx=0;entryDy=0;entryPerimeter=0;strokeColor=default;strokeWidth=1;align=center;verticalAlign=middle;fontFamily=Verdana;fontSize=8;fontColor=default;labelBackgroundColor=none;resizable=0;endArrow=classic;fillColor=none;gradientColor=none;exitX=1;exitY=0.5;exitDx=0;exitDy=0;" parent="1" source="8hQfOiwvWAjv1FpIQdZN-150" target="8hQfOiwvWAjv1FpIQdZN-122" edge="1">
          <mxGeometry relative="1" as="geometry">
            <mxPoint x="710" y="2915.833333333333" as="sourcePoint" />
          </mxGeometry>
        </mxCell>
        <mxCell id="8hQfOiwvWAjv1FpIQdZN-148" value="Klick [Pool X]" style="whiteSpace=wrap;html=1;rounded=0;shadow=1;labelBackgroundColor=none;strokeWidth=1;fontFamily=Verdana;fontSize=8;align=center;" parent="1" vertex="1">
          <mxGeometry x="15" y="2895.75" width="120" height="40" as="geometry" />
        </mxCell>
        <mxCell id="8hQfOiwvWAjv1FpIQdZN-149" style="edgeStyle=orthogonalEdgeStyle;rounded=0;orthogonalLoop=1;jettySize=auto;html=1;entryX=0;entryY=0.5;entryDx=0;entryDy=0;strokeColor=default;strokeWidth=1;align=center;verticalAlign=middle;fontFamily=Verdana;fontSize=8;fontColor=default;labelBackgroundColor=none;resizable=0;endArrow=classic;fillColor=none;gradientColor=none;" parent="1" source="8hQfOiwvWAjv1FpIQdZN-148" target="8hQfOiwvWAjv1FpIQdZN-140" edge="1">
          <mxGeometry relative="1" as="geometry" />
        </mxCell>
        <mxCell id="8hQfOiwvWAjv1FpIQdZN-150" value="Liste der Fragen aktualisieren" style="whiteSpace=wrap;html=1;rounded=0;shadow=1;labelBackgroundColor=none;strokeWidth=1;fontFamily=Verdana;fontSize=8;align=center;" parent="1" vertex="1">
          <mxGeometry x="590" y="2895.75" width="120" height="40" as="geometry" />
        </mxCell>
        <mxCell id="8hQfOiwvWAjv1FpIQdZN-151" style="edgeStyle=orthogonalEdgeStyle;rounded=0;orthogonalLoop=1;jettySize=auto;html=1;entryX=0;entryY=0.5;entryDx=0;entryDy=0;strokeColor=default;strokeWidth=1;align=center;verticalAlign=middle;fontFamily=Verdana;fontSize=8;fontColor=default;labelBackgroundColor=none;resizable=0;endArrow=classic;fillColor=none;gradientColor=none;" parent="1" source="8hQfOiwvWAjv1FpIQdZN-152" target="8hQfOiwvWAjv1FpIQdZN-129" edge="1">
          <mxGeometry relative="1" as="geometry" />
        </mxCell>
        <mxCell id="8hQfOiwvWAjv1FpIQdZN-152" value="Klick [Frage X]" style="whiteSpace=wrap;html=1;rounded=0;shadow=1;labelBackgroundColor=none;strokeWidth=1;fontFamily=Verdana;fontSize=8;align=center;" parent="1" vertex="1">
          <mxGeometry x="240" y="3050.75" width="120" height="40" as="geometry" />
        </mxCell>
        <mxCell id="8hQfOiwvWAjv1FpIQdZN-153" style="edgeStyle=orthogonalEdgeStyle;rounded=0;orthogonalLoop=1;jettySize=auto;html=1;entryX=0;entryY=0.5;entryDx=0;entryDy=0;strokeColor=default;strokeWidth=1;align=center;verticalAlign=middle;fontFamily=Verdana;fontSize=8;fontColor=default;labelBackgroundColor=none;resizable=0;endArrow=classic;fillColor=none;gradientColor=none;" parent="1" source="8hQfOiwvWAjv1FpIQdZN-154" target="8hQfOiwvWAjv1FpIQdZN-104" edge="1">
          <mxGeometry relative="1" as="geometry" />
        </mxCell>
        <mxCell id="8hQfOiwvWAjv1FpIQdZN-154" value="Klick [Frage X]" style="whiteSpace=wrap;html=1;rounded=0;shadow=1;labelBackgroundColor=none;strokeWidth=1;fontFamily=Verdana;fontSize=8;align=center;" parent="1" vertex="1">
          <mxGeometry x="15" y="3840" width="120" height="40" as="geometry" />
        </mxCell>
        <mxCell id="8hQfOiwvWAjv1FpIQdZN-160" style="edgeStyle=orthogonalEdgeStyle;rounded=0;orthogonalLoop=1;jettySize=auto;html=1;entryX=0;entryY=0.5;entryDx=0;entryDy=0;strokeColor=default;strokeWidth=1;align=center;verticalAlign=middle;fontFamily=Verdana;fontSize=8;fontColor=default;labelBackgroundColor=none;resizable=0;endArrow=classic;fillColor=none;gradientColor=none;exitX=1;exitY=0.5;exitDx=0;exitDy=0;" parent="1" source="40lozNCE-8FgBLbeo9Co-14" target="8hQfOiwvWAjv1FpIQdZN-93" edge="1">
          <mxGeometry relative="1" as="geometry">
            <mxPoint x="530" y="3680.803278688525" as="sourcePoint" />
            <mxPoint x="560" y="3680.7500000000005" as="targetPoint" />
          </mxGeometry>
        </mxCell>
        <mxCell id="2tlv2Q3TIu2Fah11hNiW-2" value="Logout" style="edgeStyle=orthogonalEdgeStyle;rounded=0;orthogonalLoop=1;jettySize=auto;html=1;entryX=0;entryY=0.5;entryDx=0;entryDy=0;exitX=0.5;exitY=1;exitDx=0;exitDy=0;strokeColor=default;strokeWidth=1;align=center;verticalAlign=middle;fontFamily=Verdana;fontSize=8;fontColor=default;labelBackgroundColor=none;resizable=0;endArrow=classic;fillColor=none;gradientColor=none;" parent="1" source="2tlv2Q3TIu2Fah11hNiW-1" target="8hQfOiwvWAjv1FpIQdZN-58" edge="1">
          <mxGeometry relative="1" as="geometry">
            <mxPoint x="176" y="1470.0000000000002" as="targetPoint" />
          </mxGeometry>
        </mxCell>
        <mxCell id="2tlv2Q3TIu2Fah11hNiW-1" value="Absicht" style="rhombus;whiteSpace=wrap;html=1;rounded=0;shadow=1;labelBackgroundColor=none;strokeWidth=1;fontFamily=Verdana;fontSize=8;align=center;" parent="1" vertex="1">
          <mxGeometry x="126" y="1220" width="100" height="60" as="geometry" />
        </mxCell>
        <mxCell id="40lozNCE-8FgBLbeo9Co-1" style="edgeStyle=orthogonalEdgeStyle;rounded=0;orthogonalLoop=1;jettySize=auto;html=1;exitX=0.5;exitY=1;exitDx=0;exitDy=0;" parent="1" source="8hQfOiwvWAjv1FpIQdZN-26" target="8hQfOiwvWAjv1FpIQdZN-26" edge="1">
          <mxGeometry relative="1" as="geometry" />
        </mxCell>
        <mxCell id="40lozNCE-8FgBLbeo9Co-2" value="View: Bibliothek" style="strokeWidth=1;html=1;shape=mxgraph.flowchart.terminator;whiteSpace=wrap;fontFamily=Verdana;fontSize=8;fontColor=default;labelBackgroundColor=none;resizable=0;rounded=0;shadow=1;strokeColor=default;align=center;verticalAlign=middle;fillColor=default;" parent="1" vertex="1">
          <mxGeometry x="990" y="2370" width="100" height="60" as="geometry" />
        </mxCell>
        <mxCell id="40lozNCE-8FgBLbeo9Co-3" style="edgeStyle=orthogonalEdgeStyle;rounded=0;orthogonalLoop=1;jettySize=auto;html=1;entryX=0;entryY=0.5;entryDx=0;entryDy=0;entryPerimeter=0;" parent="1" source="8hQfOiwvWAjv1FpIQdZN-46" target="40lozNCE-8FgBLbeo9Co-2" edge="1">
          <mxGeometry relative="1" as="geometry">
            <Array as="points">
              <mxPoint x="710" y="2400" />
            </Array>
          </mxGeometry>
        </mxCell>
        <mxCell id="40lozNCE-8FgBLbeo9Co-4" value="Nein" style="edgeLabel;html=1;align=center;verticalAlign=middle;resizable=0;points=[];rounded=0;strokeColor=default;strokeWidth=1;fontFamily=Verdana;fontSize=8;fontColor=default;labelBackgroundColor=none;fillColor=none;gradientColor=none;" parent="40lozNCE-8FgBLbeo9Co-3" vertex="1" connectable="0">
          <mxGeometry x="-0.8901" y="1" relative="1" as="geometry">
            <mxPoint x="19" y="-5" as="offset" />
          </mxGeometry>
        </mxCell>
        <mxCell id="40lozNCE-8FgBLbeo9Co-19" style="edgeStyle=orthogonalEdgeStyle;rounded=0;orthogonalLoop=1;jettySize=auto;html=1;entryX=0;entryY=0.5;entryDx=0;entryDy=0;" parent="1" source="40lozNCE-8FgBLbeo9Co-5" target="40lozNCE-8FgBLbeo9Co-8" edge="1">
          <mxGeometry relative="1" as="geometry" />
        </mxCell>
        <mxCell id="40lozNCE-8FgBLbeo9Co-5" value="Klick [Antwort hinzufügen]" style="whiteSpace=wrap;html=1;rounded=0;shadow=1;labelBackgroundColor=none;strokeWidth=1;fontFamily=Verdana;fontSize=8;align=center;" parent="1" vertex="1">
          <mxGeometry x="460" y="3840" width="120" height="40" as="geometry" />
        </mxCell>
        <mxCell id="40lozNCE-8FgBLbeo9Co-7" value="Liste der Antwortoptionen wird aktualisiert" style="whiteSpace=wrap;html=1;rounded=0;shadow=1;labelBackgroundColor=none;strokeWidth=1;fontFamily=Verdana;fontSize=8;align=center;" parent="1" vertex="1">
          <mxGeometry x="780" y="3840" width="120" height="40" as="geometry" />
        </mxCell>
        <mxCell id="40lozNCE-8FgBLbeo9Co-10" style="edgeStyle=orthogonalEdgeStyle;rounded=0;orthogonalLoop=1;jettySize=auto;html=1;entryX=0;entryY=0.5;entryDx=0;entryDy=0;" parent="1" source="40lozNCE-8FgBLbeo9Co-8" target="40lozNCE-8FgBLbeo9Co-7" edge="1">
          <mxGeometry relative="1" as="geometry" />
        </mxCell>
        <mxCell id="40lozNCE-8FgBLbeo9Co-8" value="Neue Standardantwort ohne Inhalt wird erstellt" style="whiteSpace=wrap;html=1;rounded=0;shadow=1;labelBackgroundColor=none;strokeWidth=1;fontFamily=Verdana;fontSize=8;align=center;" parent="1" vertex="1">
          <mxGeometry x="623.53" y="3840" width="120" height="40" as="geometry" />
        </mxCell>
        <mxCell id="40lozNCE-8FgBLbeo9Co-11" style="edgeStyle=orthogonalEdgeStyle;rounded=0;orthogonalLoop=1;jettySize=auto;html=1;entryX=0;entryY=0.5;entryDx=0;entryDy=0;entryPerimeter=0;" parent="1" source="40lozNCE-8FgBLbeo9Co-7" target="8hQfOiwvWAjv1FpIQdZN-95" edge="1">
          <mxGeometry relative="1" as="geometry" />
        </mxCell>
        <mxCell id="40lozNCE-8FgBLbeo9Co-12" style="edgeStyle=orthogonalEdgeStyle;rounded=0;orthogonalLoop=1;jettySize=auto;html=1;entryX=0;entryY=0.5;entryDx=0;entryDy=0;strokeColor=default;strokeWidth=1;align=center;verticalAlign=middle;fontFamily=Verdana;fontSize=8;fontColor=default;labelBackgroundColor=none;resizable=0;endArrow=classic;fillColor=none;gradientColor=none;exitX=0.5;exitY=0;exitDx=0;exitDy=0;" parent="1" source="8hQfOiwvWAjv1FpIQdZN-104" target="8hQfOiwvWAjv1FpIQdZN-92" edge="1">
          <mxGeometry relative="1" as="geometry">
            <mxPoint x="250" y="3770" as="sourcePoint" />
            <mxPoint x="270" y="3590" as="targetPoint" />
          </mxGeometry>
        </mxCell>
        <mxCell id="40lozNCE-8FgBLbeo9Co-14" value="Ausfüllen &amp;lt;Hinweis X&amp;gt;" style="whiteSpace=wrap;html=1;rounded=0;shadow=1;labelBackgroundColor=none;strokeWidth=1;fontFamily=Verdana;fontSize=8;align=center;" parent="1" vertex="1">
          <mxGeometry x="260" y="3620" width="120" height="40" as="geometry" />
        </mxCell>
        <mxCell id="40lozNCE-8FgBLbeo9Co-15" style="edgeStyle=orthogonalEdgeStyle;rounded=0;orthogonalLoop=1;jettySize=auto;html=1;entryX=0;entryY=0.5;entryDx=0;entryDy=0;strokeColor=default;strokeWidth=1;align=center;verticalAlign=middle;fontFamily=Verdana;fontSize=8;fontColor=default;labelBackgroundColor=none;resizable=0;endArrow=classic;fillColor=none;gradientColor=none;" parent="1" target="40lozNCE-8FgBLbeo9Co-14" edge="1">
          <mxGeometry relative="1" as="geometry">
            <mxPoint x="210" y="3830" as="sourcePoint" />
            <mxPoint x="270" y="3710" as="targetPoint" />
            <Array as="points">
              <mxPoint x="210" y="3640" />
            </Array>
          </mxGeometry>
        </mxCell>
        <mxCell id="40lozNCE-8FgBLbeo9Co-18" value="Ja" style="edgeStyle=orthogonalEdgeStyle;rounded=0;orthogonalLoop=1;jettySize=auto;html=1;entryX=0;entryY=0.5;entryDx=0;entryDy=0;align=center;verticalAlign=middle;fontFamily=Verdana;fontSize=8;fontColor=default;labelBackgroundColor=none;resizable=0;fillColor=none;gradientColor=none;" parent="1" source="40lozNCE-8FgBLbeo9Co-16" target="40lozNCE-8FgBLbeo9Co-5" edge="1">
          <mxGeometry x="-0.5" y="10" relative="1" as="geometry">
            <mxPoint as="offset" />
          </mxGeometry>
        </mxCell>
        <mxCell id="40lozNCE-8FgBLbeo9Co-21" style="edgeStyle=orthogonalEdgeStyle;rounded=0;orthogonalLoop=1;jettySize=auto;html=1;entryX=0;entryY=0.5;entryDx=0;entryDy=0;" parent="1" source="40lozNCE-8FgBLbeo9Co-16" target="40lozNCE-8FgBLbeo9Co-20" edge="1">
          <mxGeometry relative="1" as="geometry">
            <Array as="points">
              <mxPoint x="370" y="3780" />
            </Array>
          </mxGeometry>
        </mxCell>
        <mxCell id="40lozNCE-8FgBLbeo9Co-23" value="Nein" style="edgeLabel;html=1;align=center;verticalAlign=middle;resizable=0;points=[];fontFamily=Verdana;fontSize=8;fontColor=default;labelBackgroundColor=none;fillColor=none;gradientColor=none;" parent="40lozNCE-8FgBLbeo9Co-21" vertex="1" connectable="0">
          <mxGeometry x="0.1121" y="-1" relative="1" as="geometry">
            <mxPoint x="-8" y="29" as="offset" />
          </mxGeometry>
        </mxCell>
        <mxCell id="40lozNCE-8FgBLbeo9Co-16" value="weniger 4 Antwortoptionen vorhanden?" style="rhombus;whiteSpace=wrap;html=1;rounded=0;shadow=1;labelBackgroundColor=none;strokeWidth=1;fontFamily=Verdana;fontSize=8;align=center;" parent="1" vertex="1">
          <mxGeometry x="320" y="3830" width="100" height="60" as="geometry" />
        </mxCell>
        <mxCell id="40lozNCE-8FgBLbeo9Co-20" value="[Antwort hinzufügen] nicht möglich" style="whiteSpace=wrap;html=1;rounded=0;shadow=1;labelBackgroundColor=none;strokeWidth=1;fontFamily=Verdana;fontSize=8;align=center;" parent="1" vertex="1">
          <mxGeometry x="460" y="3760" width="120" height="40" as="geometry" />
        </mxCell>
        <mxCell id="40lozNCE-8FgBLbeo9Co-22" style="edgeStyle=orthogonalEdgeStyle;rounded=0;orthogonalLoop=1;jettySize=auto;html=1;entryX=0;entryY=0.5;entryDx=0;entryDy=0;entryPerimeter=0;" parent="1" source="40lozNCE-8FgBLbeo9Co-20" target="8hQfOiwvWAjv1FpIQdZN-95" edge="1">
          <mxGeometry relative="1" as="geometry">
            <Array as="points">
              <mxPoint x="930" y="3780" />
              <mxPoint x="930" y="3825" />
            </Array>
          </mxGeometry>
        </mxCell>
        <mxCell id="40lozNCE-8FgBLbeo9Co-26" style="edgeStyle=orthogonalEdgeStyle;rounded=0;orthogonalLoop=1;jettySize=auto;html=1;" parent="1" source="40lozNCE-8FgBLbeo9Co-25" target="8hQfOiwvWAjv1FpIQdZN-95" edge="1">
          <mxGeometry relative="1" as="geometry" />
        </mxCell>
        <mxCell id="40lozNCE-8FgBLbeo9Co-25" value="Liste der Antwortoptionen aktualisieren" style="whiteSpace=wrap;html=1;rounded=0;shadow=1;labelBackgroundColor=none;strokeWidth=1;fontFamily=Verdana;fontSize=8;align=center;" parent="1" vertex="1">
          <mxGeometry x="750.04" y="3620" width="120" height="40" as="geometry" />
        </mxCell>
      </root>
    </mxGraphModel>
  </diagram>
  <diagram id="M1Hj_7X9o6X-5fUSSvT_" name="Singleplayer">
    <mxGraphModel dx="1183" dy="-2708" grid="1" gridSize="10" guides="1" tooltips="1" connect="1" arrows="1" fold="1" page="1" pageScale="1" pageWidth="1100" pageHeight="850" math="0" shadow="0">
      <root>
        <mxCell id="0" />
        <mxCell id="1" parent="0" />
        <mxCell id="U2He2lWpCIgEj4zJLZN9-1" value="&lt;pre&gt;&lt;span style=&quot;font-family: Helvetica; white-space: normal;&quot;&gt;&lt;font style=&quot;font-size: 15px;&quot;&gt;UF7 - Einzelspieler - Aktion wählen&lt;/font&gt;&lt;/span&gt;&lt;/pre&gt;" style="text;whiteSpace=wrap;html=1;strokeColor=default;verticalAlign=middle;spacing=2;labelPosition=center;verticalLabelPosition=middle;align=center;" parent="1" vertex="1">
          <mxGeometry x="10" y="3410" width="210" height="60" as="geometry" />
        </mxCell>
        <mxCell id="U2He2lWpCIgEj4zJLZN9-2" value="Flow-Optionen im Menü für das Einzelspieler Quiz" style="text;html=1;align=center;verticalAlign=middle;whiteSpace=wrap;rounded=0;strokeColor=default;fontSize=9;" parent="1" vertex="1">
          <mxGeometry x="230" y="3410" width="420" height="60" as="geometry" />
        </mxCell>
        <mxCell id="U2He2lWpCIgEj4zJLZN9-3" value="Views:&lt;div style=&quot;font-size: 8px;&quot;&gt;&lt;ul style=&quot;font-size: 8px;&quot;&gt;&lt;li style=&quot;font-size: 8px;&quot;&gt;Einzelspieler&lt;/li&gt;&lt;/ul&gt;&lt;/div&gt;" style="text;html=1;align=left;verticalAlign=top;whiteSpace=wrap;rounded=0;textShadow=0;strokeColor=default;fontSize=8;" parent="1" vertex="1">
          <mxGeometry x="670" y="3410" width="420" height="60" as="geometry" />
        </mxCell>
        <mxCell id="U2He2lWpCIgEj4zJLZN9-4" style="edgeStyle=orthogonalEdgeStyle;rounded=0;orthogonalLoop=1;jettySize=auto;html=1;entryX=0;entryY=0.5;entryDx=0;entryDy=0;strokeColor=default;strokeWidth=1;align=center;verticalAlign=middle;fontFamily=Verdana;fontSize=8;fontColor=default;labelBackgroundColor=none;resizable=0;endArrow=classic;fillColor=none;gradientColor=none;exitX=1;exitY=0.5;exitDx=0;exitDy=0;exitPerimeter=0;" parent="1" source="U2He2lWpCIgEj4zJLZN9-5" target="U2He2lWpCIgEj4zJLZN9-22" edge="1">
          <mxGeometry relative="1" as="geometry" />
        </mxCell>
        <mxCell id="U2He2lWpCIgEj4zJLZN9-5" value="View: Einzelspieler" style="strokeWidth=1;html=1;shape=mxgraph.flowchart.start_2;whiteSpace=wrap;rounded=0;shadow=1;strokeColor=default;align=center;verticalAlign=middle;fontFamily=Verdana;fontSize=8;fontColor=default;labelBackgroundColor=none;fillColor=default;" parent="1" vertex="1">
          <mxGeometry x="40" y="3720" width="60" height="60" as="geometry" />
        </mxCell>
        <mxCell id="U2He2lWpCIgEj4zJLZN9-12" value="View: Einzelspieler - Neues Spiel" style="strokeWidth=1;html=1;shape=mxgraph.flowchart.terminator;whiteSpace=wrap;fontFamily=Verdana;fontSize=8;fontColor=default;labelBackgroundColor=none;resizable=0;rounded=0;shadow=1;strokeColor=default;align=center;verticalAlign=middle;fillColor=default;" parent="1" vertex="1">
          <mxGeometry x="710" y="3570" width="100" height="60" as="geometry" />
        </mxCell>
        <mxCell id="U2He2lWpCIgEj4zJLZN9-48" value="Neues Spiel &lt;br&gt;beginnen" style="edgeStyle=orthogonalEdgeStyle;rounded=0;orthogonalLoop=1;jettySize=auto;html=1;entryX=0;entryY=0.5;entryDx=0;entryDy=0;exitX=0.5;exitY=0;exitDx=0;exitDy=0;" parent="1" source="U2He2lWpCIgEj4zJLZN9-22" target="U2He2lWpCIgEj4zJLZN9-29" edge="1">
          <mxGeometry x="-0.5789" y="45" relative="1" as="geometry">
            <mxPoint as="offset" />
          </mxGeometry>
        </mxCell>
        <mxCell id="U2He2lWpCIgEj4zJLZN9-51" value="Bereits begonnenes &lt;br&gt;Spiel fortsetzen" style="edgeStyle=orthogonalEdgeStyle;rounded=0;orthogonalLoop=1;jettySize=auto;html=1;entryX=0;entryY=0.5;entryDx=0;entryDy=0;" parent="1" source="U2He2lWpCIgEj4zJLZN9-22" target="U2He2lWpCIgEj4zJLZN9-49" edge="1">
          <mxGeometry x="-0.0435" y="20" relative="1" as="geometry">
            <mxPoint as="offset" />
          </mxGeometry>
        </mxCell>
        <mxCell id="U2He2lWpCIgEj4zJLZN9-52" value="Ergebnisse beendeter &lt;br&gt;Spiele ansehen" style="edgeStyle=orthogonalEdgeStyle;rounded=0;orthogonalLoop=1;jettySize=auto;html=1;entryX=0;entryY=0.5;entryDx=0;entryDy=0;exitX=0.5;exitY=1;exitDx=0;exitDy=0;" parent="1" source="U2He2lWpCIgEj4zJLZN9-22" target="U2He2lWpCIgEj4zJLZN9-50" edge="1">
          <mxGeometry x="-0.4386" y="-65" relative="1" as="geometry">
            <mxPoint as="offset" />
          </mxGeometry>
        </mxCell>
        <mxCell id="U2He2lWpCIgEj4zJLZN9-22" value="Absicht" style="rhombus;whiteSpace=wrap;html=1;rounded=0;shadow=1;labelBackgroundColor=none;strokeWidth=1;fontFamily=Verdana;fontSize=8;align=center;" parent="1" vertex="1">
          <mxGeometry x="225" y="3720" width="100" height="60" as="geometry" />
        </mxCell>
        <mxCell id="gsS1fA5JRazUs8m1g76S-1" style="edgeStyle=orthogonalEdgeStyle;rounded=0;orthogonalLoop=1;jettySize=auto;html=1;" parent="1" source="U2He2lWpCIgEj4zJLZN9-29" target="U2He2lWpCIgEj4zJLZN9-12" edge="1">
          <mxGeometry relative="1" as="geometry" />
        </mxCell>
        <mxCell id="U2He2lWpCIgEj4zJLZN9-29" value="Neues Spiel" style="whiteSpace=wrap;html=1;rounded=0;shadow=1;labelBackgroundColor=none;strokeWidth=1;fontFamily=Verdana;fontSize=8;align=center;" parent="1" vertex="1">
          <mxGeometry x="440" y="3580" width="120" height="40" as="geometry" />
        </mxCell>
        <mxCell id="gsS1fA5JRazUs8m1g76S-3" style="edgeStyle=orthogonalEdgeStyle;rounded=0;orthogonalLoop=1;jettySize=auto;html=1;" parent="1" source="U2He2lWpCIgEj4zJLZN9-49" target="gsS1fA5JRazUs8m1g76S-2" edge="1">
          <mxGeometry relative="1" as="geometry" />
        </mxCell>
        <mxCell id="U2He2lWpCIgEj4zJLZN9-49" value="Spiel Fortsetzen" style="whiteSpace=wrap;html=1;rounded=0;shadow=1;labelBackgroundColor=none;strokeWidth=1;fontFamily=Verdana;fontSize=8;align=center;" parent="1" vertex="1">
          <mxGeometry x="440" y="3730" width="120" height="40" as="geometry" />
        </mxCell>
        <mxCell id="U2He2lWpCIgEj4zJLZN9-50" value="Historie" style="whiteSpace=wrap;html=1;rounded=0;shadow=1;labelBackgroundColor=none;strokeWidth=1;fontFamily=Verdana;fontSize=8;align=center;" parent="1" vertex="1">
          <mxGeometry x="440" y="3880" width="120" height="40" as="geometry" />
        </mxCell>
        <mxCell id="gsS1fA5JRazUs8m1g76S-2" value="View: Einzelspieler - Spiel fortsetzen" style="strokeWidth=1;html=1;shape=mxgraph.flowchart.terminator;whiteSpace=wrap;fontFamily=Verdana;fontSize=8;fontColor=default;labelBackgroundColor=none;resizable=0;rounded=0;shadow=1;strokeColor=default;align=center;verticalAlign=middle;fillColor=default;" parent="1" vertex="1">
          <mxGeometry x="710" y="3720" width="100" height="60" as="geometry" />
        </mxCell>
        <mxCell id="gsS1fA5JRazUs8m1g76S-4" value="View: Einzelspieler - Historie" style="strokeWidth=1;html=1;shape=mxgraph.flowchart.terminator;whiteSpace=wrap;fontFamily=Verdana;fontSize=8;fontColor=default;labelBackgroundColor=none;resizable=0;rounded=0;shadow=1;strokeColor=default;align=center;verticalAlign=middle;fillColor=default;" parent="1" vertex="1">
          <mxGeometry x="710" y="3870" width="100" height="60" as="geometry" />
        </mxCell>
        <mxCell id="gsS1fA5JRazUs8m1g76S-5" style="edgeStyle=orthogonalEdgeStyle;rounded=0;orthogonalLoop=1;jettySize=auto;html=1;entryX=0;entryY=0.5;entryDx=0;entryDy=0;entryPerimeter=0;" parent="1" source="U2He2lWpCIgEj4zJLZN9-50" target="gsS1fA5JRazUs8m1g76S-4" edge="1">
          <mxGeometry relative="1" as="geometry" />
        </mxCell>
        <mxCell id="gsS1fA5JRazUs8m1g76S-6" value="&lt;pre&gt;&lt;span style=&quot;font-family: Helvetica; white-space: normal;&quot;&gt;&lt;font style=&quot;font-size: 15px;&quot;&gt;UF8 - Einzelspieler - Spiel starten&lt;/font&gt;&lt;/span&gt;&lt;/pre&gt;" style="text;whiteSpace=wrap;html=1;strokeColor=default;verticalAlign=middle;spacing=2;labelPosition=center;verticalLabelPosition=middle;align=center;" parent="1" vertex="1">
          <mxGeometry x="10" y="4260" width="210" height="60" as="geometry" />
        </mxCell>
        <mxCell id="gsS1fA5JRazUs8m1g76S-7" value="Flow für die Auswahl eines Quizpools und dem starten eines Einzelspieler Quiz&#39;" style="text;html=1;align=center;verticalAlign=middle;whiteSpace=wrap;rounded=0;strokeColor=default;fontSize=9;" parent="1" vertex="1">
          <mxGeometry x="230" y="4260" width="420" height="60" as="geometry" />
        </mxCell>
        <mxCell id="gsS1fA5JRazUs8m1g76S-8" value="Views:&lt;div style=&quot;font-size: 8px;&quot;&gt;&lt;ul style=&quot;font-size: 8px;&quot;&gt;&lt;li style=&quot;font-size: 8px;&quot;&gt;Einzelspieler - Neues Spiel&lt;/li&gt;&lt;/ul&gt;&lt;/div&gt;" style="text;html=1;align=left;verticalAlign=top;whiteSpace=wrap;rounded=0;textShadow=0;strokeColor=default;fontSize=8;" parent="1" vertex="1">
          <mxGeometry x="670" y="4260" width="420" height="60" as="geometry" />
        </mxCell>
        <mxCell id="gsS1fA5JRazUs8m1g76S-9" style="edgeStyle=orthogonalEdgeStyle;rounded=0;orthogonalLoop=1;jettySize=auto;html=1;entryX=0;entryY=0.5;entryDx=0;entryDy=0;strokeColor=default;strokeWidth=1;align=center;verticalAlign=middle;fontFamily=Verdana;fontSize=8;fontColor=default;labelBackgroundColor=none;resizable=0;endArrow=classic;fillColor=none;gradientColor=none;exitX=1;exitY=0.5;exitDx=0;exitDy=0;exitPerimeter=0;" parent="1" source="gsS1fA5JRazUs8m1g76S-10" target="gsS1fA5JRazUs8m1g76S-17" edge="1">
          <mxGeometry relative="1" as="geometry">
            <mxPoint x="225" y="4600" as="targetPoint" />
          </mxGeometry>
        </mxCell>
        <mxCell id="gsS1fA5JRazUs8m1g76S-10" value="View: Einzelspieler - Neues Spiel" style="strokeWidth=1;html=1;shape=mxgraph.flowchart.start_2;whiteSpace=wrap;rounded=0;shadow=1;strokeColor=default;align=center;verticalAlign=middle;fontFamily=Verdana;fontSize=8;fontColor=default;labelBackgroundColor=none;fillColor=default;" parent="1" vertex="1">
          <mxGeometry x="40" y="4570" width="60" height="60" as="geometry" />
        </mxCell>
        <mxCell id="gsS1fA5JRazUs8m1g76S-24" style="edgeStyle=orthogonalEdgeStyle;rounded=0;orthogonalLoop=1;jettySize=auto;html=1;entryX=0;entryY=0.5;entryDx=0;entryDy=0;" parent="1" source="gsS1fA5JRazUs8m1g76S-17" target="gsS1fA5JRazUs8m1g76S-19" edge="1">
          <mxGeometry relative="1" as="geometry" />
        </mxCell>
        <mxCell id="gsS1fA5JRazUs8m1g76S-17" value="Klick [Pool x] um ein Quizpool für das Spiel auszuwählen" style="whiteSpace=wrap;html=1;rounded=0;shadow=1;labelBackgroundColor=none;strokeWidth=1;fontFamily=Verdana;fontSize=8;align=center;" parent="1" vertex="1">
          <mxGeometry x="200" y="4580" width="120" height="40" as="geometry" />
        </mxCell>
        <mxCell id="gsS1fA5JRazUs8m1g76S-18" style="edgeStyle=orthogonalEdgeStyle;rounded=0;orthogonalLoop=1;jettySize=auto;html=1;entryX=0;entryY=0.5;entryDx=0;entryDy=0;" parent="1" source="gsS1fA5JRazUs8m1g76S-19" target="gsS1fA5JRazUs8m1g76S-25" edge="1">
          <mxGeometry relative="1" as="geometry" />
        </mxCell>
        <mxCell id="gsS1fA5JRazUs8m1g76S-19" value="Anzeige der enthaltenen Fragen" style="whiteSpace=wrap;html=1;rounded=0;shadow=1;labelBackgroundColor=none;strokeWidth=1;fontFamily=Verdana;fontSize=8;align=center;" parent="1" vertex="1">
          <mxGeometry x="420" y="4580" width="120" height="40" as="geometry" />
        </mxCell>
        <mxCell id="gsS1fA5JRazUs8m1g76S-21" value="View: Einzelspieler - Spiel" style="strokeWidth=1;html=1;shape=mxgraph.flowchart.terminator;whiteSpace=wrap;fontFamily=Verdana;fontSize=8;fontColor=default;labelBackgroundColor=none;resizable=0;rounded=0;shadow=1;strokeColor=default;align=center;verticalAlign=middle;fillColor=default;" parent="1" vertex="1">
          <mxGeometry x="860" y="4570" width="100" height="60" as="geometry" />
        </mxCell>
        <mxCell id="gsS1fA5JRazUs8m1g76S-26" style="edgeStyle=orthogonalEdgeStyle;rounded=0;orthogonalLoop=1;jettySize=auto;html=1;" parent="1" source="gsS1fA5JRazUs8m1g76S-25" target="gsS1fA5JRazUs8m1g76S-21" edge="1">
          <mxGeometry relative="1" as="geometry" />
        </mxCell>
        <mxCell id="gsS1fA5JRazUs8m1g76S-25" value="Klick [Spiel beginnen] um das Spiel zu beginnen" style="whiteSpace=wrap;html=1;rounded=0;shadow=1;labelBackgroundColor=none;strokeWidth=1;fontFamily=Verdana;fontSize=8;align=center;" parent="1" vertex="1">
          <mxGeometry x="640" y="4580" width="120" height="40" as="geometry" />
        </mxCell>
        <mxCell id="gsS1fA5JRazUs8m1g76S-27" value="&lt;pre&gt;&lt;span style=&quot;font-family: Helvetica; white-space: normal;&quot;&gt;&lt;font style=&quot;font-size: 15px;&quot;&gt;UF9 - Einzelspieler - Spielen&lt;/font&gt;&lt;/span&gt;&lt;/pre&gt;" style="text;whiteSpace=wrap;html=1;strokeColor=default;verticalAlign=middle;spacing=2;labelPosition=center;verticalLabelPosition=middle;align=center;" parent="1" vertex="1">
          <mxGeometry x="10" y="5110" width="210" height="60" as="geometry" />
        </mxCell>
        <mxCell id="gsS1fA5JRazUs8m1g76S-28" value="Spielablauf" style="text;html=1;align=center;verticalAlign=middle;whiteSpace=wrap;rounded=0;strokeColor=default;fontSize=9;" parent="1" vertex="1">
          <mxGeometry x="230" y="5110" width="420" height="60" as="geometry" />
        </mxCell>
        <mxCell id="gsS1fA5JRazUs8m1g76S-29" value="Views:&lt;div style=&quot;font-size: 8px;&quot;&gt;&lt;ul style=&quot;font-size: 8px;&quot;&gt;&lt;li style=&quot;font-size: 8px;&quot;&gt;Einzelspieler - Spiel 1&lt;/li&gt;&lt;li&gt;Einzelspieler - Spiel 2&lt;/li&gt;&lt;li&gt;Einzelspieler - Spiel 3&lt;/li&gt;&lt;/ul&gt;&lt;/div&gt;" style="text;html=1;align=left;verticalAlign=top;whiteSpace=wrap;rounded=0;textShadow=0;strokeColor=default;fontSize=8;" parent="1" vertex="1">
          <mxGeometry x="670" y="5110" width="420" height="60" as="geometry" />
        </mxCell>
        <mxCell id="gsS1fA5JRazUs8m1g76S-30" style="edgeStyle=orthogonalEdgeStyle;rounded=0;orthogonalLoop=1;jettySize=auto;html=1;entryX=0;entryY=0.5;entryDx=0;entryDy=0;strokeColor=default;strokeWidth=1;align=center;verticalAlign=middle;fontFamily=Verdana;fontSize=8;fontColor=default;labelBackgroundColor=none;resizable=0;endArrow=classic;fillColor=none;gradientColor=none;exitX=0.5;exitY=1;exitDx=0;exitDy=0;exitPerimeter=0;" parent="1" source="gsS1fA5JRazUs8m1g76S-31" target="gsS1fA5JRazUs8m1g76S-36" edge="1">
          <mxGeometry relative="1" as="geometry" />
        </mxCell>
        <mxCell id="gsS1fA5JRazUs8m1g76S-31" value="View: Einzelspieler - Spielen 1" style="strokeWidth=1;html=1;shape=mxgraph.flowchart.start_2;whiteSpace=wrap;rounded=0;shadow=1;strokeColor=default;align=center;verticalAlign=middle;fontFamily=Verdana;fontSize=8;fontColor=default;labelBackgroundColor=none;fillColor=default;" parent="1" vertex="1">
          <mxGeometry x="10" y="5300" width="60" height="60" as="geometry" />
        </mxCell>
        <mxCell id="TzAisHHy71uOScexlLsO-9" style="edgeStyle=orthogonalEdgeStyle;rounded=0;orthogonalLoop=1;jettySize=auto;html=1;entryX=0;entryY=0.5;entryDx=0;entryDy=0;exitX=0.5;exitY=1;exitDx=0;exitDy=0;exitPerimeter=0;" parent="1" source="gsS1fA5JRazUs8m1g76S-32" target="TzAisHHy71uOScexlLsO-8" edge="1">
          <mxGeometry relative="1" as="geometry" />
        </mxCell>
        <mxCell id="gsS1fA5JRazUs8m1g76S-32" value="View: Einzelspieler - Spiel 2" style="strokeWidth=1;html=1;shape=mxgraph.flowchart.terminator;whiteSpace=wrap;fontFamily=Verdana;fontSize=8;fontColor=default;labelBackgroundColor=none;resizable=0;rounded=0;shadow=1;strokeColor=default;align=center;verticalAlign=middle;fillColor=default;" parent="1" vertex="1">
          <mxGeometry x="255" y="5330" width="100" height="60" as="geometry" />
        </mxCell>
        <mxCell id="gsS1fA5JRazUs8m1g76S-33" value="Frage &lt;br&gt;beantworten" style="edgeStyle=orthogonalEdgeStyle;rounded=0;orthogonalLoop=1;jettySize=auto;html=1;entryX=0;entryY=0.5;entryDx=0;entryDy=0;exitX=0.5;exitY=0;exitDx=0;exitDy=0;" parent="1" source="gsS1fA5JRazUs8m1g76S-36" target="gsS1fA5JRazUs8m1g76S-38" edge="1">
          <mxGeometry x="-0.8203" y="60" relative="1" as="geometry">
            <mxPoint as="offset" />
          </mxGeometry>
        </mxCell>
        <mxCell id="gsS1fA5JRazUs8m1g76S-35" value="Navigation zwischen &lt;br&gt;den Fragen" style="edgeStyle=orthogonalEdgeStyle;rounded=0;orthogonalLoop=1;jettySize=auto;html=1;entryX=0;entryY=0.5;entryDx=0;entryDy=0;exitX=0.5;exitY=1;exitDx=0;exitDy=0;entryPerimeter=0;" parent="1" source="gsS1fA5JRazUs8m1g76S-36" target="TzAisHHy71uOScexlLsO-23" edge="1">
          <mxGeometry x="-0.6666" y="-70" relative="1" as="geometry">
            <mxPoint as="offset" />
          </mxGeometry>
        </mxCell>
        <mxCell id="gsS1fA5JRazUs8m1g76S-36" value="Absicht" style="rhombus;whiteSpace=wrap;html=1;rounded=0;shadow=1;labelBackgroundColor=none;strokeWidth=1;fontFamily=Verdana;fontSize=8;align=center;" parent="1" vertex="1">
          <mxGeometry x="110" y="5490" width="100" height="60" as="geometry" />
        </mxCell>
        <mxCell id="TzAisHHy71uOScexlLsO-4" style="edgeStyle=orthogonalEdgeStyle;rounded=0;orthogonalLoop=1;jettySize=auto;html=1;entryX=0;entryY=0.5;entryDx=0;entryDy=0;" parent="1" source="gsS1fA5JRazUs8m1g76S-38" target="TzAisHHy71uOScexlLsO-3" edge="1">
          <mxGeometry relative="1" as="geometry" />
        </mxCell>
        <mxCell id="gsS1fA5JRazUs8m1g76S-38" value="Anyeige Frage x mit den jeweiligen Antworten" style="whiteSpace=wrap;html=1;rounded=0;shadow=1;labelBackgroundColor=none;strokeWidth=1;fontFamily=Verdana;fontSize=8;align=center;" parent="1" vertex="1">
          <mxGeometry x="185" y="5220" width="120" height="40" as="geometry" />
        </mxCell>
        <mxCell id="TzAisHHy71uOScexlLsO-32" style="edgeStyle=orthogonalEdgeStyle;rounded=0;orthogonalLoop=1;jettySize=auto;html=1;entryX=0;entryY=0.5;entryDx=0;entryDy=0;" parent="1" source="gsS1fA5JRazUs8m1g76S-41" target="TzAisHHy71uOScexlLsO-30" edge="1">
          <mxGeometry relative="1" as="geometry" />
        </mxCell>
        <mxCell id="gsS1fA5JRazUs8m1g76S-41" value="Klick [Zurück]" style="whiteSpace=wrap;html=1;rounded=0;shadow=1;labelBackgroundColor=none;strokeWidth=1;fontFamily=Verdana;fontSize=8;align=center;" parent="1" vertex="1">
          <mxGeometry x="355" y="5670" width="120" height="40" as="geometry" />
        </mxCell>
        <mxCell id="gsS1fA5JRazUs8m1g76S-43" value="View: Einzelspieler - Spielen 1" style="strokeWidth=1;html=1;shape=mxgraph.flowchart.terminator;whiteSpace=wrap;fontFamily=Verdana;fontSize=8;fontColor=default;labelBackgroundColor=none;resizable=0;rounded=0;shadow=1;strokeColor=default;align=center;verticalAlign=middle;fillColor=default;" parent="1" vertex="1">
          <mxGeometry x="920" y="5710" width="100" height="60" as="geometry" />
        </mxCell>
        <mxCell id="TzAisHHy71uOScexlLsO-10" style="edgeStyle=orthogonalEdgeStyle;rounded=0;orthogonalLoop=1;jettySize=auto;html=1;entryX=0;entryY=0.5;entryDx=0;entryDy=0;" parent="1" source="TzAisHHy71uOScexlLsO-3" target="TzAisHHy71uOScexlLsO-5" edge="1">
          <mxGeometry relative="1" as="geometry" />
        </mxCell>
        <mxCell id="TzAisHHy71uOScexlLsO-3" value="Klick [Antwort x], um Antworten für die Auswertung auszuwählen" style="whiteSpace=wrap;html=1;rounded=0;shadow=1;labelBackgroundColor=none;strokeWidth=1;fontFamily=Verdana;fontSize=8;align=center;" parent="1" vertex="1">
          <mxGeometry x="355" y="5220" width="120" height="40" as="geometry" />
        </mxCell>
        <mxCell id="TzAisHHy71uOScexlLsO-11" style="edgeStyle=orthogonalEdgeStyle;rounded=0;orthogonalLoop=1;jettySize=auto;html=1;" parent="1" source="TzAisHHy71uOScexlLsO-5" target="TzAisHHy71uOScexlLsO-6" edge="1">
          <mxGeometry relative="1" as="geometry" />
        </mxCell>
        <mxCell id="TzAisHHy71uOScexlLsO-5" value="Klick [Auswertung]" style="whiteSpace=wrap;html=1;rounded=0;shadow=1;labelBackgroundColor=none;strokeWidth=1;fontFamily=Verdana;fontSize=8;align=center;" parent="1" vertex="1">
          <mxGeometry x="525" y="5220" width="120" height="40" as="geometry" />
        </mxCell>
        <mxCell id="TzAisHHy71uOScexlLsO-7" style="edgeStyle=orthogonalEdgeStyle;rounded=0;orthogonalLoop=1;jettySize=auto;html=1;entryX=0.5;entryY=0;entryDx=0;entryDy=0;entryPerimeter=0;exitX=0.5;exitY=1;exitDx=0;exitDy=0;" parent="1" source="mWb17q_ndCCdATJxdYXX-1" target="gsS1fA5JRazUs8m1g76S-32" edge="1">
          <mxGeometry relative="1" as="geometry">
            <Array as="points">
              <mxPoint x="930" y="5300" />
              <mxPoint x="300" y="5300" />
            </Array>
          </mxGeometry>
        </mxCell>
        <mxCell id="mWb17q_ndCCdATJxdYXX-2" style="edgeStyle=orthogonalEdgeStyle;rounded=0;orthogonalLoop=1;jettySize=auto;html=1;entryX=0;entryY=0.5;entryDx=0;entryDy=0;" edge="1" parent="1" source="TzAisHHy71uOScexlLsO-6" target="mWb17q_ndCCdATJxdYXX-1">
          <mxGeometry relative="1" as="geometry" />
        </mxCell>
        <mxCell id="TzAisHHy71uOScexlLsO-6" value="Anzeige richtiger/falscher Antworten" style="whiteSpace=wrap;html=1;rounded=0;shadow=1;labelBackgroundColor=none;strokeWidth=1;fontFamily=Verdana;fontSize=8;align=center;" parent="1" vertex="1">
          <mxGeometry x="695" y="5220" width="120" height="40" as="geometry" />
        </mxCell>
        <mxCell id="TzAisHHy71uOScexlLsO-20" value="Spiel &lt;br&gt;beenden" style="edgeStyle=orthogonalEdgeStyle;rounded=0;orthogonalLoop=1;jettySize=auto;html=1;entryX=0;entryY=0.5;entryDx=0;entryDy=0;" parent="1" source="TzAisHHy71uOScexlLsO-8" target="mWb17q_ndCCdATJxdYXX-3" edge="1">
          <mxGeometry x="-0.2308" y="30" relative="1" as="geometry">
            <mxPoint as="offset" />
          </mxGeometry>
        </mxCell>
        <mxCell id="TzAisHHy71uOScexlLsO-8" value="Absicht" style="rhombus;whiteSpace=wrap;html=1;rounded=0;shadow=1;labelBackgroundColor=none;strokeWidth=1;fontFamily=Verdana;fontSize=8;align=center;" parent="1" vertex="1">
          <mxGeometry x="355" y="5490" width="100" height="60" as="geometry" />
        </mxCell>
        <mxCell id="TzAisHHy71uOScexlLsO-19" value="Klick [Spiel beenden]" style="whiteSpace=wrap;html=1;rounded=0;shadow=1;labelBackgroundColor=none;strokeWidth=1;fontFamily=Verdana;fontSize=8;align=center;" parent="1" vertex="1">
          <mxGeometry x="690" y="5505" width="120" height="30" as="geometry" />
        </mxCell>
        <mxCell id="TzAisHHy71uOScexlLsO-21" value="View: Einzelspieler - Ergebnis" style="strokeWidth=1;html=1;shape=mxgraph.flowchart.terminator;whiteSpace=wrap;fontFamily=Verdana;fontSize=8;fontColor=default;labelBackgroundColor=none;resizable=0;rounded=0;shadow=1;strokeColor=default;align=center;verticalAlign=middle;fillColor=default;" parent="1" vertex="1">
          <mxGeometry x="860" y="5490" width="100" height="60" as="geometry" />
        </mxCell>
        <mxCell id="TzAisHHy71uOScexlLsO-22" style="edgeStyle=orthogonalEdgeStyle;rounded=0;orthogonalLoop=1;jettySize=auto;html=1;entryX=0;entryY=0.5;entryDx=0;entryDy=0;entryPerimeter=0;" parent="1" source="TzAisHHy71uOScexlLsO-19" target="TzAisHHy71uOScexlLsO-21" edge="1">
          <mxGeometry relative="1" as="geometry" />
        </mxCell>
        <mxCell id="TzAisHHy71uOScexlLsO-26" style="edgeStyle=orthogonalEdgeStyle;rounded=0;orthogonalLoop=1;jettySize=auto;html=1;entryX=0;entryY=0.5;entryDx=0;entryDy=0;" parent="1" source="TzAisHHy71uOScexlLsO-23" target="TzAisHHy71uOScexlLsO-25" edge="1">
          <mxGeometry relative="1" as="geometry">
            <mxPoint x="340" y="5760" as="targetPoint" />
            <Array as="points">
              <mxPoint x="260" y="5790" />
            </Array>
          </mxGeometry>
        </mxCell>
        <mxCell id="TzAisHHy71uOScexlLsO-27" style="edgeStyle=orthogonalEdgeStyle;rounded=0;orthogonalLoop=1;jettySize=auto;html=1;entryX=0;entryY=0.5;entryDx=0;entryDy=0;" parent="1" source="TzAisHHy71uOScexlLsO-23" target="gsS1fA5JRazUs8m1g76S-41" edge="1">
          <mxGeometry relative="1" as="geometry">
            <Array as="points">
              <mxPoint x="260" y="5690" />
            </Array>
          </mxGeometry>
        </mxCell>
        <mxCell id="TzAisHHy71uOScexlLsO-23" value="" style="verticalLabelPosition=bottom;verticalAlign=top;html=1;shape=mxgraph.flowchart.or;" parent="1" vertex="1">
          <mxGeometry x="255" y="5630" width="10" height="10" as="geometry" />
        </mxCell>
        <mxCell id="TzAisHHy71uOScexlLsO-38" style="edgeStyle=orthogonalEdgeStyle;rounded=0;orthogonalLoop=1;jettySize=auto;html=1;entryX=0;entryY=0.5;entryDx=0;entryDy=0;" parent="1" source="TzAisHHy71uOScexlLsO-25" target="TzAisHHy71uOScexlLsO-37" edge="1">
          <mxGeometry relative="1" as="geometry" />
        </mxCell>
        <mxCell id="TzAisHHy71uOScexlLsO-25" value="Klick [Weiter]" style="whiteSpace=wrap;html=1;rounded=0;shadow=1;labelBackgroundColor=none;strokeWidth=1;fontFamily=Verdana;fontSize=8;align=center;" parent="1" vertex="1">
          <mxGeometry x="355" y="5770" width="120" height="40" as="geometry" />
        </mxCell>
        <mxCell id="TzAisHHy71uOScexlLsO-28" style="edgeStyle=orthogonalEdgeStyle;rounded=0;orthogonalLoop=1;jettySize=auto;html=1;entryX=1;entryY=0.5;entryDx=0;entryDy=0;entryPerimeter=0;" parent="1" source="TzAisHHy71uOScexlLsO-8" target="TzAisHHy71uOScexlLsO-23" edge="1">
          <mxGeometry relative="1" as="geometry">
            <Array as="points">
              <mxPoint x="405" y="5635" />
            </Array>
          </mxGeometry>
        </mxCell>
        <mxCell id="TzAisHHy71uOScexlLsO-29" value="Navigation zwischen&lt;br&gt;den Fragen" style="edgeLabel;html=1;align=center;verticalAlign=middle;resizable=0;points=[];" parent="TzAisHHy71uOScexlLsO-28" vertex="1" connectable="0">
          <mxGeometry x="-0.6658" y="2" relative="1" as="geometry">
            <mxPoint x="-57" y="-8" as="offset" />
          </mxGeometry>
        </mxCell>
        <mxCell id="TzAisHHy71uOScexlLsO-30" value="Anzeige vorherige Frage" style="whiteSpace=wrap;html=1;rounded=0;shadow=1;labelBackgroundColor=none;strokeWidth=1;fontFamily=Verdana;fontSize=8;align=center;" parent="1" vertex="1">
          <mxGeometry x="520" y="5670" width="120" height="40" as="geometry" />
        </mxCell>
        <mxCell id="TzAisHHy71uOScexlLsO-31" value="Anzeige nachfolgender Frage" style="whiteSpace=wrap;html=1;rounded=0;shadow=1;labelBackgroundColor=none;strokeWidth=1;fontFamily=Verdana;fontSize=8;align=center;" parent="1" vertex="1">
          <mxGeometry x="680" y="5770" width="120" height="40" as="geometry" />
        </mxCell>
        <mxCell id="TzAisHHy71uOScexlLsO-36" value="" style="verticalLabelPosition=bottom;verticalAlign=top;html=1;shape=mxgraph.flowchart.or;" parent="1" vertex="1">
          <mxGeometry x="840" y="5735" width="10" height="10" as="geometry" />
        </mxCell>
        <mxCell id="TzAisHHy71uOScexlLsO-39" style="edgeStyle=orthogonalEdgeStyle;rounded=0;orthogonalLoop=1;jettySize=auto;html=1;entryX=0;entryY=0.5;entryDx=0;entryDy=0;" parent="1" source="TzAisHHy71uOScexlLsO-37" target="TzAisHHy71uOScexlLsO-31" edge="1">
          <mxGeometry relative="1" as="geometry" />
        </mxCell>
        <mxCell id="TzAisHHy71uOScexlLsO-40" value="Nein" style="edgeLabel;html=1;align=center;verticalAlign=middle;resizable=0;points=[];" parent="TzAisHHy71uOScexlLsO-39" vertex="1" connectable="0">
          <mxGeometry x="-0.2381" y="-1" relative="1" as="geometry">
            <mxPoint x="2" y="-11" as="offset" />
          </mxGeometry>
        </mxCell>
        <mxCell id="TzAisHHy71uOScexlLsO-37" value="Letze Frage?" style="rhombus;whiteSpace=wrap;html=1;rounded=0;shadow=1;labelBackgroundColor=none;strokeWidth=1;fontFamily=Verdana;fontSize=8;align=center;" parent="1" vertex="1">
          <mxGeometry x="520" y="5760" width="100" height="60" as="geometry" />
        </mxCell>
        <mxCell id="TzAisHHy71uOScexlLsO-41" style="edgeStyle=orthogonalEdgeStyle;rounded=0;orthogonalLoop=1;jettySize=auto;html=1;entryX=0.5;entryY=0;entryDx=0;entryDy=0;entryPerimeter=0;" parent="1" source="TzAisHHy71uOScexlLsO-30" target="TzAisHHy71uOScexlLsO-36" edge="1">
          <mxGeometry relative="1" as="geometry" />
        </mxCell>
        <mxCell id="TzAisHHy71uOScexlLsO-42" style="edgeStyle=orthogonalEdgeStyle;rounded=0;orthogonalLoop=1;jettySize=auto;html=1;entryX=0.5;entryY=1;entryDx=0;entryDy=0;entryPerimeter=0;" parent="1" source="TzAisHHy71uOScexlLsO-31" target="TzAisHHy71uOScexlLsO-36" edge="1">
          <mxGeometry relative="1" as="geometry" />
        </mxCell>
        <mxCell id="TzAisHHy71uOScexlLsO-43" style="edgeStyle=orthogonalEdgeStyle;rounded=0;orthogonalLoop=1;jettySize=auto;html=1;entryX=0;entryY=0.5;entryDx=0;entryDy=0;entryPerimeter=0;" parent="1" source="TzAisHHy71uOScexlLsO-36" target="gsS1fA5JRazUs8m1g76S-43" edge="1">
          <mxGeometry relative="1" as="geometry" />
        </mxCell>
        <mxCell id="TzAisHHy71uOScexlLsO-44" value="View: Einzelspieler - Ergebnis" style="strokeWidth=1;html=1;shape=mxgraph.flowchart.terminator;whiteSpace=wrap;fontFamily=Verdana;fontSize=8;fontColor=default;labelBackgroundColor=none;resizable=0;rounded=0;shadow=1;strokeColor=default;align=center;verticalAlign=middle;fillColor=default;" parent="1" vertex="1">
          <mxGeometry x="760" y="5850" width="100" height="60" as="geometry" />
        </mxCell>
        <mxCell id="TzAisHHy71uOScexlLsO-45" value="Ja" style="edgeStyle=orthogonalEdgeStyle;rounded=0;orthogonalLoop=1;jettySize=auto;html=1;entryX=0;entryY=0.5;entryDx=0;entryDy=0;entryPerimeter=0;" parent="1" source="TzAisHHy71uOScexlLsO-37" target="TzAisHHy71uOScexlLsO-44" edge="1">
          <mxGeometry x="-0.84" y="10" relative="1" as="geometry">
            <Array as="points">
              <mxPoint x="570" y="5880" />
            </Array>
            <mxPoint as="offset" />
          </mxGeometry>
        </mxCell>
        <mxCell id="TzAisHHy71uOScexlLsO-46" value="&lt;pre&gt;&lt;span style=&quot;font-family: Helvetica; white-space: normal;&quot;&gt;&lt;font style=&quot;font-size: 15px;&quot;&gt;UF10 - Einzelspieler - Spiel fortsetzen&lt;/font&gt;&lt;/span&gt;&lt;/pre&gt;" style="text;whiteSpace=wrap;html=1;strokeColor=default;verticalAlign=middle;spacing=2;labelPosition=center;verticalLabelPosition=middle;align=center;" parent="1" vertex="1">
          <mxGeometry x="10" y="5960" width="210" height="60" as="geometry" />
        </mxCell>
        <mxCell id="TzAisHHy71uOScexlLsO-47" value="Flow für die Auswahl eines begonnenen Spiels zum Fortsetzen des Quiz&#39;" style="text;html=1;align=center;verticalAlign=middle;whiteSpace=wrap;rounded=0;strokeColor=default;fontSize=9;" parent="1" vertex="1">
          <mxGeometry x="230" y="5960" width="420" height="60" as="geometry" />
        </mxCell>
        <mxCell id="TzAisHHy71uOScexlLsO-48" value="Views:&lt;div style=&quot;font-size: 8px;&quot;&gt;&lt;ul style=&quot;font-size: 8px;&quot;&gt;&lt;li style=&quot;font-size: 8px;&quot;&gt;Einzelspieler - Spiel fortsetzen&lt;/li&gt;&lt;/ul&gt;&lt;/div&gt;" style="text;html=1;align=left;verticalAlign=top;whiteSpace=wrap;rounded=0;textShadow=0;strokeColor=default;fontSize=8;" parent="1" vertex="1">
          <mxGeometry x="670" y="5960" width="420" height="60" as="geometry" />
        </mxCell>
        <mxCell id="TzAisHHy71uOScexlLsO-49" style="edgeStyle=orthogonalEdgeStyle;rounded=0;orthogonalLoop=1;jettySize=auto;html=1;entryX=0;entryY=0.5;entryDx=0;entryDy=0;strokeColor=default;strokeWidth=1;align=center;verticalAlign=middle;fontFamily=Verdana;fontSize=8;fontColor=default;labelBackgroundColor=none;resizable=0;endArrow=classic;fillColor=none;gradientColor=none;exitX=1;exitY=0.5;exitDx=0;exitDy=0;exitPerimeter=0;" parent="1" source="TzAisHHy71uOScexlLsO-50" target="TzAisHHy71uOScexlLsO-52" edge="1">
          <mxGeometry relative="1" as="geometry">
            <mxPoint x="225" y="6300" as="targetPoint" />
          </mxGeometry>
        </mxCell>
        <mxCell id="TzAisHHy71uOScexlLsO-50" value="View: Einzelspieler - Spiel fortsetzen" style="strokeWidth=1;html=1;shape=mxgraph.flowchart.start_2;whiteSpace=wrap;rounded=0;shadow=1;strokeColor=default;align=center;verticalAlign=middle;fontFamily=Verdana;fontSize=8;fontColor=default;labelBackgroundColor=none;fillColor=default;" parent="1" vertex="1">
          <mxGeometry x="40" y="6270" width="60" height="60" as="geometry" />
        </mxCell>
        <mxCell id="TzAisHHy71uOScexlLsO-51" style="edgeStyle=orthogonalEdgeStyle;rounded=0;orthogonalLoop=1;jettySize=auto;html=1;entryX=0;entryY=0.5;entryDx=0;entryDy=0;" parent="1" source="TzAisHHy71uOScexlLsO-52" target="TzAisHHy71uOScexlLsO-54" edge="1">
          <mxGeometry relative="1" as="geometry" />
        </mxCell>
        <mxCell id="TzAisHHy71uOScexlLsO-52" value="Klick [Pool x &amp;lt;Datum&amp;gt;] um ein angefangenes Spiel fortzusetzen" style="whiteSpace=wrap;html=1;rounded=0;shadow=1;labelBackgroundColor=none;strokeWidth=1;fontFamily=Verdana;fontSize=8;align=center;" parent="1" vertex="1">
          <mxGeometry x="200" y="6280" width="120" height="40" as="geometry" />
        </mxCell>
        <mxCell id="TzAisHHy71uOScexlLsO-53" style="edgeStyle=orthogonalEdgeStyle;rounded=0;orthogonalLoop=1;jettySize=auto;html=1;entryX=0;entryY=0.5;entryDx=0;entryDy=0;" parent="1" source="TzAisHHy71uOScexlLsO-54" target="TzAisHHy71uOScexlLsO-57" edge="1">
          <mxGeometry relative="1" as="geometry" />
        </mxCell>
        <mxCell id="TzAisHHy71uOScexlLsO-54" value="Anzeige der enthaltenen Fragen und Auswertungen" style="whiteSpace=wrap;html=1;rounded=0;shadow=1;labelBackgroundColor=none;strokeWidth=1;fontFamily=Verdana;fontSize=8;align=center;" parent="1" vertex="1">
          <mxGeometry x="420" y="6280" width="120" height="40" as="geometry" />
        </mxCell>
        <mxCell id="TzAisHHy71uOScexlLsO-55" value="View: Einzelspieler - Spiel 1" style="strokeWidth=1;html=1;shape=mxgraph.flowchart.terminator;whiteSpace=wrap;fontFamily=Verdana;fontSize=8;fontColor=default;labelBackgroundColor=none;resizable=0;rounded=0;shadow=1;strokeColor=default;align=center;verticalAlign=middle;fillColor=default;" parent="1" vertex="1">
          <mxGeometry x="860" y="6270" width="100" height="60" as="geometry" />
        </mxCell>
        <mxCell id="TzAisHHy71uOScexlLsO-56" style="edgeStyle=orthogonalEdgeStyle;rounded=0;orthogonalLoop=1;jettySize=auto;html=1;" parent="1" source="TzAisHHy71uOScexlLsO-57" target="TzAisHHy71uOScexlLsO-55" edge="1">
          <mxGeometry relative="1" as="geometry" />
        </mxCell>
        <mxCell id="TzAisHHy71uOScexlLsO-57" value="Klick [Spiel fortsetzen] um das Spiel zu beginnen" style="whiteSpace=wrap;html=1;rounded=0;shadow=1;labelBackgroundColor=none;strokeWidth=1;fontFamily=Verdana;fontSize=8;align=center;" parent="1" vertex="1">
          <mxGeometry x="640" y="6280" width="120" height="40" as="geometry" />
        </mxCell>
        <mxCell id="TzAisHHy71uOScexlLsO-58" value="&lt;pre&gt;&lt;span style=&quot;font-family: Helvetica; white-space: normal;&quot;&gt;&lt;font style=&quot;font-size: 15px;&quot;&gt;UF11 - Einzelspieler - Historie anzeigen&lt;/font&gt;&lt;/span&gt;&lt;/pre&gt;" style="text;whiteSpace=wrap;html=1;strokeColor=default;verticalAlign=middle;spacing=2;labelPosition=center;verticalLabelPosition=middle;align=center;" parent="1" vertex="1">
          <mxGeometry x="10" y="6810" width="210" height="60" as="geometry" />
        </mxCell>
        <mxCell id="TzAisHHy71uOScexlLsO-59" value="Flow zum Anzeigen der Ergebnisse abgeschlossener Vergangener Spiele." style="text;html=1;align=center;verticalAlign=middle;whiteSpace=wrap;rounded=0;strokeColor=default;fontSize=9;" parent="1" vertex="1">
          <mxGeometry x="230" y="6810" width="420" height="60" as="geometry" />
        </mxCell>
        <mxCell id="TzAisHHy71uOScexlLsO-60" value="Views:&lt;div style=&quot;font-size: 8px;&quot;&gt;&lt;ul style=&quot;font-size: 8px;&quot;&gt;&lt;li style=&quot;font-size: 8px;&quot;&gt;Einzelspieler - Historie&amp;nbsp;&lt;/li&gt;&lt;/ul&gt;&lt;/div&gt;" style="text;html=1;align=left;verticalAlign=top;whiteSpace=wrap;rounded=0;textShadow=0;strokeColor=default;fontSize=8;" parent="1" vertex="1">
          <mxGeometry x="670" y="6810" width="420" height="60" as="geometry" />
        </mxCell>
        <mxCell id="TzAisHHy71uOScexlLsO-61" style="edgeStyle=orthogonalEdgeStyle;rounded=0;orthogonalLoop=1;jettySize=auto;html=1;entryX=0;entryY=0.5;entryDx=0;entryDy=0;strokeColor=default;strokeWidth=1;align=center;verticalAlign=middle;fontFamily=Verdana;fontSize=8;fontColor=default;labelBackgroundColor=none;resizable=0;endArrow=classic;fillColor=none;gradientColor=none;exitX=1;exitY=0.5;exitDx=0;exitDy=0;exitPerimeter=0;" parent="1" source="TzAisHHy71uOScexlLsO-62" target="TzAisHHy71uOScexlLsO-64" edge="1">
          <mxGeometry relative="1" as="geometry">
            <mxPoint x="385" y="7150" as="targetPoint" />
          </mxGeometry>
        </mxCell>
        <mxCell id="TzAisHHy71uOScexlLsO-62" value="View: Einzelspieler - Historie" style="strokeWidth=1;html=1;shape=mxgraph.flowchart.start_2;whiteSpace=wrap;rounded=0;shadow=1;strokeColor=default;align=center;verticalAlign=middle;fontFamily=Verdana;fontSize=8;fontColor=default;labelBackgroundColor=none;fillColor=default;" parent="1" vertex="1">
          <mxGeometry x="200" y="7120" width="60" height="60" as="geometry" />
        </mxCell>
        <mxCell id="TzAisHHy71uOScexlLsO-63" style="edgeStyle=orthogonalEdgeStyle;rounded=0;orthogonalLoop=1;jettySize=auto;html=1;entryX=0;entryY=0.5;entryDx=0;entryDy=0;" parent="1" source="TzAisHHy71uOScexlLsO-64" target="TzAisHHy71uOScexlLsO-66" edge="1">
          <mxGeometry relative="1" as="geometry" />
        </mxCell>
        <mxCell id="TzAisHHy71uOScexlLsO-64" value="Klick [Pool x &amp;lt;Datum&amp;gt;]&amp;nbsp;" style="whiteSpace=wrap;html=1;rounded=0;shadow=1;labelBackgroundColor=none;strokeWidth=1;fontFamily=Verdana;fontSize=8;align=center;" parent="1" vertex="1">
          <mxGeometry x="360" y="7130" width="120" height="40" as="geometry" />
        </mxCell>
        <mxCell id="TzAisHHy71uOScexlLsO-65" style="edgeStyle=orthogonalEdgeStyle;rounded=0;orthogonalLoop=1;jettySize=auto;html=1;entryX=0;entryY=0.5;entryDx=0;entryDy=0;entryPerimeter=0;" parent="1" source="TzAisHHy71uOScexlLsO-66" target="TzAisHHy71uOScexlLsO-67" edge="1">
          <mxGeometry relative="1" as="geometry">
            <mxPoint x="800" y="7150" as="targetPoint" />
          </mxGeometry>
        </mxCell>
        <mxCell id="TzAisHHy71uOScexlLsO-66" value="Anzeige der Spielergebnisse" style="whiteSpace=wrap;html=1;rounded=0;shadow=1;labelBackgroundColor=none;strokeWidth=1;fontFamily=Verdana;fontSize=8;align=center;" parent="1" vertex="1">
          <mxGeometry x="580" y="7130" width="120" height="40" as="geometry" />
        </mxCell>
        <mxCell id="TzAisHHy71uOScexlLsO-67" value="View: Einzelspieler - Historie" style="strokeWidth=1;html=1;shape=mxgraph.flowchart.terminator;whiteSpace=wrap;fontFamily=Verdana;fontSize=8;fontColor=default;labelBackgroundColor=none;resizable=0;rounded=0;shadow=1;strokeColor=default;align=center;verticalAlign=middle;fillColor=default;" parent="1" vertex="1">
          <mxGeometry x="800" y="7120" width="100" height="60" as="geometry" />
        </mxCell>
        <mxCell id="mWb17q_ndCCdATJxdYXX-1" value="Anzeige der Erklärungen zu den Antworten" style="whiteSpace=wrap;html=1;rounded=0;shadow=1;labelBackgroundColor=none;strokeWidth=1;fontFamily=Verdana;fontSize=8;align=center;" vertex="1" parent="1">
          <mxGeometry x="870" y="5220" width="120" height="40" as="geometry" />
        </mxCell>
        <mxCell id="mWb17q_ndCCdATJxdYXX-4" style="edgeStyle=orthogonalEdgeStyle;rounded=0;orthogonalLoop=1;jettySize=auto;html=1;entryX=0;entryY=0.5;entryDx=0;entryDy=0;" edge="1" parent="1" source="mWb17q_ndCCdATJxdYXX-3" target="TzAisHHy71uOScexlLsO-19">
          <mxGeometry relative="1" as="geometry" />
        </mxCell>
        <mxCell id="mWb17q_ndCCdATJxdYXX-3" value="Verfügbar wenn alle Fragen ausgewertet wurden" style="whiteSpace=wrap;html=1;rounded=0;shadow=1;labelBackgroundColor=none;strokeWidth=1;fontFamily=Verdana;fontSize=8;align=center;" vertex="1" parent="1">
          <mxGeometry x="530" y="5505" width="120" height="30" as="geometry" />
        </mxCell>
      </root>
    </mxGraphModel>
  </diagram>
  <diagram id="HMOja6O70Mnkh-SDQdkN" name="Multiplayer">
    <mxGraphModel dx="2033" dy="-1222" grid="1" gridSize="10" guides="1" tooltips="1" connect="1" arrows="1" fold="1" page="1" pageScale="1" pageWidth="827" pageHeight="1169" math="0" shadow="0">
      <root>
        <mxCell id="0" />
        <mxCell id="1" parent="0" />
        <mxCell id="ZLEozxVGKBUG8KeO907A-1" value="&lt;pre&gt;&lt;span style=&quot;font-family: Helvetica; white-space: normal;&quot;&gt;&lt;font style=&quot;font-size: 15px;&quot;&gt;UF7 - Mehrspieler - Aktion wählen&lt;/font&gt;&lt;/span&gt;&lt;/pre&gt;" style="text;whiteSpace=wrap;html=1;strokeColor=default;verticalAlign=middle;spacing=2;labelPosition=center;verticalLabelPosition=middle;align=center;" vertex="1" parent="1">
          <mxGeometry y="2340" width="210" height="60" as="geometry" />
        </mxCell>
        <mxCell id="ZLEozxVGKBUG8KeO907A-2" value="Flow-Optionen im Menü für das Einzelspieler Quiz" style="text;html=1;align=center;verticalAlign=middle;whiteSpace=wrap;rounded=0;strokeColor=default;fontSize=9;" vertex="1" parent="1">
          <mxGeometry x="220" y="2340" width="420" height="60" as="geometry" />
        </mxCell>
        <mxCell id="ZLEozxVGKBUG8KeO907A-3" value="Views:&lt;div style=&quot;font-size: 8px;&quot;&gt;&lt;ul style=&quot;font-size: 8px;&quot;&gt;&lt;li style=&quot;font-size: 8px;&quot;&gt;Mehrspieler&lt;/li&gt;&lt;/ul&gt;&lt;/div&gt;" style="text;html=1;align=left;verticalAlign=top;whiteSpace=wrap;rounded=0;textShadow=0;strokeColor=default;fontSize=8;" vertex="1" parent="1">
          <mxGeometry x="660" y="2340" width="420" height="60" as="geometry" />
        </mxCell>
        <mxCell id="ZLEozxVGKBUG8KeO907A-4" style="edgeStyle=orthogonalEdgeStyle;rounded=0;orthogonalLoop=1;jettySize=auto;html=1;entryX=0;entryY=0.5;entryDx=0;entryDy=0;strokeColor=default;strokeWidth=1;align=center;verticalAlign=middle;fontFamily=Verdana;fontSize=8;fontColor=default;labelBackgroundColor=none;resizable=0;endArrow=classic;fillColor=none;gradientColor=none;exitX=1;exitY=0.5;exitDx=0;exitDy=0;exitPerimeter=0;" edge="1" parent="1" source="ZLEozxVGKBUG8KeO907A-5" target="ZLEozxVGKBUG8KeO907A-10">
          <mxGeometry relative="1" as="geometry" />
        </mxCell>
        <mxCell id="ZLEozxVGKBUG8KeO907A-5" value="View: Mehrspieler" style="strokeWidth=1;html=1;shape=mxgraph.flowchart.start_2;whiteSpace=wrap;rounded=0;shadow=1;strokeColor=default;align=center;verticalAlign=middle;fontFamily=Verdana;fontSize=8;fontColor=default;labelBackgroundColor=none;fillColor=default;" vertex="1" parent="1">
          <mxGeometry x="30" y="2650" width="60" height="60" as="geometry" />
        </mxCell>
        <mxCell id="ZLEozxVGKBUG8KeO907A-6" value="View: Mehrspieler - Neues Spiel" style="strokeWidth=1;html=1;shape=mxgraph.flowchart.terminator;whiteSpace=wrap;fontFamily=Verdana;fontSize=8;fontColor=default;labelBackgroundColor=none;resizable=0;rounded=0;shadow=1;strokeColor=default;align=center;verticalAlign=middle;fillColor=default;" vertex="1" parent="1">
          <mxGeometry x="700" y="2500" width="100" height="60" as="geometry" />
        </mxCell>
        <mxCell id="ZLEozxVGKBUG8KeO907A-7" value="Neues Spiel &lt;br&gt;beginnen" style="edgeStyle=orthogonalEdgeStyle;rounded=0;orthogonalLoop=1;jettySize=auto;html=1;entryX=0;entryY=0.5;entryDx=0;entryDy=0;exitX=0.5;exitY=0;exitDx=0;exitDy=0;" edge="1" parent="1" source="ZLEozxVGKBUG8KeO907A-10" target="ZLEozxVGKBUG8KeO907A-12">
          <mxGeometry x="-0.5789" y="45" relative="1" as="geometry">
            <mxPoint as="offset" />
          </mxGeometry>
        </mxCell>
        <mxCell id="ZLEozxVGKBUG8KeO907A-8" value="Bereits begonnenes &lt;br&gt;Spiel fortsetzen" style="edgeStyle=orthogonalEdgeStyle;rounded=0;orthogonalLoop=1;jettySize=auto;html=1;entryX=0;entryY=0.5;entryDx=0;entryDy=0;" edge="1" parent="1" source="ZLEozxVGKBUG8KeO907A-10" target="ZLEozxVGKBUG8KeO907A-14">
          <mxGeometry x="-0.0435" y="20" relative="1" as="geometry">
            <mxPoint as="offset" />
          </mxGeometry>
        </mxCell>
        <mxCell id="ZLEozxVGKBUG8KeO907A-9" value="Ergebnisse beendeter &lt;br&gt;Spiele ansehen" style="edgeStyle=orthogonalEdgeStyle;rounded=0;orthogonalLoop=1;jettySize=auto;html=1;entryX=0;entryY=0.5;entryDx=0;entryDy=0;exitX=0.5;exitY=1;exitDx=0;exitDy=0;" edge="1" parent="1" source="ZLEozxVGKBUG8KeO907A-10" target="ZLEozxVGKBUG8KeO907A-15">
          <mxGeometry x="-0.4386" y="-65" relative="1" as="geometry">
            <mxPoint as="offset" />
          </mxGeometry>
        </mxCell>
        <mxCell id="ZLEozxVGKBUG8KeO907A-10" value="Absicht" style="rhombus;whiteSpace=wrap;html=1;rounded=0;shadow=1;labelBackgroundColor=none;strokeWidth=1;fontFamily=Verdana;fontSize=8;align=center;" vertex="1" parent="1">
          <mxGeometry x="215" y="2650" width="100" height="60" as="geometry" />
        </mxCell>
        <mxCell id="ZLEozxVGKBUG8KeO907A-11" style="edgeStyle=orthogonalEdgeStyle;rounded=0;orthogonalLoop=1;jettySize=auto;html=1;" edge="1" parent="1" source="ZLEozxVGKBUG8KeO907A-12" target="ZLEozxVGKBUG8KeO907A-6">
          <mxGeometry relative="1" as="geometry" />
        </mxCell>
        <mxCell id="ZLEozxVGKBUG8KeO907A-12" value="Neues Spiel" style="whiteSpace=wrap;html=1;rounded=0;shadow=1;labelBackgroundColor=none;strokeWidth=1;fontFamily=Verdana;fontSize=8;align=center;" vertex="1" parent="1">
          <mxGeometry x="430" y="2510" width="120" height="40" as="geometry" />
        </mxCell>
        <mxCell id="ZLEozxVGKBUG8KeO907A-13" style="edgeStyle=orthogonalEdgeStyle;rounded=0;orthogonalLoop=1;jettySize=auto;html=1;" edge="1" parent="1" source="ZLEozxVGKBUG8KeO907A-14" target="ZLEozxVGKBUG8KeO907A-16">
          <mxGeometry relative="1" as="geometry" />
        </mxCell>
        <mxCell id="ZLEozxVGKBUG8KeO907A-14" value="Spiel Fortsetzen" style="whiteSpace=wrap;html=1;rounded=0;shadow=1;labelBackgroundColor=none;strokeWidth=1;fontFamily=Verdana;fontSize=8;align=center;" vertex="1" parent="1">
          <mxGeometry x="430" y="2660" width="120" height="40" as="geometry" />
        </mxCell>
        <mxCell id="ZLEozxVGKBUG8KeO907A-15" value="Historie" style="whiteSpace=wrap;html=1;rounded=0;shadow=1;labelBackgroundColor=none;strokeWidth=1;fontFamily=Verdana;fontSize=8;align=center;" vertex="1" parent="1">
          <mxGeometry x="430" y="2810" width="120" height="40" as="geometry" />
        </mxCell>
        <mxCell id="ZLEozxVGKBUG8KeO907A-16" value="View: Mehrspieler- Spiel fortsetzen" style="strokeWidth=1;html=1;shape=mxgraph.flowchart.terminator;whiteSpace=wrap;fontFamily=Verdana;fontSize=8;fontColor=default;labelBackgroundColor=none;resizable=0;rounded=0;shadow=1;strokeColor=default;align=center;verticalAlign=middle;fillColor=default;" vertex="1" parent="1">
          <mxGeometry x="700" y="2650" width="100" height="60" as="geometry" />
        </mxCell>
        <mxCell id="ZLEozxVGKBUG8KeO907A-17" value="View: Mehrspieler - Historie" style="strokeWidth=1;html=1;shape=mxgraph.flowchart.terminator;whiteSpace=wrap;fontFamily=Verdana;fontSize=8;fontColor=default;labelBackgroundColor=none;resizable=0;rounded=0;shadow=1;strokeColor=default;align=center;verticalAlign=middle;fillColor=default;" vertex="1" parent="1">
          <mxGeometry x="700" y="2800" width="100" height="60" as="geometry" />
        </mxCell>
        <mxCell id="ZLEozxVGKBUG8KeO907A-18" style="edgeStyle=orthogonalEdgeStyle;rounded=0;orthogonalLoop=1;jettySize=auto;html=1;entryX=0;entryY=0.5;entryDx=0;entryDy=0;entryPerimeter=0;" edge="1" parent="1" source="ZLEozxVGKBUG8KeO907A-15" target="ZLEozxVGKBUG8KeO907A-17">
          <mxGeometry relative="1" as="geometry" />
        </mxCell>
        <mxCell id="-5uG6YW7xq3rEps0PHDF-1" value="&lt;pre&gt;&lt;span style=&quot;font-family: Helvetica; white-space: normal;&quot;&gt;&lt;font style=&quot;font-size: 15px;&quot;&gt;UF8 -&amp;nbsp; Mehrspieler - Spiel starten&lt;/font&gt;&lt;/span&gt;&lt;/pre&gt;" style="text;whiteSpace=wrap;html=1;strokeColor=default;verticalAlign=middle;spacing=2;labelPosition=center;verticalLabelPosition=middle;align=center;" vertex="1" parent="1">
          <mxGeometry y="2920" width="210" height="60" as="geometry" />
        </mxCell>
        <mxCell id="-5uG6YW7xq3rEps0PHDF-2" value="Flow für die Auswahl eines Quizpools und dem starten eines Mehrspieler Quiz&#39;" style="text;html=1;align=center;verticalAlign=middle;whiteSpace=wrap;rounded=0;strokeColor=default;fontSize=9;" vertex="1" parent="1">
          <mxGeometry x="220" y="2920" width="420" height="60" as="geometry" />
        </mxCell>
        <mxCell id="-5uG6YW7xq3rEps0PHDF-3" value="Views:&lt;div style=&quot;font-size: 8px;&quot;&gt;&lt;ul style=&quot;font-size: 8px;&quot;&gt;&lt;li style=&quot;font-size: 8px;&quot;&gt;Mehrspieler- Neues Spiel&lt;/li&gt;&lt;/ul&gt;&lt;/div&gt;" style="text;html=1;align=left;verticalAlign=top;whiteSpace=wrap;rounded=0;textShadow=0;strokeColor=default;fontSize=8;" vertex="1" parent="1">
          <mxGeometry x="660" y="2920" width="420" height="60" as="geometry" />
        </mxCell>
        <mxCell id="-5uG6YW7xq3rEps0PHDF-4" style="edgeStyle=orthogonalEdgeStyle;rounded=0;orthogonalLoop=1;jettySize=auto;html=1;entryX=0;entryY=0.5;entryDx=0;entryDy=0;strokeColor=default;strokeWidth=1;align=center;verticalAlign=middle;fontFamily=Verdana;fontSize=8;fontColor=default;labelBackgroundColor=none;resizable=0;endArrow=classic;fillColor=none;gradientColor=none;exitX=1;exitY=0.5;exitDx=0;exitDy=0;exitPerimeter=0;" edge="1" parent="1" source="-5uG6YW7xq3rEps0PHDF-5" target="-5uG6YW7xq3rEps0PHDF-7">
          <mxGeometry relative="1" as="geometry">
            <mxPoint x="215" y="3260" as="targetPoint" />
          </mxGeometry>
        </mxCell>
        <mxCell id="-5uG6YW7xq3rEps0PHDF-5" value="View: Mehrspieler - Neues Spiel" style="strokeWidth=1;html=1;shape=mxgraph.flowchart.start_2;whiteSpace=wrap;rounded=0;shadow=1;strokeColor=default;align=center;verticalAlign=middle;fontFamily=Verdana;fontSize=8;fontColor=default;labelBackgroundColor=none;fillColor=default;" vertex="1" parent="1">
          <mxGeometry x="30" y="3230" width="60" height="60" as="geometry" />
        </mxCell>
        <mxCell id="-5uG6YW7xq3rEps0PHDF-6" style="edgeStyle=orthogonalEdgeStyle;rounded=0;orthogonalLoop=1;jettySize=auto;html=1;entryX=0;entryY=0.5;entryDx=0;entryDy=0;" edge="1" parent="1" source="-5uG6YW7xq3rEps0PHDF-7" target="-5uG6YW7xq3rEps0PHDF-9">
          <mxGeometry relative="1" as="geometry" />
        </mxCell>
        <mxCell id="-5uG6YW7xq3rEps0PHDF-7" value="Klick [Pool x] um ein Quizpool für das Spiel auszuwählen" style="whiteSpace=wrap;html=1;rounded=0;shadow=1;labelBackgroundColor=none;strokeWidth=1;fontFamily=Verdana;fontSize=8;align=center;" vertex="1" parent="1">
          <mxGeometry x="190" y="3240" width="120" height="40" as="geometry" />
        </mxCell>
        <mxCell id="-5uG6YW7xq3rEps0PHDF-8" style="edgeStyle=orthogonalEdgeStyle;rounded=0;orthogonalLoop=1;jettySize=auto;html=1;entryX=0;entryY=0.5;entryDx=0;entryDy=0;" edge="1" parent="1" source="-5uG6YW7xq3rEps0PHDF-9" target="-5uG6YW7xq3rEps0PHDF-12">
          <mxGeometry relative="1" as="geometry" />
        </mxCell>
        <mxCell id="-5uG6YW7xq3rEps0PHDF-9" value="Anzeige der enthaltenen Fragen" style="whiteSpace=wrap;html=1;rounded=0;shadow=1;labelBackgroundColor=none;strokeWidth=1;fontFamily=Verdana;fontSize=8;align=center;" vertex="1" parent="1">
          <mxGeometry x="410" y="3240" width="120" height="40" as="geometry" />
        </mxCell>
        <mxCell id="-5uG6YW7xq3rEps0PHDF-10" value="View: Mehrspieler - Spiel" style="strokeWidth=1;html=1;shape=mxgraph.flowchart.terminator;whiteSpace=wrap;fontFamily=Verdana;fontSize=8;fontColor=default;labelBackgroundColor=none;resizable=0;rounded=0;shadow=1;strokeColor=default;align=center;verticalAlign=middle;fillColor=default;" vertex="1" parent="1">
          <mxGeometry x="850" y="3230" width="100" height="60" as="geometry" />
        </mxCell>
        <mxCell id="-5uG6YW7xq3rEps0PHDF-11" style="edgeStyle=orthogonalEdgeStyle;rounded=0;orthogonalLoop=1;jettySize=auto;html=1;" edge="1" parent="1" source="-5uG6YW7xq3rEps0PHDF-12" target="-5uG6YW7xq3rEps0PHDF-10">
          <mxGeometry relative="1" as="geometry" />
        </mxCell>
        <mxCell id="-5uG6YW7xq3rEps0PHDF-12" value="Klick [Spiel beginnen] um das Spiel zu beginnen" style="whiteSpace=wrap;html=1;rounded=0;shadow=1;labelBackgroundColor=none;strokeWidth=1;fontFamily=Verdana;fontSize=8;align=center;" vertex="1" parent="1">
          <mxGeometry x="630" y="3240" width="120" height="40" as="geometry" />
        </mxCell>
        <mxCell id="IeIo4BOUN6EDnnnoKxnn-1" value="&lt;pre&gt;&lt;span style=&quot;font-family: Helvetica; white-space: normal;&quot;&gt;&lt;font style=&quot;font-size: 15px;&quot;&gt;UF9 - Mehrspieler - Spielen&lt;/font&gt;&lt;/span&gt;&lt;/pre&gt;" style="text;whiteSpace=wrap;html=1;strokeColor=default;verticalAlign=middle;spacing=2;labelPosition=center;verticalLabelPosition=middle;align=center;" vertex="1" parent="1">
          <mxGeometry x="10" y="3360" width="210" height="60" as="geometry" />
        </mxCell>
        <mxCell id="IeIo4BOUN6EDnnnoKxnn-2" value="Spielablauf" style="text;html=1;align=center;verticalAlign=middle;whiteSpace=wrap;rounded=0;strokeColor=default;fontSize=9;" vertex="1" parent="1">
          <mxGeometry x="230" y="3360" width="420" height="60" as="geometry" />
        </mxCell>
        <mxCell id="IeIo4BOUN6EDnnnoKxnn-3" value="Views:&lt;div style=&quot;font-size: 8px;&quot;&gt;&lt;ul style=&quot;font-size: 8px;&quot;&gt;&lt;li style=&quot;font-size: 8px;&quot;&gt;Mehrspieler - Spiel&amp;nbsp;&lt;/li&gt;&lt;/ul&gt;&lt;/div&gt;" style="text;html=1;align=left;verticalAlign=top;whiteSpace=wrap;rounded=0;textShadow=0;strokeColor=default;fontSize=8;" vertex="1" parent="1">
          <mxGeometry x="670" y="3360" width="420" height="60" as="geometry" />
        </mxCell>
        <mxCell id="IeIo4BOUN6EDnnnoKxnn-5" value="View: Mehrspieler- Spielen&amp;nbsp;" style="strokeWidth=1;html=1;shape=mxgraph.flowchart.start_2;whiteSpace=wrap;rounded=0;shadow=1;strokeColor=default;align=center;verticalAlign=middle;fontFamily=Verdana;fontSize=8;fontColor=default;labelBackgroundColor=none;fillColor=default;" vertex="1" parent="1">
          <mxGeometry x="30" y="3550" width="60" height="60" as="geometry" />
        </mxCell>
        <mxCell id="IeIo4BOUN6EDnnnoKxnn-8" value="Frage &lt;br&gt;beantworten" style="edgeStyle=orthogonalEdgeStyle;rounded=0;orthogonalLoop=1;jettySize=auto;html=1;entryX=0;entryY=0.5;entryDx=0;entryDy=0;exitX=1;exitY=0.5;exitDx=0;exitDy=0;exitPerimeter=0;" edge="1" parent="1" source="IeIo4BOUN6EDnnnoKxnn-5" target="IeIo4BOUN6EDnnnoKxnn-12">
          <mxGeometry x="1" y="171" relative="1" as="geometry">
            <mxPoint x="170" y="151" as="offset" />
            <mxPoint x="160" y="3740" as="sourcePoint" />
            <Array as="points">
              <mxPoint x="190" y="3580" />
              <mxPoint x="190" y="3580" />
            </Array>
          </mxGeometry>
        </mxCell>
        <mxCell id="IeIo4BOUN6EDnnnoKxnn-11" style="edgeStyle=orthogonalEdgeStyle;rounded=0;orthogonalLoop=1;jettySize=auto;html=1;entryX=0;entryY=0.5;entryDx=0;entryDy=0;" edge="1" parent="1" source="IeIo4BOUN6EDnnnoKxnn-12" target="IeIo4BOUN6EDnnnoKxnn-17">
          <mxGeometry relative="1" as="geometry" />
        </mxCell>
        <mxCell id="IeIo4BOUN6EDnnnoKxnn-12" value="Anzeige Frage x mit den jeweiligen Antworten" style="whiteSpace=wrap;html=1;rounded=0;shadow=1;labelBackgroundColor=none;strokeWidth=1;fontFamily=Verdana;fontSize=8;align=center;" vertex="1" parent="1">
          <mxGeometry x="190" y="3560" width="120" height="40" as="geometry" />
        </mxCell>
        <mxCell id="IeIo4BOUN6EDnnnoKxnn-16" style="edgeStyle=orthogonalEdgeStyle;rounded=0;orthogonalLoop=1;jettySize=auto;html=1;entryX=0;entryY=0.5;entryDx=0;entryDy=0;" edge="1" parent="1" source="IeIo4BOUN6EDnnnoKxnn-17" target="IeIo4BOUN6EDnnnoKxnn-19">
          <mxGeometry relative="1" as="geometry" />
        </mxCell>
        <mxCell id="IeIo4BOUN6EDnnnoKxnn-17" value="Klick [Antwort senden]" style="whiteSpace=wrap;html=1;rounded=0;shadow=1;labelBackgroundColor=none;strokeWidth=1;fontFamily=Verdana;fontSize=8;align=center;" vertex="1" parent="1">
          <mxGeometry x="410" y="3560" width="120" height="40" as="geometry" />
        </mxCell>
        <mxCell id="IeIo4BOUN6EDnnnoKxnn-18" style="edgeStyle=orthogonalEdgeStyle;rounded=0;orthogonalLoop=1;jettySize=auto;html=1;" edge="1" parent="1" source="IeIo4BOUN6EDnnnoKxnn-19" target="IeIo4BOUN6EDnnnoKxnn-22">
          <mxGeometry relative="1" as="geometry" />
        </mxCell>
        <mxCell id="IeIo4BOUN6EDnnnoKxnn-19" value="Aktueller Zug wird auf anderen Spieler gewechselt" style="whiteSpace=wrap;html=1;rounded=0;shadow=1;labelBackgroundColor=none;strokeWidth=1;fontFamily=Verdana;fontSize=8;align=center;" vertex="1" parent="1">
          <mxGeometry x="630" y="3560" width="120" height="40" as="geometry" />
        </mxCell>
        <mxCell id="IeIo4BOUN6EDnnnoKxnn-22" value="Klick [Antwort senden]" style="whiteSpace=wrap;html=1;rounded=0;shadow=1;labelBackgroundColor=none;strokeWidth=1;fontFamily=Verdana;fontSize=8;align=center;" vertex="1" parent="1">
          <mxGeometry x="827" y="3560" width="120" height="40" as="geometry" />
        </mxCell>
        <mxCell id="IeIo4BOUN6EDnnnoKxnn-31" style="edgeStyle=orthogonalEdgeStyle;rounded=0;orthogonalLoop=1;jettySize=auto;html=1;entryX=0;entryY=0.5;entryDx=0;entryDy=0;exitX=0.5;exitY=1;exitDx=0;exitDy=0;" edge="1" parent="1" source="IeIo4BOUN6EDnnnoKxnn-22" target="IeIo4BOUN6EDnnnoKxnn-40">
          <mxGeometry relative="1" as="geometry">
            <mxPoint x="475" y="3770" as="sourcePoint" />
          </mxGeometry>
        </mxCell>
        <mxCell id="IeIo4BOUN6EDnnnoKxnn-51" style="edgeStyle=orthogonalEdgeStyle;rounded=0;orthogonalLoop=1;jettySize=auto;html=1;entryX=0.5;entryY=0;entryDx=0;entryDy=0;" edge="1" parent="1" source="IeIo4BOUN6EDnnnoKxnn-36" target="IeIo4BOUN6EDnnnoKxnn-19">
          <mxGeometry relative="1" as="geometry">
            <mxPoint x="680" y="3490" as="targetPoint" />
            <Array as="points">
              <mxPoint x="1001" y="3770" />
              <mxPoint x="1001" y="3490" />
              <mxPoint x="690" y="3490" />
            </Array>
          </mxGeometry>
        </mxCell>
        <mxCell id="IeIo4BOUN6EDnnnoKxnn-36" value="Anzeige nachfolgender Frage" style="whiteSpace=wrap;html=1;rounded=0;shadow=1;labelBackgroundColor=none;strokeWidth=1;fontFamily=Verdana;fontSize=8;align=center;" vertex="1" parent="1">
          <mxGeometry x="630" y="3750" width="120" height="40" as="geometry" />
        </mxCell>
        <mxCell id="IeIo4BOUN6EDnnnoKxnn-38" style="edgeStyle=orthogonalEdgeStyle;rounded=0;orthogonalLoop=1;jettySize=auto;html=1;entryX=0;entryY=0.5;entryDx=0;entryDy=0;" edge="1" parent="1" source="IeIo4BOUN6EDnnnoKxnn-40" target="IeIo4BOUN6EDnnnoKxnn-36">
          <mxGeometry relative="1" as="geometry" />
        </mxCell>
        <mxCell id="IeIo4BOUN6EDnnnoKxnn-39" value="Nein" style="edgeLabel;html=1;align=center;verticalAlign=middle;resizable=0;points=[];" vertex="1" connectable="0" parent="IeIo4BOUN6EDnnnoKxnn-38">
          <mxGeometry x="-0.2381" y="-1" relative="1" as="geometry">
            <mxPoint x="2" y="-11" as="offset" />
          </mxGeometry>
        </mxCell>
        <mxCell id="IeIo4BOUN6EDnnnoKxnn-40" value="Letze Frage?" style="rhombus;whiteSpace=wrap;html=1;rounded=0;shadow=1;labelBackgroundColor=none;strokeWidth=1;fontFamily=Verdana;fontSize=8;align=center;" vertex="1" parent="1">
          <mxGeometry x="430" y="3740" width="100" height="60" as="geometry" />
        </mxCell>
        <mxCell id="IeIo4BOUN6EDnnnoKxnn-44" value="View: Einzelspieler - Ergebnis" style="strokeWidth=1;html=1;shape=mxgraph.flowchart.terminator;whiteSpace=wrap;fontFamily=Verdana;fontSize=8;fontColor=default;labelBackgroundColor=none;resizable=0;rounded=0;shadow=1;strokeColor=default;align=center;verticalAlign=middle;fillColor=default;" vertex="1" parent="1">
          <mxGeometry x="837" y="3820" width="100" height="60" as="geometry" />
        </mxCell>
        <mxCell id="IeIo4BOUN6EDnnnoKxnn-45" value="Ja" style="edgeStyle=orthogonalEdgeStyle;rounded=0;orthogonalLoop=1;jettySize=auto;html=1;entryX=0;entryY=0.5;entryDx=0;entryDy=0;entryPerimeter=0;" edge="1" parent="1" source="IeIo4BOUN6EDnnnoKxnn-40" target="IeIo4BOUN6EDnnnoKxnn-44">
          <mxGeometry x="-0.283" y="-15" relative="1" as="geometry">
            <Array as="points">
              <mxPoint x="585" y="3850" />
            </Array>
            <mxPoint as="offset" />
          </mxGeometry>
        </mxCell>
        <mxCell id="Ef7kRwH9BY6BhtkJ0lsL-1" value="&lt;pre&gt;&lt;span style=&quot;font-family: Helvetica; white-space: normal;&quot;&gt;&lt;font style=&quot;font-size: 15px;&quot;&gt;UF10 - Mehrspieler - Spiel fortsetzen&lt;/font&gt;&lt;/span&gt;&lt;/pre&gt;" style="text;whiteSpace=wrap;html=1;strokeColor=default;verticalAlign=middle;spacing=2;labelPosition=center;verticalLabelPosition=middle;align=center;" vertex="1" parent="1">
          <mxGeometry y="3930" width="210" height="60" as="geometry" />
        </mxCell>
        <mxCell id="Ef7kRwH9BY6BhtkJ0lsL-2" value="Flow für die Auswahl eines begonnenen Spiels zum Fortsetzen des Quiz&#39;" style="text;html=1;align=center;verticalAlign=middle;whiteSpace=wrap;rounded=0;strokeColor=default;fontSize=9;" vertex="1" parent="1">
          <mxGeometry x="220" y="3930" width="420" height="60" as="geometry" />
        </mxCell>
        <mxCell id="Ef7kRwH9BY6BhtkJ0lsL-3" value="Views:&lt;div style=&quot;font-size: 8px;&quot;&gt;&lt;ul style=&quot;font-size: 8px;&quot;&gt;&lt;li style=&quot;font-size: 8px;&quot;&gt;Mehrspieler - Spiel fortsetzen&lt;/li&gt;&lt;/ul&gt;&lt;/div&gt;" style="text;html=1;align=left;verticalAlign=top;whiteSpace=wrap;rounded=0;textShadow=0;strokeColor=default;fontSize=8;" vertex="1" parent="1">
          <mxGeometry x="660" y="3930" width="420" height="60" as="geometry" />
        </mxCell>
        <mxCell id="Ef7kRwH9BY6BhtkJ0lsL-4" style="edgeStyle=orthogonalEdgeStyle;rounded=0;orthogonalLoop=1;jettySize=auto;html=1;entryX=0;entryY=0.5;entryDx=0;entryDy=0;strokeColor=default;strokeWidth=1;align=center;verticalAlign=middle;fontFamily=Verdana;fontSize=8;fontColor=default;labelBackgroundColor=none;resizable=0;endArrow=classic;fillColor=none;gradientColor=none;exitX=1;exitY=0.5;exitDx=0;exitDy=0;exitPerimeter=0;" edge="1" parent="1" source="Ef7kRwH9BY6BhtkJ0lsL-5" target="Ef7kRwH9BY6BhtkJ0lsL-7">
          <mxGeometry relative="1" as="geometry">
            <mxPoint x="215" y="4270" as="targetPoint" />
          </mxGeometry>
        </mxCell>
        <mxCell id="Ef7kRwH9BY6BhtkJ0lsL-5" value="View: Mehrspieler - Spiel fortsetzen" style="strokeWidth=1;html=1;shape=mxgraph.flowchart.start_2;whiteSpace=wrap;rounded=0;shadow=1;strokeColor=default;align=center;verticalAlign=middle;fontFamily=Verdana;fontSize=8;fontColor=default;labelBackgroundColor=none;fillColor=default;" vertex="1" parent="1">
          <mxGeometry x="30" y="4240" width="60" height="60" as="geometry" />
        </mxCell>
        <mxCell id="Ef7kRwH9BY6BhtkJ0lsL-6" style="edgeStyle=orthogonalEdgeStyle;rounded=0;orthogonalLoop=1;jettySize=auto;html=1;entryX=0;entryY=0.5;entryDx=0;entryDy=0;entryPerimeter=0;" edge="1" parent="1" source="Ef7kRwH9BY6BhtkJ0lsL-7" target="Ef7kRwH9BY6BhtkJ0lsL-10">
          <mxGeometry relative="1" as="geometry">
            <mxPoint x="410" y="4270" as="targetPoint" />
          </mxGeometry>
        </mxCell>
        <mxCell id="Ef7kRwH9BY6BhtkJ0lsL-7" value="Klick [Pool x ] um ein angefangenes Spiel fortzusetzen" style="whiteSpace=wrap;html=1;rounded=0;shadow=1;labelBackgroundColor=none;strokeWidth=1;fontFamily=Verdana;fontSize=8;align=center;" vertex="1" parent="1">
          <mxGeometry x="190" y="4250" width="120" height="40" as="geometry" />
        </mxCell>
        <mxCell id="Ef7kRwH9BY6BhtkJ0lsL-10" value="View: Mehrspieler - Spiel 1" style="strokeWidth=1;html=1;shape=mxgraph.flowchart.terminator;whiteSpace=wrap;fontFamily=Verdana;fontSize=8;fontColor=default;labelBackgroundColor=none;resizable=0;rounded=0;shadow=1;strokeColor=default;align=center;verticalAlign=middle;fillColor=default;" vertex="1" parent="1">
          <mxGeometry x="430" y="4240" width="100" height="60" as="geometry" />
        </mxCell>
        <mxCell id="xfU04HsRk06LAqLzU0ZM-1" value="&lt;pre&gt;&lt;span style=&quot;font-family: Helvetica; white-space: normal;&quot;&gt;&lt;font style=&quot;font-size: 15px;&quot;&gt;UF11 - Mehrspieler - Historie anzeigen&lt;/font&gt;&lt;/span&gt;&lt;/pre&gt;" style="text;whiteSpace=wrap;html=1;strokeColor=default;verticalAlign=middle;spacing=2;labelPosition=center;verticalLabelPosition=middle;align=center;" vertex="1" parent="1">
          <mxGeometry y="4390" width="210" height="60" as="geometry" />
        </mxCell>
        <mxCell id="xfU04HsRk06LAqLzU0ZM-2" value="Flow zum Anzeigen der Ergebnisse abgeschlossener Vergangener Spiele." style="text;html=1;align=center;verticalAlign=middle;whiteSpace=wrap;rounded=0;strokeColor=default;fontSize=9;" vertex="1" parent="1">
          <mxGeometry x="220" y="4390" width="420" height="60" as="geometry" />
        </mxCell>
        <mxCell id="xfU04HsRk06LAqLzU0ZM-3" value="Views:&lt;div style=&quot;font-size: 8px;&quot;&gt;&lt;ul style=&quot;font-size: 8px;&quot;&gt;&lt;li style=&quot;font-size: 8px;&quot;&gt;Mehrspieler - Historie&amp;nbsp;&lt;/li&gt;&lt;/ul&gt;&lt;/div&gt;" style="text;html=1;align=left;verticalAlign=top;whiteSpace=wrap;rounded=0;textShadow=0;strokeColor=default;fontSize=8;" vertex="1" parent="1">
          <mxGeometry x="660" y="4390" width="420" height="60" as="geometry" />
        </mxCell>
        <mxCell id="xfU04HsRk06LAqLzU0ZM-4" style="edgeStyle=orthogonalEdgeStyle;rounded=0;orthogonalLoop=1;jettySize=auto;html=1;entryX=0;entryY=0.5;entryDx=0;entryDy=0;strokeColor=default;strokeWidth=1;align=center;verticalAlign=middle;fontFamily=Verdana;fontSize=8;fontColor=default;labelBackgroundColor=none;resizable=0;endArrow=classic;fillColor=none;gradientColor=none;exitX=1;exitY=0.5;exitDx=0;exitDy=0;exitPerimeter=0;" edge="1" parent="1" source="xfU04HsRk06LAqLzU0ZM-5" target="xfU04HsRk06LAqLzU0ZM-7">
          <mxGeometry relative="1" as="geometry">
            <mxPoint x="215" y="4730" as="targetPoint" />
          </mxGeometry>
        </mxCell>
        <mxCell id="xfU04HsRk06LAqLzU0ZM-5" value="View: Mehrspieler - Historie" style="strokeWidth=1;html=1;shape=mxgraph.flowchart.start_2;whiteSpace=wrap;rounded=0;shadow=1;strokeColor=default;align=center;verticalAlign=middle;fontFamily=Verdana;fontSize=8;fontColor=default;labelBackgroundColor=none;fillColor=default;" vertex="1" parent="1">
          <mxGeometry x="30" y="4700" width="60" height="60" as="geometry" />
        </mxCell>
        <mxCell id="xfU04HsRk06LAqLzU0ZM-6" style="edgeStyle=orthogonalEdgeStyle;rounded=0;orthogonalLoop=1;jettySize=auto;html=1;entryX=0;entryY=0.5;entryDx=0;entryDy=0;" edge="1" parent="1" source="xfU04HsRk06LAqLzU0ZM-7" target="xfU04HsRk06LAqLzU0ZM-9">
          <mxGeometry relative="1" as="geometry" />
        </mxCell>
        <mxCell id="xfU04HsRk06LAqLzU0ZM-7" value="Klick [Ergebnisse anzeigen] für ausgewählten Fragepool&amp;nbsp;" style="whiteSpace=wrap;html=1;rounded=0;shadow=1;labelBackgroundColor=none;strokeWidth=1;fontFamily=Verdana;fontSize=8;align=center;" vertex="1" parent="1">
          <mxGeometry x="190" y="4710" width="120" height="40" as="geometry" />
        </mxCell>
        <mxCell id="xfU04HsRk06LAqLzU0ZM-8" style="edgeStyle=orthogonalEdgeStyle;rounded=0;orthogonalLoop=1;jettySize=auto;html=1;entryX=0;entryY=0.5;entryDx=0;entryDy=0;entryPerimeter=0;" edge="1" parent="1" source="xfU04HsRk06LAqLzU0ZM-9" target="xfU04HsRk06LAqLzU0ZM-10">
          <mxGeometry relative="1" as="geometry">
            <mxPoint x="630" y="4730" as="targetPoint" />
          </mxGeometry>
        </mxCell>
        <mxCell id="xfU04HsRk06LAqLzU0ZM-9" value="Anzeige der Spielergebnisse" style="whiteSpace=wrap;html=1;rounded=0;shadow=1;labelBackgroundColor=none;strokeWidth=1;fontFamily=Verdana;fontSize=8;align=center;" vertex="1" parent="1">
          <mxGeometry x="410" y="4710" width="120" height="40" as="geometry" />
        </mxCell>
        <mxCell id="xfU04HsRk06LAqLzU0ZM-10" value="View: Mehrspieler - Historie" style="strokeWidth=1;html=1;shape=mxgraph.flowchart.terminator;whiteSpace=wrap;fontFamily=Verdana;fontSize=8;fontColor=default;labelBackgroundColor=none;resizable=0;rounded=0;shadow=1;strokeColor=default;align=center;verticalAlign=middle;fillColor=default;" vertex="1" parent="1">
          <mxGeometry x="630" y="4700" width="100" height="60" as="geometry" />
        </mxCell>
      </root>
    </mxGraphModel>
  </diagram>
</mxfile>
